M48
;DRILL file {KiCad 4.0.5+dfsg1-4} date Sat Oct  6 15:16:20 2018
;FORMAT={-:-/ absolute / inch / decimal}
FMAT,2
INCH,TZ
T1C0.016
T2C0.031
T3C0.032
T4C0.032
T5C0.039
T6C0.040
%
G90
G05
M72
T1
X3.4Y-3.9
X3.65Y-2.75
X4.45Y-3.85
X4.8Y-3.3
X4.85Y-3.85
X4.85Y-3.95
T2
X3.65Y-3.9
X3.8Y-3.9
X4.25Y-2.4
X4.25Y-2.5
X4.25Y-2.6
X4.25Y-2.7
X4.25Y-2.8
X4.25Y-2.9
X4.25Y-3.
X4.2516Y-3.5
X4.2516Y-3.75
X4.35Y-3.5
X4.35Y-3.75
X4.45Y-2.25
X4.55Y-2.4
X4.55Y-2.5
X4.55Y-2.6
X4.55Y-2.7
X4.55Y-2.8
X4.55Y-2.9
X4.55Y-3.
X4.6Y-3.5
X4.6Y-3.7
X4.6984Y-3.5
X4.8Y-2.2516
X4.8Y-2.35
X5.45Y-2.6
X5.5484Y-2.6
X5.85Y-2.65
X6.65Y-2.65
X6.8Y-3.05
T3
X3.65Y-3.9984
X3.8Y-3.9984
X4.3516Y-2.25
X4.6984Y-3.7
X5.85Y-2.5516
X6.65Y-2.7484
X6.7016Y-3.05
T4
X6.Y-2.45
X6.Y-2.55
X6.Y-2.65
X6.Y-2.75
X6.1Y-2.35
X6.1Y-2.45
X6.1Y-2.55
X6.1Y-2.65
X6.1Y-2.75
X6.1Y-2.85
X6.2Y-2.35
X6.2Y-2.45
X6.2Y-2.75
X6.2Y-2.85
X6.3Y-2.35
X6.3Y-2.45
X6.3Y-2.75
X6.3Y-2.85
X6.4Y-2.35
X6.4Y-2.45
X6.4Y-2.55
X6.4Y-2.65
X6.4Y-2.75
X6.4Y-2.85
X6.5Y-2.45
X6.5Y-2.55
X6.5Y-2.65
X6.5Y-2.75
T5
X3.65Y-3.4
X3.65Y-3.8
X3.75Y-2.4
X3.75Y-3.
X3.8Y-3.4
X3.8Y-3.8
X3.95Y-3.4
X3.95Y-3.8
X4.05Y-2.4
X4.05Y-3.
X4.1Y-3.4
X4.1Y-3.8
X4.2Y-3.25
X4.6Y-3.25
X4.95Y-3.55
X4.95Y-3.95
X5.15Y-3.25
X5.35Y-2.3
X5.45Y-2.3
X5.55Y-2.3
X5.55Y-3.25
X6.8Y-2.25
X6.8Y-2.65
T6
X3.3Y-2.5
X3.3Y-2.6
X3.3Y-2.7
X3.3Y-2.8
X3.3Y-2.9
X3.3Y-3.
X3.3Y-3.1
X3.3Y-3.2
X3.3Y-3.3
X3.3Y-3.4
X3.3Y-3.5
X3.3Y-3.6
X3.3Y-3.7
X3.4Y-2.5
X3.4Y-2.6
X3.4Y-2.7
X3.4Y-2.8
X3.4Y-2.9
X3.4Y-3.
X3.4Y-3.1
X3.4Y-3.2
X3.4Y-3.3
X3.4Y-3.4
X3.4Y-3.5
X3.4Y-3.6
X3.4Y-3.7
T0
M30
