G04 #@! TF.FileFunction,Legend,Top*
%FSLAX46Y46*%
G04 Gerber Fmt 4.6, Leading zero omitted, Abs format (unit mm)*
G04 Created by KiCad (PCBNEW 4.0.5+dfsg1-4) date Sat Oct  6 15:16:14 2018*
%MOMM*%
%LPD*%
G01*
G04 APERTURE LIST*
%ADD10C,0.100000*%
%ADD11C,0.300000*%
%ADD12C,0.150000*%
G04 APERTURE END LIST*
D10*
D11*
X170648572Y-102278571D02*
X170148572Y-101564286D01*
X169791429Y-102278571D02*
X169791429Y-100778571D01*
X170362857Y-100778571D01*
X170505715Y-100850000D01*
X170577143Y-100921429D01*
X170648572Y-101064286D01*
X170648572Y-101278571D01*
X170577143Y-101421429D01*
X170505715Y-101492857D01*
X170362857Y-101564286D01*
X169791429Y-101564286D01*
X171291429Y-101492857D02*
X171791429Y-101492857D01*
X172005715Y-102278571D02*
X171291429Y-102278571D01*
X171291429Y-100778571D01*
X172005715Y-100778571D01*
X172434286Y-100778571D02*
X172934286Y-102278571D01*
X173434286Y-100778571D01*
X175005714Y-101850000D02*
X175720000Y-101850000D01*
X174862857Y-102278571D02*
X175362857Y-100778571D01*
X175862857Y-102278571D01*
X145900000Y-93378571D02*
X145900000Y-91878571D01*
X146257143Y-91878571D01*
X146471428Y-91950000D01*
X146614286Y-92092857D01*
X146685714Y-92235714D01*
X146757143Y-92521429D01*
X146757143Y-92735714D01*
X146685714Y-93021429D01*
X146614286Y-93164286D01*
X146471428Y-93307143D01*
X146257143Y-93378571D01*
X145900000Y-93378571D01*
X147971428Y-93307143D02*
X147828571Y-93378571D01*
X147542857Y-93378571D01*
X147400000Y-93307143D01*
X147328571Y-93164286D01*
X147328571Y-92592857D01*
X147400000Y-92450000D01*
X147542857Y-92378571D01*
X147828571Y-92378571D01*
X147971428Y-92450000D01*
X148042857Y-92592857D01*
X148042857Y-92735714D01*
X147328571Y-92878571D01*
X148614285Y-93307143D02*
X148757142Y-93378571D01*
X149042857Y-93378571D01*
X149185714Y-93307143D01*
X149257142Y-93164286D01*
X149257142Y-93092857D01*
X149185714Y-92950000D01*
X149042857Y-92878571D01*
X148828571Y-92878571D01*
X148685714Y-92807143D01*
X148614285Y-92664286D01*
X148614285Y-92592857D01*
X148685714Y-92450000D01*
X148828571Y-92378571D01*
X149042857Y-92378571D01*
X149185714Y-92450000D01*
X149900000Y-93378571D02*
X149900000Y-92378571D01*
X149900000Y-91878571D02*
X149828571Y-91950000D01*
X149900000Y-92021429D01*
X149971428Y-91950000D01*
X149900000Y-91878571D01*
X149900000Y-92021429D01*
X151257143Y-92378571D02*
X151257143Y-93592857D01*
X151185714Y-93735714D01*
X151114286Y-93807143D01*
X150971429Y-93878571D01*
X150757143Y-93878571D01*
X150614286Y-93807143D01*
X151257143Y-93307143D02*
X151114286Y-93378571D01*
X150828572Y-93378571D01*
X150685714Y-93307143D01*
X150614286Y-93235714D01*
X150542857Y-93092857D01*
X150542857Y-92664286D01*
X150614286Y-92521429D01*
X150685714Y-92450000D01*
X150828572Y-92378571D01*
X151114286Y-92378571D01*
X151257143Y-92450000D01*
X151971429Y-92378571D02*
X151971429Y-93378571D01*
X151971429Y-92521429D02*
X152042857Y-92450000D01*
X152185715Y-92378571D01*
X152400000Y-92378571D01*
X152542857Y-92450000D01*
X152614286Y-92592857D01*
X152614286Y-93378571D01*
X153900000Y-93307143D02*
X153757143Y-93378571D01*
X153471429Y-93378571D01*
X153328572Y-93307143D01*
X153257143Y-93164286D01*
X153257143Y-92592857D01*
X153328572Y-92450000D01*
X153471429Y-92378571D01*
X153757143Y-92378571D01*
X153900000Y-92450000D01*
X153971429Y-92592857D01*
X153971429Y-92735714D01*
X153257143Y-92878571D01*
X155257143Y-93378571D02*
X155257143Y-91878571D01*
X155257143Y-93307143D02*
X155114286Y-93378571D01*
X154828572Y-93378571D01*
X154685714Y-93307143D01*
X154614286Y-93235714D01*
X154542857Y-93092857D01*
X154542857Y-92664286D01*
X154614286Y-92521429D01*
X154685714Y-92450000D01*
X154828572Y-92378571D01*
X155114286Y-92378571D01*
X155257143Y-92450000D01*
X157114286Y-93378571D02*
X157114286Y-91878571D01*
X157114286Y-92450000D02*
X157257143Y-92378571D01*
X157542857Y-92378571D01*
X157685714Y-92450000D01*
X157757143Y-92521429D01*
X157828572Y-92664286D01*
X157828572Y-93092857D01*
X157757143Y-93235714D01*
X157685714Y-93307143D01*
X157542857Y-93378571D01*
X157257143Y-93378571D01*
X157114286Y-93307143D01*
X158328572Y-92378571D02*
X158685715Y-93378571D01*
X159042857Y-92378571D02*
X158685715Y-93378571D01*
X158542857Y-93735714D01*
X158471429Y-93807143D01*
X158328572Y-93878571D01*
X143757143Y-95928571D02*
X143757143Y-94428571D01*
X144328572Y-94928571D02*
X144685715Y-95928571D01*
X145042857Y-94928571D01*
X145828572Y-95928571D02*
X145685714Y-95857143D01*
X145614286Y-95785714D01*
X145542857Y-95642857D01*
X145542857Y-95214286D01*
X145614286Y-95071429D01*
X145685714Y-95000000D01*
X145828572Y-94928571D01*
X146042857Y-94928571D01*
X146185714Y-95000000D01*
X146257143Y-95071429D01*
X146328572Y-95214286D01*
X146328572Y-95642857D01*
X146257143Y-95785714D01*
X146185714Y-95857143D01*
X146042857Y-95928571D01*
X145828572Y-95928571D01*
X147971429Y-94928571D02*
X148328572Y-95928571D01*
X148685714Y-94928571D01*
X149900000Y-95928571D02*
X149900000Y-95142857D01*
X149828571Y-95000000D01*
X149685714Y-94928571D01*
X149400000Y-94928571D01*
X149257143Y-95000000D01*
X149900000Y-95857143D02*
X149757143Y-95928571D01*
X149400000Y-95928571D01*
X149257143Y-95857143D01*
X149185714Y-95714286D01*
X149185714Y-95571429D01*
X149257143Y-95428571D01*
X149400000Y-95357143D01*
X149757143Y-95357143D01*
X149900000Y-95285714D01*
X150614286Y-94928571D02*
X150614286Y-95928571D01*
X150614286Y-95071429D02*
X150685714Y-95000000D01*
X150828572Y-94928571D01*
X151042857Y-94928571D01*
X151185714Y-95000000D01*
X151257143Y-95142857D01*
X151257143Y-95928571D01*
X153114286Y-95928571D02*
X153114286Y-94428571D01*
X153685714Y-94428571D01*
X153828572Y-94500000D01*
X153900000Y-94571429D01*
X153971429Y-94714286D01*
X153971429Y-94928571D01*
X153900000Y-95071429D01*
X153828572Y-95142857D01*
X153685714Y-95214286D01*
X153114286Y-95214286D01*
X154828572Y-95928571D02*
X154685714Y-95857143D01*
X154614286Y-95785714D01*
X154542857Y-95642857D01*
X154542857Y-95214286D01*
X154614286Y-95071429D01*
X154685714Y-95000000D01*
X154828572Y-94928571D01*
X155042857Y-94928571D01*
X155185714Y-95000000D01*
X155257143Y-95071429D01*
X155328572Y-95214286D01*
X155328572Y-95642857D01*
X155257143Y-95785714D01*
X155185714Y-95857143D01*
X155042857Y-95928571D01*
X154828572Y-95928571D01*
X156185715Y-95928571D02*
X156042857Y-95857143D01*
X155971429Y-95785714D01*
X155900000Y-95642857D01*
X155900000Y-95214286D01*
X155971429Y-95071429D01*
X156042857Y-95000000D01*
X156185715Y-94928571D01*
X156400000Y-94928571D01*
X156542857Y-95000000D01*
X156614286Y-95071429D01*
X156685715Y-95214286D01*
X156685715Y-95642857D01*
X156614286Y-95785714D01*
X156542857Y-95857143D01*
X156400000Y-95928571D01*
X156185715Y-95928571D01*
X157328572Y-95928571D02*
X157328572Y-94928571D01*
X157328572Y-95214286D02*
X157400000Y-95071429D01*
X157471429Y-95000000D01*
X157614286Y-94928571D01*
X157757143Y-94928571D01*
X158042857Y-94928571D02*
X158614286Y-94928571D01*
X158257143Y-94428571D02*
X158257143Y-95714286D01*
X158328571Y-95857143D01*
X158471429Y-95928571D01*
X158614286Y-95928571D01*
X159685714Y-95857143D02*
X159542857Y-95928571D01*
X159257143Y-95928571D01*
X159114286Y-95857143D01*
X159042857Y-95714286D01*
X159042857Y-95142857D01*
X159114286Y-95000000D01*
X159257143Y-94928571D01*
X159542857Y-94928571D01*
X159685714Y-95000000D01*
X159757143Y-95142857D01*
X159757143Y-95285714D01*
X159042857Y-95428571D01*
X160400000Y-94928571D02*
X160400000Y-95928571D01*
X160400000Y-95071429D02*
X160471428Y-95000000D01*
X160614286Y-94928571D01*
X160828571Y-94928571D01*
X160971428Y-95000000D01*
X161042857Y-95142857D01*
X161042857Y-95928571D01*
X147471430Y-97121429D02*
X147542859Y-97050000D01*
X147685716Y-96978571D01*
X148042859Y-96978571D01*
X148185716Y-97050000D01*
X148257145Y-97121429D01*
X148328573Y-97264286D01*
X148328573Y-97407143D01*
X148257145Y-97621429D01*
X147400002Y-98478571D01*
X148328573Y-98478571D01*
X149257144Y-96978571D02*
X149400001Y-96978571D01*
X149542858Y-97050000D01*
X149614287Y-97121429D01*
X149685716Y-97264286D01*
X149757144Y-97550000D01*
X149757144Y-97907143D01*
X149685716Y-98192857D01*
X149614287Y-98335714D01*
X149542858Y-98407143D01*
X149400001Y-98478571D01*
X149257144Y-98478571D01*
X149114287Y-98407143D01*
X149042858Y-98335714D01*
X148971430Y-98192857D01*
X148900001Y-97907143D01*
X148900001Y-97550000D01*
X148971430Y-97264286D01*
X149042858Y-97121429D01*
X149114287Y-97050000D01*
X149257144Y-96978571D01*
X151185715Y-98478571D02*
X150328572Y-98478571D01*
X150757144Y-98478571D02*
X150757144Y-96978571D01*
X150614287Y-97192857D01*
X150471429Y-97335714D01*
X150328572Y-97407143D01*
X152042858Y-97621429D02*
X151900000Y-97550000D01*
X151828572Y-97478571D01*
X151757143Y-97335714D01*
X151757143Y-97264286D01*
X151828572Y-97121429D01*
X151900000Y-97050000D01*
X152042858Y-96978571D01*
X152328572Y-96978571D01*
X152471429Y-97050000D01*
X152542858Y-97121429D01*
X152614286Y-97264286D01*
X152614286Y-97335714D01*
X152542858Y-97478571D01*
X152471429Y-97550000D01*
X152328572Y-97621429D01*
X152042858Y-97621429D01*
X151900000Y-97692857D01*
X151828572Y-97764286D01*
X151757143Y-97907143D01*
X151757143Y-98192857D01*
X151828572Y-98335714D01*
X151900000Y-98407143D01*
X152042858Y-98478571D01*
X152328572Y-98478571D01*
X152471429Y-98407143D01*
X152542858Y-98335714D01*
X152614286Y-98192857D01*
X152614286Y-97907143D01*
X152542858Y-97764286D01*
X152471429Y-97692857D01*
X152328572Y-97621429D01*
X153257143Y-97907143D02*
X154400000Y-97907143D01*
X155400000Y-96978571D02*
X155542857Y-96978571D01*
X155685714Y-97050000D01*
X155757143Y-97121429D01*
X155828572Y-97264286D01*
X155900000Y-97550000D01*
X155900000Y-97907143D01*
X155828572Y-98192857D01*
X155757143Y-98335714D01*
X155685714Y-98407143D01*
X155542857Y-98478571D01*
X155400000Y-98478571D01*
X155257143Y-98407143D01*
X155185714Y-98335714D01*
X155114286Y-98192857D01*
X155042857Y-97907143D01*
X155042857Y-97550000D01*
X155114286Y-97264286D01*
X155185714Y-97121429D01*
X155257143Y-97050000D01*
X155400000Y-96978571D01*
X156614285Y-98478571D02*
X156900000Y-98478571D01*
X157042857Y-98407143D01*
X157114285Y-98335714D01*
X157257143Y-98121429D01*
X157328571Y-97835714D01*
X157328571Y-97264286D01*
X157257143Y-97121429D01*
X157185714Y-97050000D01*
X157042857Y-96978571D01*
X156757143Y-96978571D01*
X156614285Y-97050000D01*
X156542857Y-97121429D01*
X156471428Y-97264286D01*
X156471428Y-97621429D01*
X156542857Y-97764286D01*
X156614285Y-97835714D01*
X156757143Y-97907143D01*
X157042857Y-97907143D01*
X157185714Y-97835714D01*
X157257143Y-97764286D01*
X157328571Y-97621429D01*
X142007145Y-90705714D02*
X141935716Y-90777143D01*
X141721430Y-90848571D01*
X141578573Y-90848571D01*
X141364288Y-90777143D01*
X141221430Y-90634286D01*
X141150002Y-90491429D01*
X141078573Y-90205714D01*
X141078573Y-89991429D01*
X141150002Y-89705714D01*
X141221430Y-89562857D01*
X141364288Y-89420000D01*
X141578573Y-89348571D01*
X141721430Y-89348571D01*
X141935716Y-89420000D01*
X142007145Y-89491429D01*
X142578573Y-90777143D02*
X142792859Y-90848571D01*
X143150002Y-90848571D01*
X143292859Y-90777143D01*
X143364288Y-90705714D01*
X143435716Y-90562857D01*
X143435716Y-90420000D01*
X143364288Y-90277143D01*
X143292859Y-90205714D01*
X143150002Y-90134286D01*
X142864288Y-90062857D01*
X142721430Y-89991429D01*
X142650002Y-89920000D01*
X142578573Y-89777143D01*
X142578573Y-89634286D01*
X142650002Y-89491429D01*
X142721430Y-89420000D01*
X142864288Y-89348571D01*
X143221430Y-89348571D01*
X143435716Y-89420000D01*
X144150001Y-90848571D02*
X144435716Y-90848571D01*
X144578573Y-90777143D01*
X144650001Y-90705714D01*
X144792859Y-90491429D01*
X144864287Y-90205714D01*
X144864287Y-89634286D01*
X144792859Y-89491429D01*
X144721430Y-89420000D01*
X144578573Y-89348571D01*
X144292859Y-89348571D01*
X144150001Y-89420000D01*
X144078573Y-89491429D01*
X144007144Y-89634286D01*
X144007144Y-89991429D01*
X144078573Y-90134286D01*
X144150001Y-90205714D01*
X144292859Y-90277143D01*
X144578573Y-90277143D01*
X144721430Y-90205714D01*
X144792859Y-90134286D01*
X144864287Y-89991429D01*
X145435715Y-89491429D02*
X145507144Y-89420000D01*
X145650001Y-89348571D01*
X146007144Y-89348571D01*
X146150001Y-89420000D01*
X146221430Y-89491429D01*
X146292858Y-89634286D01*
X146292858Y-89777143D01*
X146221430Y-89991429D01*
X145364287Y-90848571D01*
X146292858Y-90848571D01*
X146792858Y-89348571D02*
X147721429Y-89348571D01*
X147221429Y-89920000D01*
X147435715Y-89920000D01*
X147578572Y-89991429D01*
X147650001Y-90062857D01*
X147721429Y-90205714D01*
X147721429Y-90562857D01*
X147650001Y-90705714D01*
X147578572Y-90777143D01*
X147435715Y-90848571D01*
X147007143Y-90848571D01*
X146864286Y-90777143D01*
X146792858Y-90705714D01*
X149007143Y-89348571D02*
X148721429Y-89348571D01*
X148578572Y-89420000D01*
X148507143Y-89491429D01*
X148364286Y-89705714D01*
X148292857Y-89991429D01*
X148292857Y-90562857D01*
X148364286Y-90705714D01*
X148435714Y-90777143D01*
X148578572Y-90848571D01*
X148864286Y-90848571D01*
X149007143Y-90777143D01*
X149078572Y-90705714D01*
X149150000Y-90562857D01*
X149150000Y-90205714D01*
X149078572Y-90062857D01*
X149007143Y-89991429D01*
X148864286Y-89920000D01*
X148578572Y-89920000D01*
X148435714Y-89991429D01*
X148364286Y-90062857D01*
X148292857Y-90205714D01*
X150792857Y-89348571D02*
X151150000Y-90848571D01*
X151435714Y-89777143D01*
X151721428Y-90848571D01*
X152078571Y-89348571D01*
X153292857Y-90848571D02*
X153292857Y-90062857D01*
X153221428Y-89920000D01*
X153078571Y-89848571D01*
X152792857Y-89848571D01*
X152650000Y-89920000D01*
X153292857Y-90777143D02*
X153150000Y-90848571D01*
X152792857Y-90848571D01*
X152650000Y-90777143D01*
X152578571Y-90634286D01*
X152578571Y-90491429D01*
X152650000Y-90348571D01*
X152792857Y-90277143D01*
X153150000Y-90277143D01*
X153292857Y-90205714D01*
X153864286Y-89848571D02*
X154221429Y-90848571D01*
X154578571Y-89848571D01*
X155721428Y-90777143D02*
X155578571Y-90848571D01*
X155292857Y-90848571D01*
X155150000Y-90777143D01*
X155078571Y-90634286D01*
X155078571Y-90062857D01*
X155150000Y-89920000D01*
X155292857Y-89848571D01*
X155578571Y-89848571D01*
X155721428Y-89920000D01*
X155792857Y-90062857D01*
X155792857Y-90205714D01*
X155078571Y-90348571D01*
X156935714Y-90062857D02*
X157150000Y-90134286D01*
X157221428Y-90205714D01*
X157292857Y-90348571D01*
X157292857Y-90562857D01*
X157221428Y-90705714D01*
X157150000Y-90777143D01*
X157007142Y-90848571D01*
X156435714Y-90848571D01*
X156435714Y-89348571D01*
X156935714Y-89348571D01*
X157078571Y-89420000D01*
X157150000Y-89491429D01*
X157221428Y-89634286D01*
X157221428Y-89777143D01*
X157150000Y-89920000D01*
X157078571Y-89991429D01*
X156935714Y-90062857D01*
X156435714Y-90062857D01*
X158150000Y-90848571D02*
X158007142Y-90777143D01*
X157935714Y-90634286D01*
X157935714Y-89348571D01*
X159364285Y-90848571D02*
X159364285Y-90062857D01*
X159292856Y-89920000D01*
X159149999Y-89848571D01*
X158864285Y-89848571D01*
X158721428Y-89920000D01*
X159364285Y-90777143D02*
X159221428Y-90848571D01*
X158864285Y-90848571D01*
X158721428Y-90777143D01*
X158649999Y-90634286D01*
X158649999Y-90491429D01*
X158721428Y-90348571D01*
X158864285Y-90277143D01*
X159221428Y-90277143D01*
X159364285Y-90205714D01*
X160007142Y-90777143D02*
X160149999Y-90848571D01*
X160435714Y-90848571D01*
X160578571Y-90777143D01*
X160649999Y-90634286D01*
X160649999Y-90562857D01*
X160578571Y-90420000D01*
X160435714Y-90348571D01*
X160221428Y-90348571D01*
X160078571Y-90277143D01*
X160007142Y-90134286D01*
X160007142Y-90062857D01*
X160078571Y-89920000D01*
X160221428Y-89848571D01*
X160435714Y-89848571D01*
X160578571Y-89920000D01*
X161078571Y-89848571D02*
X161650000Y-89848571D01*
X161292857Y-89348571D02*
X161292857Y-90634286D01*
X161364285Y-90777143D01*
X161507143Y-90848571D01*
X161650000Y-90848571D01*
X162721428Y-90777143D02*
X162578571Y-90848571D01*
X162292857Y-90848571D01*
X162150000Y-90777143D01*
X162078571Y-90634286D01*
X162078571Y-90062857D01*
X162150000Y-89920000D01*
X162292857Y-89848571D01*
X162578571Y-89848571D01*
X162721428Y-89920000D01*
X162792857Y-90062857D01*
X162792857Y-90205714D01*
X162078571Y-90348571D01*
X163435714Y-90848571D02*
X163435714Y-89848571D01*
X163435714Y-90134286D02*
X163507142Y-89991429D01*
X163578571Y-89920000D01*
X163721428Y-89848571D01*
X163864285Y-89848571D01*
D12*
X93980000Y-59182000D02*
G75*
G03X93980000Y-59182000I-254000J0D01*
G01*
X104460040Y-58181240D02*
X92461080Y-58181240D01*
X92461080Y-77980540D02*
X92461080Y-58181240D01*
X104660700Y-78978760D02*
X93560900Y-78978760D01*
X105658920Y-59479180D02*
X105658920Y-77980540D01*
X104660700Y-78978760D02*
G75*
G03X105658920Y-77980540I0J998220D01*
G01*
X105658920Y-59375040D02*
G75*
G03X104460040Y-58176160I-1198880J0D01*
G01*
X92461080Y-77980540D02*
G75*
G03X93459300Y-78978760I998220J0D01*
G01*
X147340000Y-67560000D02*
X147340000Y-64560000D01*
X149840000Y-64560000D02*
X149840000Y-67560000D01*
X170160000Y-67060000D02*
X170160000Y-70060000D01*
X167660000Y-70060000D02*
X167660000Y-67060000D01*
X116590000Y-92730000D02*
X119590000Y-92730000D01*
X119590000Y-95230000D02*
X116590000Y-95230000D01*
X118165000Y-86401000D02*
X118165000Y-91399000D01*
X118305000Y-86409000D02*
X118305000Y-91391000D01*
X118445000Y-86425000D02*
X118445000Y-88805000D01*
X118445000Y-88995000D02*
X118445000Y-91375000D01*
X118585000Y-86449000D02*
X118585000Y-88410000D01*
X118585000Y-89390000D02*
X118585000Y-91351000D01*
X118725000Y-86482000D02*
X118725000Y-88243000D01*
X118725000Y-89557000D02*
X118725000Y-91318000D01*
X118865000Y-86523000D02*
X118865000Y-88136000D01*
X118865000Y-89664000D02*
X118865000Y-91277000D01*
X119005000Y-86573000D02*
X119005000Y-88065000D01*
X119005000Y-89735000D02*
X119005000Y-91227000D01*
X119145000Y-86634000D02*
X119145000Y-88021000D01*
X119145000Y-89779000D02*
X119145000Y-91166000D01*
X119285000Y-86704000D02*
X119285000Y-88002000D01*
X119285000Y-89798000D02*
X119285000Y-91096000D01*
X119425000Y-86786000D02*
X119425000Y-88004000D01*
X119425000Y-89796000D02*
X119425000Y-91014000D01*
X119565000Y-86881000D02*
X119565000Y-88029000D01*
X119565000Y-89771000D02*
X119565000Y-90919000D01*
X119705000Y-86992000D02*
X119705000Y-88077000D01*
X119705000Y-89723000D02*
X119705000Y-90808000D01*
X119845000Y-87120000D02*
X119845000Y-88155000D01*
X119845000Y-89645000D02*
X119845000Y-90680000D01*
X119985000Y-87269000D02*
X119985000Y-88272000D01*
X119985000Y-89528000D02*
X119985000Y-90531000D01*
X120125000Y-87448000D02*
X120125000Y-88460000D01*
X120125000Y-89340000D02*
X120125000Y-90352000D01*
X120265000Y-87667000D02*
X120265000Y-90133000D01*
X120405000Y-87956000D02*
X120405000Y-89844000D01*
X120545000Y-88428000D02*
X120545000Y-89372000D01*
X120240000Y-88900000D02*
G75*
G03X120240000Y-88900000I-900000J0D01*
G01*
X120627500Y-88900000D02*
G75*
G03X120627500Y-88900000I-2537500J0D01*
G01*
X93960000Y-98810000D02*
X93960000Y-101810000D01*
X91460000Y-101810000D02*
X91460000Y-98810000D01*
X97770000Y-98810000D02*
X97770000Y-101810000D01*
X95270000Y-101810000D02*
X95270000Y-98810000D01*
X172970000Y-78720000D02*
X169970000Y-78720000D01*
X169970000Y-76220000D02*
X172970000Y-76220000D01*
X119421000Y-58365000D02*
X124419000Y-58365000D01*
X119429000Y-58225000D02*
X124411000Y-58225000D01*
X119445000Y-58085000D02*
X121825000Y-58085000D01*
X122015000Y-58085000D02*
X124395000Y-58085000D01*
X119469000Y-57945000D02*
X121430000Y-57945000D01*
X122410000Y-57945000D02*
X124371000Y-57945000D01*
X119502000Y-57805000D02*
X121263000Y-57805000D01*
X122577000Y-57805000D02*
X124338000Y-57805000D01*
X119543000Y-57665000D02*
X121156000Y-57665000D01*
X122684000Y-57665000D02*
X124297000Y-57665000D01*
X119593000Y-57525000D02*
X121085000Y-57525000D01*
X122755000Y-57525000D02*
X124247000Y-57525000D01*
X119654000Y-57385000D02*
X121041000Y-57385000D01*
X122799000Y-57385000D02*
X124186000Y-57385000D01*
X119724000Y-57245000D02*
X121022000Y-57245000D01*
X122818000Y-57245000D02*
X124116000Y-57245000D01*
X119806000Y-57105000D02*
X121024000Y-57105000D01*
X122816000Y-57105000D02*
X124034000Y-57105000D01*
X119901000Y-56965000D02*
X121049000Y-56965000D01*
X122791000Y-56965000D02*
X123939000Y-56965000D01*
X120012000Y-56825000D02*
X121097000Y-56825000D01*
X122743000Y-56825000D02*
X123828000Y-56825000D01*
X120140000Y-56685000D02*
X121175000Y-56685000D01*
X122665000Y-56685000D02*
X123700000Y-56685000D01*
X120289000Y-56545000D02*
X121292000Y-56545000D01*
X122548000Y-56545000D02*
X123551000Y-56545000D01*
X120468000Y-56405000D02*
X121480000Y-56405000D01*
X122360000Y-56405000D02*
X123372000Y-56405000D01*
X120687000Y-56265000D02*
X123153000Y-56265000D01*
X120976000Y-56125000D02*
X122864000Y-56125000D01*
X121448000Y-55985000D02*
X122392000Y-55985000D01*
X122820000Y-57190000D02*
G75*
G03X122820000Y-57190000I-900000J0D01*
G01*
X124457500Y-58440000D02*
G75*
G03X124457500Y-58440000I-2537500J0D01*
G01*
X139755000Y-63541000D02*
X139755000Y-68539000D01*
X139895000Y-63549000D02*
X139895000Y-68531000D01*
X140035000Y-63565000D02*
X140035000Y-65945000D01*
X140035000Y-66135000D02*
X140035000Y-68515000D01*
X140175000Y-63589000D02*
X140175000Y-65550000D01*
X140175000Y-66530000D02*
X140175000Y-68491000D01*
X140315000Y-63622000D02*
X140315000Y-65383000D01*
X140315000Y-66697000D02*
X140315000Y-68458000D01*
X140455000Y-63663000D02*
X140455000Y-65276000D01*
X140455000Y-66804000D02*
X140455000Y-68417000D01*
X140595000Y-63713000D02*
X140595000Y-65205000D01*
X140595000Y-66875000D02*
X140595000Y-68367000D01*
X140735000Y-63774000D02*
X140735000Y-65161000D01*
X140735000Y-66919000D02*
X140735000Y-68306000D01*
X140875000Y-63844000D02*
X140875000Y-65142000D01*
X140875000Y-66938000D02*
X140875000Y-68236000D01*
X141015000Y-63926000D02*
X141015000Y-65144000D01*
X141015000Y-66936000D02*
X141015000Y-68154000D01*
X141155000Y-64021000D02*
X141155000Y-65169000D01*
X141155000Y-66911000D02*
X141155000Y-68059000D01*
X141295000Y-64132000D02*
X141295000Y-65217000D01*
X141295000Y-66863000D02*
X141295000Y-67948000D01*
X141435000Y-64260000D02*
X141435000Y-65295000D01*
X141435000Y-66785000D02*
X141435000Y-67820000D01*
X141575000Y-64409000D02*
X141575000Y-65412000D01*
X141575000Y-66668000D02*
X141575000Y-67671000D01*
X141715000Y-64588000D02*
X141715000Y-65600000D01*
X141715000Y-66480000D02*
X141715000Y-67492000D01*
X141855000Y-64807000D02*
X141855000Y-67273000D01*
X141995000Y-65096000D02*
X141995000Y-66984000D01*
X142135000Y-65568000D02*
X142135000Y-66512000D01*
X141830000Y-66040000D02*
G75*
G03X141830000Y-66040000I-900000J0D01*
G01*
X142217500Y-66040000D02*
G75*
G03X142217500Y-66040000I-2537500J0D01*
G01*
X109165000Y-97749000D02*
X109165000Y-92751000D01*
X109025000Y-97741000D02*
X109025000Y-92759000D01*
X108885000Y-97725000D02*
X108885000Y-95345000D01*
X108885000Y-95155000D02*
X108885000Y-92775000D01*
X108745000Y-97701000D02*
X108745000Y-95740000D01*
X108745000Y-94760000D02*
X108745000Y-92799000D01*
X108605000Y-97668000D02*
X108605000Y-95907000D01*
X108605000Y-94593000D02*
X108605000Y-92832000D01*
X108465000Y-97627000D02*
X108465000Y-96014000D01*
X108465000Y-94486000D02*
X108465000Y-92873000D01*
X108325000Y-97577000D02*
X108325000Y-96085000D01*
X108325000Y-94415000D02*
X108325000Y-92923000D01*
X108185000Y-97516000D02*
X108185000Y-96129000D01*
X108185000Y-94371000D02*
X108185000Y-92984000D01*
X108045000Y-97446000D02*
X108045000Y-96148000D01*
X108045000Y-94352000D02*
X108045000Y-93054000D01*
X107905000Y-97364000D02*
X107905000Y-96146000D01*
X107905000Y-94354000D02*
X107905000Y-93136000D01*
X107765000Y-97269000D02*
X107765000Y-96121000D01*
X107765000Y-94379000D02*
X107765000Y-93231000D01*
X107625000Y-97158000D02*
X107625000Y-96073000D01*
X107625000Y-94427000D02*
X107625000Y-93342000D01*
X107485000Y-97030000D02*
X107485000Y-95995000D01*
X107485000Y-94505000D02*
X107485000Y-93470000D01*
X107345000Y-96881000D02*
X107345000Y-95878000D01*
X107345000Y-94622000D02*
X107345000Y-93619000D01*
X107205000Y-96702000D02*
X107205000Y-95690000D01*
X107205000Y-94810000D02*
X107205000Y-93798000D01*
X107065000Y-96483000D02*
X107065000Y-94017000D01*
X106925000Y-96194000D02*
X106925000Y-94306000D01*
X106785000Y-95722000D02*
X106785000Y-94778000D01*
X108890000Y-95250000D02*
G75*
G03X108890000Y-95250000I-900000J0D01*
G01*
X111777500Y-95250000D02*
G75*
G03X111777500Y-95250000I-2537500J0D01*
G01*
X109165000Y-91399000D02*
X109165000Y-86401000D01*
X109025000Y-91391000D02*
X109025000Y-86409000D01*
X108885000Y-91375000D02*
X108885000Y-88995000D01*
X108885000Y-88805000D02*
X108885000Y-86425000D01*
X108745000Y-91351000D02*
X108745000Y-89390000D01*
X108745000Y-88410000D02*
X108745000Y-86449000D01*
X108605000Y-91318000D02*
X108605000Y-89557000D01*
X108605000Y-88243000D02*
X108605000Y-86482000D01*
X108465000Y-91277000D02*
X108465000Y-89664000D01*
X108465000Y-88136000D02*
X108465000Y-86523000D01*
X108325000Y-91227000D02*
X108325000Y-89735000D01*
X108325000Y-88065000D02*
X108325000Y-86573000D01*
X108185000Y-91166000D02*
X108185000Y-89779000D01*
X108185000Y-88021000D02*
X108185000Y-86634000D01*
X108045000Y-91096000D02*
X108045000Y-89798000D01*
X108045000Y-88002000D02*
X108045000Y-86704000D01*
X107905000Y-91014000D02*
X107905000Y-89796000D01*
X107905000Y-88004000D02*
X107905000Y-86786000D01*
X107765000Y-90919000D02*
X107765000Y-89771000D01*
X107765000Y-88029000D02*
X107765000Y-86881000D01*
X107625000Y-90808000D02*
X107625000Y-89723000D01*
X107625000Y-88077000D02*
X107625000Y-86992000D01*
X107485000Y-90680000D02*
X107485000Y-89645000D01*
X107485000Y-88155000D02*
X107485000Y-87120000D01*
X107345000Y-90531000D02*
X107345000Y-89528000D01*
X107345000Y-88272000D02*
X107345000Y-87269000D01*
X107205000Y-90352000D02*
X107205000Y-89340000D01*
X107205000Y-88460000D02*
X107205000Y-87448000D01*
X107065000Y-90133000D02*
X107065000Y-87667000D01*
X106925000Y-89844000D02*
X106925000Y-87956000D01*
X106785000Y-89372000D02*
X106785000Y-88428000D01*
X108890000Y-88900000D02*
G75*
G03X108890000Y-88900000I-900000J0D01*
G01*
X111777500Y-88900000D02*
G75*
G03X111777500Y-88900000I-2537500J0D01*
G01*
X87630000Y-62230000D02*
X87630000Y-95250000D01*
X82550000Y-64770000D02*
X82550000Y-95250000D01*
X87630000Y-95250000D02*
X82550000Y-95250000D01*
X87630000Y-62230000D02*
X85090000Y-62230000D01*
X83820000Y-61950000D02*
X82270000Y-61950000D01*
X85090000Y-62230000D02*
X85090000Y-64770000D01*
X85090000Y-64770000D02*
X82550000Y-64770000D01*
X82270000Y-61950000D02*
X82270000Y-63500000D01*
X152400000Y-57150000D02*
X149860000Y-59690000D01*
X149860000Y-59690000D02*
X149860000Y-74930000D01*
X149860000Y-74930000D02*
X167640000Y-74930000D01*
X167640000Y-74930000D02*
X167640000Y-57150000D01*
X167640000Y-57150000D02*
X152400000Y-57150000D01*
X115824000Y-101600000D02*
X115824000Y-96520000D01*
X115824000Y-96520000D02*
X120396000Y-96520000D01*
X120396000Y-96520000D02*
X120396000Y-101600000D01*
X120396000Y-101600000D02*
X115824000Y-101600000D01*
X117348000Y-101600000D02*
X117348000Y-101092000D01*
X117348000Y-101092000D02*
X118618000Y-101092000D01*
X118618000Y-101092000D02*
X118618000Y-101600000D01*
X139954000Y-61468000D02*
X139954000Y-60325000D01*
X136906000Y-61468000D02*
X136906000Y-60325000D01*
X133096000Y-60325000D02*
X133096000Y-56642000D01*
X133096000Y-56642000D02*
X143764000Y-56642000D01*
X143764000Y-56642000D02*
X143764000Y-60325000D01*
X133096000Y-61468000D02*
X133096000Y-60325000D01*
X133096000Y-60325000D02*
X143764000Y-60325000D01*
X143764000Y-60325000D02*
X143764000Y-61468000D01*
X138430000Y-61468000D02*
X143764000Y-61468000D01*
X138430000Y-61468000D02*
X133096000Y-61468000D01*
X108085000Y-58665000D02*
X108085000Y-59935000D01*
X115435000Y-58665000D02*
X115435000Y-59935000D01*
X115435000Y-78495000D02*
X115435000Y-77225000D01*
X108085000Y-78495000D02*
X108085000Y-77225000D01*
X108085000Y-58665000D02*
X115435000Y-58665000D01*
X108085000Y-78495000D02*
X115435000Y-78495000D01*
X108085000Y-59935000D02*
X107150000Y-59935000D01*
X113280000Y-58400000D02*
X110280000Y-58400000D01*
X110280000Y-55900000D02*
X113280000Y-55900000D01*
X173990000Y-59690000D02*
X173990000Y-64770000D01*
X173990000Y-64770000D02*
X171450000Y-64770000D01*
X171450000Y-64770000D02*
X171450000Y-59690000D01*
X171450000Y-59690000D02*
X173990000Y-59690000D01*
X172720000Y-59690000D02*
X172720000Y-58420000D01*
X172720000Y-64770000D02*
X172720000Y-66040000D01*
X105410000Y-88900000D02*
X105410000Y-93980000D01*
X105410000Y-93980000D02*
X102870000Y-93980000D01*
X102870000Y-93980000D02*
X102870000Y-88900000D01*
X102870000Y-88900000D02*
X105410000Y-88900000D01*
X104140000Y-88900000D02*
X104140000Y-87630000D01*
X104140000Y-93980000D02*
X104140000Y-95250000D01*
X127000000Y-92710000D02*
X127000000Y-97790000D01*
X127000000Y-97790000D02*
X124460000Y-97790000D01*
X124460000Y-97790000D02*
X124460000Y-92710000D01*
X124460000Y-92710000D02*
X127000000Y-92710000D01*
X125730000Y-92710000D02*
X125730000Y-91440000D01*
X125730000Y-97790000D02*
X125730000Y-99060000D01*
X91440000Y-93980000D02*
X91440000Y-88900000D01*
X91440000Y-88900000D02*
X93980000Y-88900000D01*
X93980000Y-88900000D02*
X93980000Y-93980000D01*
X93980000Y-93980000D02*
X91440000Y-93980000D01*
X92710000Y-93980000D02*
X92710000Y-95250000D01*
X92710000Y-88900000D02*
X92710000Y-87630000D01*
X95250000Y-93980000D02*
X95250000Y-88900000D01*
X95250000Y-88900000D02*
X97790000Y-88900000D01*
X97790000Y-88900000D02*
X97790000Y-93980000D01*
X97790000Y-93980000D02*
X95250000Y-93980000D01*
X96520000Y-93980000D02*
X96520000Y-95250000D01*
X96520000Y-88900000D02*
X96520000Y-87630000D01*
X133350000Y-81280000D02*
X138430000Y-81280000D01*
X138430000Y-81280000D02*
X138430000Y-83820000D01*
X138430000Y-83820000D02*
X133350000Y-83820000D01*
X133350000Y-83820000D02*
X133350000Y-81280000D01*
X133350000Y-82550000D02*
X132080000Y-82550000D01*
X138430000Y-82550000D02*
X139700000Y-82550000D01*
X114300000Y-83820000D02*
X109220000Y-83820000D01*
X109220000Y-83820000D02*
X109220000Y-81280000D01*
X109220000Y-81280000D02*
X114300000Y-81280000D01*
X114300000Y-81280000D02*
X114300000Y-83820000D01*
X114300000Y-82550000D02*
X115570000Y-82550000D01*
X109220000Y-82550000D02*
X107950000Y-82550000D01*
X101600000Y-88900000D02*
X101600000Y-93980000D01*
X101600000Y-93980000D02*
X99060000Y-93980000D01*
X99060000Y-93980000D02*
X99060000Y-88900000D01*
X99060000Y-88900000D02*
X101600000Y-88900000D01*
X100330000Y-88900000D02*
X100330000Y-87630000D01*
X100330000Y-93980000D02*
X100330000Y-95250000D01*
X107148381Y-69135524D02*
X108148381Y-68468857D01*
X107148381Y-68468857D02*
X108148381Y-69135524D01*
X108148381Y-67564095D02*
X108148381Y-68135524D01*
X108148381Y-67849810D02*
X107148381Y-67849810D01*
X107291238Y-67945048D01*
X107386476Y-68040286D01*
X107434095Y-68135524D01*
X148947143Y-70016666D02*
X148994762Y-70064285D01*
X149042381Y-70207142D01*
X149042381Y-70302380D01*
X148994762Y-70445238D01*
X148899524Y-70540476D01*
X148804286Y-70588095D01*
X148613810Y-70635714D01*
X148470952Y-70635714D01*
X148280476Y-70588095D01*
X148185238Y-70540476D01*
X148090000Y-70445238D01*
X148042381Y-70302380D01*
X148042381Y-70207142D01*
X148090000Y-70064285D01*
X148137619Y-70016666D01*
X149042381Y-69064285D02*
X149042381Y-69635714D01*
X149042381Y-69350000D02*
X148042381Y-69350000D01*
X148185238Y-69445238D01*
X148280476Y-69540476D01*
X148328095Y-69635714D01*
X169267143Y-72556666D02*
X169314762Y-72604285D01*
X169362381Y-72747142D01*
X169362381Y-72842380D01*
X169314762Y-72985238D01*
X169219524Y-73080476D01*
X169124286Y-73128095D01*
X168933810Y-73175714D01*
X168790952Y-73175714D01*
X168600476Y-73128095D01*
X168505238Y-73080476D01*
X168410000Y-72985238D01*
X168362381Y-72842380D01*
X168362381Y-72747142D01*
X168410000Y-72604285D01*
X168457619Y-72556666D01*
X168457619Y-72175714D02*
X168410000Y-72128095D01*
X168362381Y-72032857D01*
X168362381Y-71794761D01*
X168410000Y-71699523D01*
X168457619Y-71651904D01*
X168552857Y-71604285D01*
X168648095Y-71604285D01*
X168790952Y-71651904D01*
X169362381Y-72223333D01*
X169362381Y-71604285D01*
X121753334Y-94337143D02*
X121705715Y-94384762D01*
X121562858Y-94432381D01*
X121467620Y-94432381D01*
X121324762Y-94384762D01*
X121229524Y-94289524D01*
X121181905Y-94194286D01*
X121134286Y-94003810D01*
X121134286Y-93860952D01*
X121181905Y-93670476D01*
X121229524Y-93575238D01*
X121324762Y-93480000D01*
X121467620Y-93432381D01*
X121562858Y-93432381D01*
X121705715Y-93480000D01*
X121753334Y-93527619D01*
X122086667Y-93432381D02*
X122705715Y-93432381D01*
X122372381Y-93813333D01*
X122515239Y-93813333D01*
X122610477Y-93860952D01*
X122658096Y-93908571D01*
X122705715Y-94003810D01*
X122705715Y-94241905D01*
X122658096Y-94337143D01*
X122610477Y-94384762D01*
X122515239Y-94432381D01*
X122229524Y-94432381D01*
X122134286Y-94384762D01*
X122086667Y-94337143D01*
X117923334Y-85457143D02*
X117875715Y-85504762D01*
X117732858Y-85552381D01*
X117637620Y-85552381D01*
X117494762Y-85504762D01*
X117399524Y-85409524D01*
X117351905Y-85314286D01*
X117304286Y-85123810D01*
X117304286Y-84980952D01*
X117351905Y-84790476D01*
X117399524Y-84695238D01*
X117494762Y-84600000D01*
X117637620Y-84552381D01*
X117732858Y-84552381D01*
X117875715Y-84600000D01*
X117923334Y-84647619D01*
X118780477Y-84885714D02*
X118780477Y-85552381D01*
X118542381Y-84504762D02*
X118304286Y-85219048D01*
X118923334Y-85219048D01*
X90003334Y-101957143D02*
X89955715Y-102004762D01*
X89812858Y-102052381D01*
X89717620Y-102052381D01*
X89574762Y-102004762D01*
X89479524Y-101909524D01*
X89431905Y-101814286D01*
X89384286Y-101623810D01*
X89384286Y-101480952D01*
X89431905Y-101290476D01*
X89479524Y-101195238D01*
X89574762Y-101100000D01*
X89717620Y-101052381D01*
X89812858Y-101052381D01*
X89955715Y-101100000D01*
X90003334Y-101147619D01*
X90908096Y-101052381D02*
X90431905Y-101052381D01*
X90384286Y-101528571D01*
X90431905Y-101480952D01*
X90527143Y-101433333D01*
X90765239Y-101433333D01*
X90860477Y-101480952D01*
X90908096Y-101528571D01*
X90955715Y-101623810D01*
X90955715Y-101861905D01*
X90908096Y-101957143D01*
X90860477Y-102004762D01*
X90765239Y-102052381D01*
X90527143Y-102052381D01*
X90431905Y-102004762D01*
X90384286Y-101957143D01*
X98893334Y-101957143D02*
X98845715Y-102004762D01*
X98702858Y-102052381D01*
X98607620Y-102052381D01*
X98464762Y-102004762D01*
X98369524Y-101909524D01*
X98321905Y-101814286D01*
X98274286Y-101623810D01*
X98274286Y-101480952D01*
X98321905Y-101290476D01*
X98369524Y-101195238D01*
X98464762Y-101100000D01*
X98607620Y-101052381D01*
X98702858Y-101052381D01*
X98845715Y-101100000D01*
X98893334Y-101147619D01*
X99750477Y-101052381D02*
X99560000Y-101052381D01*
X99464762Y-101100000D01*
X99417143Y-101147619D01*
X99321905Y-101290476D01*
X99274286Y-101480952D01*
X99274286Y-101861905D01*
X99321905Y-101957143D01*
X99369524Y-102004762D01*
X99464762Y-102052381D01*
X99655239Y-102052381D01*
X99750477Y-102004762D01*
X99798096Y-101957143D01*
X99845715Y-101861905D01*
X99845715Y-101623810D01*
X99798096Y-101528571D01*
X99750477Y-101480952D01*
X99655239Y-101433333D01*
X99464762Y-101433333D01*
X99369524Y-101480952D01*
X99321905Y-101528571D01*
X99274286Y-101623810D01*
X171283334Y-75287143D02*
X171235715Y-75334762D01*
X171092858Y-75382381D01*
X170997620Y-75382381D01*
X170854762Y-75334762D01*
X170759524Y-75239524D01*
X170711905Y-75144286D01*
X170664286Y-74953810D01*
X170664286Y-74810952D01*
X170711905Y-74620476D01*
X170759524Y-74525238D01*
X170854762Y-74430000D01*
X170997620Y-74382381D01*
X171092858Y-74382381D01*
X171235715Y-74430000D01*
X171283334Y-74477619D01*
X171616667Y-74382381D02*
X172283334Y-74382381D01*
X171854762Y-75382381D01*
X118477143Y-58606666D02*
X118524762Y-58654285D01*
X118572381Y-58797142D01*
X118572381Y-58892380D01*
X118524762Y-59035238D01*
X118429524Y-59130476D01*
X118334286Y-59178095D01*
X118143810Y-59225714D01*
X118000952Y-59225714D01*
X117810476Y-59178095D01*
X117715238Y-59130476D01*
X117620000Y-59035238D01*
X117572381Y-58892380D01*
X117572381Y-58797142D01*
X117620000Y-58654285D01*
X117667619Y-58606666D01*
X118000952Y-58035238D02*
X117953333Y-58130476D01*
X117905714Y-58178095D01*
X117810476Y-58225714D01*
X117762857Y-58225714D01*
X117667619Y-58178095D01*
X117620000Y-58130476D01*
X117572381Y-58035238D01*
X117572381Y-57844761D01*
X117620000Y-57749523D01*
X117667619Y-57701904D01*
X117762857Y-57654285D01*
X117810476Y-57654285D01*
X117905714Y-57701904D01*
X117953333Y-57749523D01*
X118000952Y-57844761D01*
X118000952Y-58035238D01*
X118048571Y-58130476D01*
X118096190Y-58178095D01*
X118191429Y-58225714D01*
X118381905Y-58225714D01*
X118477143Y-58178095D01*
X118524762Y-58130476D01*
X118572381Y-58035238D01*
X118572381Y-57844761D01*
X118524762Y-57749523D01*
X118477143Y-57701904D01*
X118381905Y-57654285D01*
X118191429Y-57654285D01*
X118096190Y-57701904D01*
X118048571Y-57749523D01*
X118000952Y-57844761D01*
X135723334Y-67667143D02*
X135675715Y-67714762D01*
X135532858Y-67762381D01*
X135437620Y-67762381D01*
X135294762Y-67714762D01*
X135199524Y-67619524D01*
X135151905Y-67524286D01*
X135104286Y-67333810D01*
X135104286Y-67190952D01*
X135151905Y-67000476D01*
X135199524Y-66905238D01*
X135294762Y-66810000D01*
X135437620Y-66762381D01*
X135532858Y-66762381D01*
X135675715Y-66810000D01*
X135723334Y-66857619D01*
X136199524Y-67762381D02*
X136390000Y-67762381D01*
X136485239Y-67714762D01*
X136532858Y-67667143D01*
X136628096Y-67524286D01*
X136675715Y-67333810D01*
X136675715Y-66952857D01*
X136628096Y-66857619D01*
X136580477Y-66810000D01*
X136485239Y-66762381D01*
X136294762Y-66762381D01*
X136199524Y-66810000D01*
X136151905Y-66857619D01*
X136104286Y-66952857D01*
X136104286Y-67190952D01*
X136151905Y-67286190D01*
X136199524Y-67333810D01*
X136294762Y-67381429D01*
X136485239Y-67381429D01*
X136580477Y-67333810D01*
X136628096Y-67286190D01*
X136675715Y-67190952D01*
X108577143Y-99417143D02*
X108529524Y-99464762D01*
X108386667Y-99512381D01*
X108291429Y-99512381D01*
X108148571Y-99464762D01*
X108053333Y-99369524D01*
X108005714Y-99274286D01*
X107958095Y-99083810D01*
X107958095Y-98940952D01*
X108005714Y-98750476D01*
X108053333Y-98655238D01*
X108148571Y-98560000D01*
X108291429Y-98512381D01*
X108386667Y-98512381D01*
X108529524Y-98560000D01*
X108577143Y-98607619D01*
X109529524Y-99512381D02*
X108958095Y-99512381D01*
X109243809Y-99512381D02*
X109243809Y-98512381D01*
X109148571Y-98655238D01*
X109053333Y-98750476D01*
X108958095Y-98798095D01*
X110148571Y-98512381D02*
X110243810Y-98512381D01*
X110339048Y-98560000D01*
X110386667Y-98607619D01*
X110434286Y-98702857D01*
X110481905Y-98893333D01*
X110481905Y-99131429D01*
X110434286Y-99321905D01*
X110386667Y-99417143D01*
X110339048Y-99464762D01*
X110243810Y-99512381D01*
X110148571Y-99512381D01*
X110053333Y-99464762D01*
X110005714Y-99417143D01*
X109958095Y-99321905D01*
X109910476Y-99131429D01*
X109910476Y-98893333D01*
X109958095Y-98702857D01*
X110005714Y-98607619D01*
X110053333Y-98560000D01*
X110148571Y-98512381D01*
X108577143Y-85447143D02*
X108529524Y-85494762D01*
X108386667Y-85542381D01*
X108291429Y-85542381D01*
X108148571Y-85494762D01*
X108053333Y-85399524D01*
X108005714Y-85304286D01*
X107958095Y-85113810D01*
X107958095Y-84970952D01*
X108005714Y-84780476D01*
X108053333Y-84685238D01*
X108148571Y-84590000D01*
X108291429Y-84542381D01*
X108386667Y-84542381D01*
X108529524Y-84590000D01*
X108577143Y-84637619D01*
X109529524Y-85542381D02*
X108958095Y-85542381D01*
X109243809Y-85542381D02*
X109243809Y-84542381D01*
X109148571Y-84685238D01*
X109053333Y-84780476D01*
X108958095Y-84828095D01*
X110481905Y-85542381D02*
X109910476Y-85542381D01*
X110196190Y-85542381D02*
X110196190Y-84542381D01*
X110100952Y-84685238D01*
X110005714Y-84780476D01*
X109910476Y-84828095D01*
X82605715Y-61317143D02*
X82558096Y-61364762D01*
X82415239Y-61412381D01*
X82320001Y-61412381D01*
X82177143Y-61364762D01*
X82081905Y-61269524D01*
X82034286Y-61174286D01*
X81986667Y-60983810D01*
X81986667Y-60840952D01*
X82034286Y-60650476D01*
X82081905Y-60555238D01*
X82177143Y-60460000D01*
X82320001Y-60412381D01*
X82415239Y-60412381D01*
X82558096Y-60460000D01*
X82605715Y-60507619D01*
X83224762Y-60412381D02*
X83415239Y-60412381D01*
X83510477Y-60460000D01*
X83605715Y-60555238D01*
X83653334Y-60745714D01*
X83653334Y-61079048D01*
X83605715Y-61269524D01*
X83510477Y-61364762D01*
X83415239Y-61412381D01*
X83224762Y-61412381D01*
X83129524Y-61364762D01*
X83034286Y-61269524D01*
X82986667Y-61079048D01*
X82986667Y-60745714D01*
X83034286Y-60555238D01*
X83129524Y-60460000D01*
X83224762Y-60412381D01*
X84081905Y-61412381D02*
X84081905Y-60412381D01*
X84653334Y-61412381D01*
X84653334Y-60412381D01*
X85653334Y-61412381D02*
X85081905Y-61412381D01*
X85367619Y-61412381D02*
X85367619Y-60412381D01*
X85272381Y-60555238D01*
X85177143Y-60650476D01*
X85081905Y-60698095D01*
X165608095Y-55332381D02*
X165608095Y-56141905D01*
X165655714Y-56237143D01*
X165703333Y-56284762D01*
X165798571Y-56332381D01*
X165989048Y-56332381D01*
X166084286Y-56284762D01*
X166131905Y-56237143D01*
X166179524Y-56141905D01*
X166179524Y-55332381D01*
X167179524Y-56332381D02*
X166608095Y-56332381D01*
X166893809Y-56332381D02*
X166893809Y-55332381D01*
X166798571Y-55475238D01*
X166703333Y-55570476D01*
X166608095Y-55618095D01*
X117348095Y-102322381D02*
X117348095Y-103131905D01*
X117395714Y-103227143D01*
X117443333Y-103274762D01*
X117538571Y-103322381D01*
X117729048Y-103322381D01*
X117824286Y-103274762D01*
X117871905Y-103227143D01*
X117919524Y-103131905D01*
X117919524Y-102322381D01*
X118348095Y-102417619D02*
X118395714Y-102370000D01*
X118490952Y-102322381D01*
X118729048Y-102322381D01*
X118824286Y-102370000D01*
X118871905Y-102417619D01*
X118919524Y-102512857D01*
X118919524Y-102608095D01*
X118871905Y-102750952D01*
X118300476Y-103322381D01*
X118919524Y-103322381D01*
X144018095Y-57872381D02*
X144018095Y-58681905D01*
X144065714Y-58777143D01*
X144113333Y-58824762D01*
X144208571Y-58872381D01*
X144399048Y-58872381D01*
X144494286Y-58824762D01*
X144541905Y-58777143D01*
X144589524Y-58681905D01*
X144589524Y-57872381D01*
X144970476Y-57872381D02*
X145589524Y-57872381D01*
X145256190Y-58253333D01*
X145399048Y-58253333D01*
X145494286Y-58300952D01*
X145541905Y-58348571D01*
X145589524Y-58443810D01*
X145589524Y-58681905D01*
X145541905Y-58777143D01*
X145494286Y-58824762D01*
X145399048Y-58872381D01*
X145113333Y-58872381D01*
X145018095Y-58824762D01*
X144970476Y-58777143D01*
X114808095Y-56602381D02*
X114808095Y-57411905D01*
X114855714Y-57507143D01*
X114903333Y-57554762D01*
X114998571Y-57602381D01*
X115189048Y-57602381D01*
X115284286Y-57554762D01*
X115331905Y-57507143D01*
X115379524Y-57411905D01*
X115379524Y-56602381D01*
X116284286Y-56935714D02*
X116284286Y-57602381D01*
X116046190Y-56554762D02*
X115808095Y-57269048D01*
X116427143Y-57269048D01*
X111212381Y-71365714D02*
X111212381Y-70699047D01*
X112212381Y-71127619D01*
X111545714Y-69889523D02*
X112212381Y-69889523D01*
X111164762Y-70127619D02*
X111879048Y-70365714D01*
X111879048Y-69746666D01*
X112212381Y-69365714D02*
X111212381Y-69365714D01*
X111688571Y-69365714D02*
X111688571Y-68794285D01*
X112212381Y-68794285D02*
X111212381Y-68794285D01*
X112117143Y-67746666D02*
X112164762Y-67794285D01*
X112212381Y-67937142D01*
X112212381Y-68032380D01*
X112164762Y-68175238D01*
X112069524Y-68270476D01*
X111974286Y-68318095D01*
X111783810Y-68365714D01*
X111640952Y-68365714D01*
X111450476Y-68318095D01*
X111355238Y-68270476D01*
X111260000Y-68175238D01*
X111212381Y-68032380D01*
X111212381Y-67937142D01*
X111260000Y-67794285D01*
X111307619Y-67746666D01*
X111212381Y-67127619D02*
X111212381Y-67032380D01*
X111260000Y-66937142D01*
X111307619Y-66889523D01*
X111402857Y-66841904D01*
X111593333Y-66794285D01*
X111831429Y-66794285D01*
X112021905Y-66841904D01*
X112117143Y-66889523D01*
X112164762Y-66937142D01*
X112212381Y-67032380D01*
X112212381Y-67127619D01*
X112164762Y-67222857D01*
X112117143Y-67270476D01*
X112021905Y-67318095D01*
X111831429Y-67365714D01*
X111593333Y-67365714D01*
X111402857Y-67318095D01*
X111307619Y-67270476D01*
X111260000Y-67222857D01*
X111212381Y-67127619D01*
X111545714Y-65937142D02*
X112212381Y-65937142D01*
X111164762Y-66175238D02*
X111879048Y-66413333D01*
X111879048Y-65794285D01*
X107307143Y-57507143D02*
X107259524Y-57554762D01*
X107116667Y-57602381D01*
X107021429Y-57602381D01*
X106878571Y-57554762D01*
X106783333Y-57459524D01*
X106735714Y-57364286D01*
X106688095Y-57173810D01*
X106688095Y-57030952D01*
X106735714Y-56840476D01*
X106783333Y-56745238D01*
X106878571Y-56650000D01*
X107021429Y-56602381D01*
X107116667Y-56602381D01*
X107259524Y-56650000D01*
X107307143Y-56697619D01*
X108259524Y-57602381D02*
X107688095Y-57602381D01*
X107973809Y-57602381D02*
X107973809Y-56602381D01*
X107878571Y-56745238D01*
X107783333Y-56840476D01*
X107688095Y-56888095D01*
X108640476Y-56697619D02*
X108688095Y-56650000D01*
X108783333Y-56602381D01*
X109021429Y-56602381D01*
X109116667Y-56650000D01*
X109164286Y-56697619D01*
X109211905Y-56792857D01*
X109211905Y-56888095D01*
X109164286Y-57030952D01*
X108592857Y-57602381D01*
X109211905Y-57602381D01*
X170632381Y-58586666D02*
X170156190Y-58920000D01*
X170632381Y-59158095D02*
X169632381Y-59158095D01*
X169632381Y-58777142D01*
X169680000Y-58681904D01*
X169727619Y-58634285D01*
X169822857Y-58586666D01*
X169965714Y-58586666D01*
X170060952Y-58634285D01*
X170108571Y-58681904D01*
X170156190Y-58777142D01*
X170156190Y-59158095D01*
X170632381Y-57634285D02*
X170632381Y-58205714D01*
X170632381Y-57920000D02*
X169632381Y-57920000D01*
X169775238Y-58015238D01*
X169870476Y-58110476D01*
X169918095Y-58205714D01*
X173172381Y-62920476D02*
X173172381Y-63491905D01*
X173172381Y-63206191D02*
X172172381Y-63206191D01*
X172315238Y-63301429D01*
X172410476Y-63396667D01*
X172458095Y-63491905D01*
X172172381Y-62301429D02*
X172172381Y-62206190D01*
X172220000Y-62110952D01*
X172267619Y-62063333D01*
X172362857Y-62015714D01*
X172553333Y-61968095D01*
X172791429Y-61968095D01*
X172981905Y-62015714D01*
X173077143Y-62063333D01*
X173124762Y-62110952D01*
X173172381Y-62206190D01*
X173172381Y-62301429D01*
X173124762Y-62396667D01*
X173077143Y-62444286D01*
X172981905Y-62491905D01*
X172791429Y-62539524D01*
X172553333Y-62539524D01*
X172362857Y-62491905D01*
X172267619Y-62444286D01*
X172220000Y-62396667D01*
X172172381Y-62301429D01*
X173172381Y-61539524D02*
X172172381Y-61539524D01*
X173172381Y-60968095D02*
X172600952Y-61396667D01*
X172172381Y-60968095D02*
X172743810Y-61539524D01*
X104592381Y-83986666D02*
X104116190Y-84320000D01*
X104592381Y-84558095D02*
X103592381Y-84558095D01*
X103592381Y-84177142D01*
X103640000Y-84081904D01*
X103687619Y-84034285D01*
X103782857Y-83986666D01*
X103925714Y-83986666D01*
X104020952Y-84034285D01*
X104068571Y-84081904D01*
X104116190Y-84177142D01*
X104116190Y-84558095D01*
X103687619Y-83605714D02*
X103640000Y-83558095D01*
X103592381Y-83462857D01*
X103592381Y-83224761D01*
X103640000Y-83129523D01*
X103687619Y-83081904D01*
X103782857Y-83034285D01*
X103878095Y-83034285D01*
X104020952Y-83081904D01*
X104592381Y-83653333D01*
X104592381Y-83034285D01*
X103687619Y-92701905D02*
X103640000Y-92654286D01*
X103592381Y-92559048D01*
X103592381Y-92320952D01*
X103640000Y-92225714D01*
X103687619Y-92178095D01*
X103782857Y-92130476D01*
X103878095Y-92130476D01*
X104020952Y-92178095D01*
X104592381Y-92749524D01*
X104592381Y-92130476D01*
X104592381Y-91701905D02*
X103592381Y-91701905D01*
X104592381Y-91130476D02*
X104020952Y-91559048D01*
X103592381Y-91130476D02*
X104163810Y-91701905D01*
X103925714Y-90273333D02*
X104592381Y-90273333D01*
X103544762Y-90511429D02*
X104259048Y-90749524D01*
X104259048Y-90130476D01*
X129682501Y-95665586D02*
X129206310Y-95998920D01*
X129682501Y-96237015D02*
X128682501Y-96237015D01*
X128682501Y-95856062D01*
X128730120Y-95760824D01*
X128777739Y-95713205D01*
X128872977Y-95665586D01*
X129015834Y-95665586D01*
X129111072Y-95713205D01*
X129158691Y-95760824D01*
X129206310Y-95856062D01*
X129206310Y-96237015D01*
X128682501Y-95332253D02*
X128682501Y-94713205D01*
X129063453Y-95046539D01*
X129063453Y-94903681D01*
X129111072Y-94808443D01*
X129158691Y-94760824D01*
X129253930Y-94713205D01*
X129492025Y-94713205D01*
X129587263Y-94760824D01*
X129634882Y-94808443D01*
X129682501Y-94903681D01*
X129682501Y-95189396D01*
X129634882Y-95284634D01*
X129587263Y-95332253D01*
X93162381Y-83986666D02*
X92686190Y-84320000D01*
X93162381Y-84558095D02*
X92162381Y-84558095D01*
X92162381Y-84177142D01*
X92210000Y-84081904D01*
X92257619Y-84034285D01*
X92352857Y-83986666D01*
X92495714Y-83986666D01*
X92590952Y-84034285D01*
X92638571Y-84081904D01*
X92686190Y-84177142D01*
X92686190Y-84558095D01*
X92495714Y-83129523D02*
X93162381Y-83129523D01*
X92114762Y-83367619D02*
X92829048Y-83605714D01*
X92829048Y-82986666D01*
X92257619Y-92701905D02*
X92210000Y-92654286D01*
X92162381Y-92559048D01*
X92162381Y-92320952D01*
X92210000Y-92225714D01*
X92257619Y-92178095D01*
X92352857Y-92130476D01*
X92448095Y-92130476D01*
X92590952Y-92178095D01*
X93162381Y-92749524D01*
X93162381Y-92130476D01*
X93162381Y-91701905D02*
X92162381Y-91701905D01*
X93162381Y-91130476D02*
X92590952Y-91559048D01*
X92162381Y-91130476D02*
X92733810Y-91701905D01*
X92495714Y-90273333D02*
X93162381Y-90273333D01*
X92114762Y-90511429D02*
X92829048Y-90749524D01*
X92829048Y-90130476D01*
X96972381Y-83986666D02*
X96496190Y-84320000D01*
X96972381Y-84558095D02*
X95972381Y-84558095D01*
X95972381Y-84177142D01*
X96020000Y-84081904D01*
X96067619Y-84034285D01*
X96162857Y-83986666D01*
X96305714Y-83986666D01*
X96400952Y-84034285D01*
X96448571Y-84081904D01*
X96496190Y-84177142D01*
X96496190Y-84558095D01*
X95972381Y-83081904D02*
X95972381Y-83558095D01*
X96448571Y-83605714D01*
X96400952Y-83558095D01*
X96353333Y-83462857D01*
X96353333Y-83224761D01*
X96400952Y-83129523D01*
X96448571Y-83081904D01*
X96543810Y-83034285D01*
X96781905Y-83034285D01*
X96877143Y-83081904D01*
X96924762Y-83129523D01*
X96972381Y-83224761D01*
X96972381Y-83462857D01*
X96924762Y-83558095D01*
X96877143Y-83605714D01*
X96067619Y-92701905D02*
X96020000Y-92654286D01*
X95972381Y-92559048D01*
X95972381Y-92320952D01*
X96020000Y-92225714D01*
X96067619Y-92178095D01*
X96162857Y-92130476D01*
X96258095Y-92130476D01*
X96400952Y-92178095D01*
X96972381Y-92749524D01*
X96972381Y-92130476D01*
X96972381Y-91701905D02*
X95972381Y-91701905D01*
X96972381Y-91130476D02*
X96400952Y-91559048D01*
X95972381Y-91130476D02*
X96543810Y-91701905D01*
X96305714Y-90273333D02*
X96972381Y-90273333D01*
X95924762Y-90511429D02*
X96639048Y-90749524D01*
X96639048Y-90130476D01*
X128103334Y-83002381D02*
X127770000Y-82526190D01*
X127531905Y-83002381D02*
X127531905Y-82002381D01*
X127912858Y-82002381D01*
X128008096Y-82050000D01*
X128055715Y-82097619D01*
X128103334Y-82192857D01*
X128103334Y-82335714D01*
X128055715Y-82430952D01*
X128008096Y-82478571D01*
X127912858Y-82526190D01*
X127531905Y-82526190D01*
X128960477Y-82002381D02*
X128770000Y-82002381D01*
X128674762Y-82050000D01*
X128627143Y-82097619D01*
X128531905Y-82240476D01*
X128484286Y-82430952D01*
X128484286Y-82811905D01*
X128531905Y-82907143D01*
X128579524Y-82954762D01*
X128674762Y-83002381D01*
X128865239Y-83002381D01*
X128960477Y-82954762D01*
X129008096Y-82907143D01*
X129055715Y-82811905D01*
X129055715Y-82573810D01*
X129008096Y-82478571D01*
X128960477Y-82430952D01*
X128865239Y-82383333D01*
X128674762Y-82383333D01*
X128579524Y-82430952D01*
X128531905Y-82478571D01*
X128484286Y-82573810D01*
X135842381Y-82002381D02*
X135937620Y-82002381D01*
X136032858Y-82050000D01*
X136080477Y-82097619D01*
X136128096Y-82192857D01*
X136175715Y-82383333D01*
X136175715Y-82621429D01*
X136128096Y-82811905D01*
X136080477Y-82907143D01*
X136032858Y-82954762D01*
X135937620Y-83002381D01*
X135842381Y-83002381D01*
X135747143Y-82954762D01*
X135699524Y-82907143D01*
X135651905Y-82811905D01*
X135604286Y-82621429D01*
X135604286Y-82383333D01*
X135651905Y-82192857D01*
X135699524Y-82097619D01*
X135747143Y-82050000D01*
X135842381Y-82002381D01*
X119213334Y-83002381D02*
X118880000Y-82526190D01*
X118641905Y-83002381D02*
X118641905Y-82002381D01*
X119022858Y-82002381D01*
X119118096Y-82050000D01*
X119165715Y-82097619D01*
X119213334Y-82192857D01*
X119213334Y-82335714D01*
X119165715Y-82430952D01*
X119118096Y-82478571D01*
X119022858Y-82526190D01*
X118641905Y-82526190D01*
X119546667Y-82002381D02*
X120213334Y-82002381D01*
X119784762Y-83002381D01*
X111712381Y-82002381D02*
X111807620Y-82002381D01*
X111902858Y-82050000D01*
X111950477Y-82097619D01*
X111998096Y-82192857D01*
X112045715Y-82383333D01*
X112045715Y-82621429D01*
X111998096Y-82811905D01*
X111950477Y-82907143D01*
X111902858Y-82954762D01*
X111807620Y-83002381D01*
X111712381Y-83002381D01*
X111617143Y-82954762D01*
X111569524Y-82907143D01*
X111521905Y-82811905D01*
X111474286Y-82621429D01*
X111474286Y-82383333D01*
X111521905Y-82192857D01*
X111569524Y-82097619D01*
X111617143Y-82050000D01*
X111712381Y-82002381D01*
X100782381Y-83986666D02*
X100306190Y-84320000D01*
X100782381Y-84558095D02*
X99782381Y-84558095D01*
X99782381Y-84177142D01*
X99830000Y-84081904D01*
X99877619Y-84034285D01*
X99972857Y-83986666D01*
X100115714Y-83986666D01*
X100210952Y-84034285D01*
X100258571Y-84081904D01*
X100306190Y-84177142D01*
X100306190Y-84558095D01*
X100210952Y-83415238D02*
X100163333Y-83510476D01*
X100115714Y-83558095D01*
X100020476Y-83605714D01*
X99972857Y-83605714D01*
X99877619Y-83558095D01*
X99830000Y-83510476D01*
X99782381Y-83415238D01*
X99782381Y-83224761D01*
X99830000Y-83129523D01*
X99877619Y-83081904D01*
X99972857Y-83034285D01*
X100020476Y-83034285D01*
X100115714Y-83081904D01*
X100163333Y-83129523D01*
X100210952Y-83224761D01*
X100210952Y-83415238D01*
X100258571Y-83510476D01*
X100306190Y-83558095D01*
X100401429Y-83605714D01*
X100591905Y-83605714D01*
X100687143Y-83558095D01*
X100734762Y-83510476D01*
X100782381Y-83415238D01*
X100782381Y-83224761D01*
X100734762Y-83129523D01*
X100687143Y-83081904D01*
X100591905Y-83034285D01*
X100401429Y-83034285D01*
X100306190Y-83081904D01*
X100258571Y-83129523D01*
X100210952Y-83224761D01*
X99877619Y-92701905D02*
X99830000Y-92654286D01*
X99782381Y-92559048D01*
X99782381Y-92320952D01*
X99830000Y-92225714D01*
X99877619Y-92178095D01*
X99972857Y-92130476D01*
X100068095Y-92130476D01*
X100210952Y-92178095D01*
X100782381Y-92749524D01*
X100782381Y-92130476D01*
X100782381Y-91701905D02*
X99782381Y-91701905D01*
X100782381Y-91130476D02*
X100210952Y-91559048D01*
X99782381Y-91130476D02*
X100353810Y-91701905D01*
X100115714Y-90273333D02*
X100782381Y-90273333D01*
X99734762Y-90511429D02*
X100449048Y-90749524D01*
X100449048Y-90130476D01*
M02*
