G04 #@! TF.FileFunction,Copper,L1,Top,Signal*
%FSLAX46Y46*%
G04 Gerber Fmt 4.6, Leading zero omitted, Abs format (unit mm)*
G04 Created by KiCad (PCBNEW 4.0.5+dfsg1-4) date Sat Oct  6 15:16:14 2018*
%MOMM*%
%LPD*%
G01*
G04 APERTURE LIST*
%ADD10C,0.100000*%
%ADD11R,2.499360X2.499360*%
%ADD12C,2.499360*%
%ADD13R,1.300000X1.300000*%
%ADD14C,1.300000*%
%ADD15R,1.727200X1.727200*%
%ADD16O,1.727200X1.727200*%
%ADD17R,1.397000X1.397000*%
%ADD18C,1.397000*%
%ADD19R,1.143000X0.508000*%
%ADD20O,1.501140X2.499360*%
%ADD21O,1.600000X1.600000*%
%ADD22C,1.998980*%
%ADD23C,0.600000*%
%ADD24C,0.203200*%
%ADD25C,0.254000*%
G04 APERTURE END LIST*
D10*
D11*
X95250000Y-60960000D03*
D12*
X95250000Y-76200000D03*
X102870000Y-76200000D03*
X102870000Y-60960000D03*
D13*
X148590000Y-67310000D03*
D14*
X148590000Y-64810000D03*
D13*
X168910000Y-67310000D03*
D14*
X168910000Y-69810000D03*
D13*
X116840000Y-93980000D03*
D14*
X119340000Y-93980000D03*
D13*
X116840000Y-88900000D03*
D14*
X119340000Y-88900000D03*
D13*
X92710000Y-99060000D03*
D14*
X92710000Y-101560000D03*
D13*
X96520000Y-99060000D03*
D14*
X96520000Y-101560000D03*
D13*
X172720000Y-77470000D03*
D14*
X170220000Y-77470000D03*
D13*
X121920000Y-59690000D03*
D14*
X121920000Y-57190000D03*
D13*
X138430000Y-66040000D03*
D14*
X140930000Y-66040000D03*
D13*
X110490000Y-95250000D03*
D14*
X107990000Y-95250000D03*
D13*
X110490000Y-88900000D03*
D14*
X107990000Y-88900000D03*
D15*
X83820000Y-63500000D03*
D16*
X86360000Y-63500000D03*
X83820000Y-66040000D03*
X86360000Y-66040000D03*
X83820000Y-68580000D03*
X86360000Y-68580000D03*
X83820000Y-71120000D03*
X86360000Y-71120000D03*
X83820000Y-73660000D03*
X86360000Y-73660000D03*
X83820000Y-76200000D03*
X86360000Y-76200000D03*
X83820000Y-78740000D03*
X86360000Y-78740000D03*
X83820000Y-81280000D03*
X86360000Y-81280000D03*
X83820000Y-83820000D03*
X86360000Y-83820000D03*
X83820000Y-86360000D03*
X86360000Y-86360000D03*
X83820000Y-88900000D03*
X86360000Y-88900000D03*
X83820000Y-91440000D03*
X86360000Y-91440000D03*
X83820000Y-93980000D03*
X86360000Y-93980000D03*
D17*
X160020000Y-62230000D03*
D18*
X157480000Y-59690000D03*
X157480000Y-62230000D03*
X154940000Y-59690000D03*
X152400000Y-62230000D03*
X154940000Y-62230000D03*
X152400000Y-64770000D03*
X154940000Y-64770000D03*
X152400000Y-67310000D03*
X154940000Y-67310000D03*
X152400000Y-69850000D03*
X154940000Y-72390000D03*
X154940000Y-69850000D03*
X157480000Y-72390000D03*
X157480000Y-69850000D03*
X160020000Y-72390000D03*
X160020000Y-69850000D03*
X162560000Y-72390000D03*
X165100000Y-69850000D03*
X162560000Y-69850000D03*
X165100000Y-67310000D03*
X162560000Y-67310000D03*
X165100000Y-64770000D03*
X162560000Y-64770000D03*
X165100000Y-62230000D03*
X162560000Y-59690000D03*
X162560000Y-62230000D03*
X160020000Y-59690000D03*
D19*
X114935000Y-100965000D03*
X114935000Y-99695000D03*
X114935000Y-98425000D03*
X114935000Y-97155000D03*
X121285000Y-97155000D03*
X121285000Y-98425000D03*
X121285000Y-99695000D03*
X121285000Y-100965000D03*
D20*
X138430000Y-58420000D03*
X140970000Y-58420000D03*
X135890000Y-58420000D03*
D21*
X107950000Y-60960000D03*
X107950000Y-63500000D03*
X107950000Y-66040000D03*
X107950000Y-68580000D03*
X107950000Y-71120000D03*
X107950000Y-73660000D03*
X107950000Y-76200000D03*
X115570000Y-76200000D03*
X115570000Y-73660000D03*
X115570000Y-71120000D03*
X115570000Y-68580000D03*
X115570000Y-66040000D03*
X115570000Y-63500000D03*
X115570000Y-60960000D03*
D13*
X113030000Y-57150000D03*
D14*
X110530000Y-57150000D03*
D22*
X172720000Y-57150000D03*
X172720000Y-67310000D03*
X104140000Y-86360000D03*
X104140000Y-96520000D03*
X125730000Y-90170000D03*
X125730000Y-100330000D03*
X92710000Y-96520000D03*
X92710000Y-86360000D03*
X96520000Y-96520000D03*
X96520000Y-86360000D03*
X130810000Y-82550000D03*
X140970000Y-82550000D03*
X116840000Y-82550000D03*
X106680000Y-82550000D03*
X100330000Y-86360000D03*
X100330000Y-96520000D03*
D23*
X113030000Y-97790000D03*
X86360000Y-99060000D03*
X92710000Y-69850000D03*
X123190000Y-97790000D03*
X123190000Y-100330000D03*
X121920000Y-83820000D03*
D24*
X116840000Y-82550000D02*
X116840000Y-88900000D01*
X114935000Y-98425000D02*
X113665000Y-98425000D01*
X113665000Y-98425000D02*
X113030000Y-97790000D01*
X86360000Y-99060000D02*
X86360000Y-93980000D01*
X106680000Y-82550000D02*
X106680000Y-80010000D01*
X105410000Y-78740000D02*
X86360000Y-78740000D01*
X106680000Y-80010000D02*
X105410000Y-78740000D01*
X121920000Y-59690000D02*
X134620000Y-59690000D01*
X134620000Y-59690000D02*
X135890000Y-58420000D01*
X110490000Y-95250000D02*
X110490000Y-97790000D01*
X113665000Y-100965000D02*
X114935000Y-100965000D01*
X110490000Y-97790000D02*
X113665000Y-100965000D01*
X114935000Y-97155000D02*
X114935000Y-93345000D01*
X114935000Y-93345000D02*
X110490000Y-88900000D01*
X107990000Y-88900000D02*
X102870000Y-88900000D01*
X102870000Y-88900000D02*
X100330000Y-86360000D01*
X162560000Y-69850000D02*
X161290000Y-71120000D01*
X116840000Y-69850000D02*
X92710000Y-69850000D01*
X118110000Y-71120000D02*
X116840000Y-69850000D01*
X127000000Y-71120000D02*
X118110000Y-71120000D01*
X161290000Y-71120000D02*
X127000000Y-71120000D01*
X121285000Y-99695000D02*
X125095000Y-99695000D01*
X125095000Y-99695000D02*
X125730000Y-100330000D01*
X122555000Y-98425000D02*
X121285000Y-98425000D01*
X123190000Y-97790000D02*
X122555000Y-98425000D01*
X121285000Y-100965000D02*
X122555000Y-100965000D01*
X122555000Y-100965000D02*
X123190000Y-100330000D01*
X121285000Y-97155000D02*
X121920000Y-96520000D01*
X121920000Y-96520000D02*
X121920000Y-83820000D01*
D25*
G36*
X82915552Y-85479935D02*
X82645757Y-85883712D01*
X82551017Y-86360000D01*
X82645757Y-86836288D01*
X82915552Y-87240065D01*
X83319329Y-87509860D01*
X83795617Y-87604600D01*
X83844383Y-87604600D01*
X84320671Y-87509860D01*
X84724448Y-87240065D01*
X84994243Y-86836288D01*
X85088983Y-86360000D01*
X84994243Y-85883712D01*
X84724448Y-85479935D01*
X84330938Y-85217000D01*
X85849062Y-85217000D01*
X85455552Y-85479935D01*
X85185757Y-85883712D01*
X85091017Y-86360000D01*
X85185757Y-86836288D01*
X85455552Y-87240065D01*
X85859329Y-87509860D01*
X86335617Y-87604600D01*
X86384383Y-87604600D01*
X86860671Y-87509860D01*
X87264448Y-87240065D01*
X87534243Y-86836288D01*
X87628983Y-86360000D01*
X87534243Y-85883712D01*
X87264448Y-85479935D01*
X86870938Y-85217000D01*
X91900983Y-85217000D01*
X91540360Y-85576994D01*
X91329751Y-86084199D01*
X91329271Y-86633392D01*
X91538995Y-87140963D01*
X91926994Y-87529640D01*
X92434199Y-87740249D01*
X92983392Y-87740729D01*
X93490963Y-87531005D01*
X93879640Y-87143006D01*
X94090249Y-86635801D01*
X94090729Y-86086608D01*
X93881005Y-85579037D01*
X93519600Y-85217000D01*
X95710983Y-85217000D01*
X95350360Y-85576994D01*
X95139751Y-86084199D01*
X95139271Y-86633392D01*
X95348995Y-87140963D01*
X95736994Y-87529640D01*
X96244199Y-87740249D01*
X96793392Y-87740729D01*
X97300963Y-87531005D01*
X97689640Y-87143006D01*
X97900249Y-86635801D01*
X97900729Y-86086608D01*
X97691005Y-85579037D01*
X97329600Y-85217000D01*
X99520983Y-85217000D01*
X99160360Y-85576994D01*
X98949751Y-86084199D01*
X98949271Y-86633392D01*
X99158995Y-87140963D01*
X99546994Y-87529640D01*
X100054199Y-87740249D01*
X100603392Y-87740729D01*
X100904015Y-87616514D01*
X102528748Y-89241247D01*
X102528750Y-89241250D01*
X102685317Y-89345864D01*
X102870000Y-89382600D01*
X107073863Y-89382600D01*
X107115451Y-89483251D01*
X107405223Y-89773529D01*
X107784022Y-89930820D01*
X108194179Y-89931178D01*
X108573251Y-89774549D01*
X108863529Y-89484777D01*
X109020820Y-89105978D01*
X109021178Y-88695821D01*
X108864549Y-88316749D01*
X108797917Y-88250000D01*
X109451536Y-88250000D01*
X109451536Y-89550000D01*
X109478103Y-89691190D01*
X109561546Y-89820865D01*
X109688866Y-89907859D01*
X109840000Y-89938464D01*
X110845964Y-89938464D01*
X114452400Y-93544900D01*
X114452400Y-96512536D01*
X114363500Y-96512536D01*
X114222310Y-96539103D01*
X114092635Y-96622546D01*
X114005641Y-96749866D01*
X113975036Y-96901000D01*
X113975036Y-97409000D01*
X114001603Y-97550190D01*
X114085046Y-97679865D01*
X114212366Y-97766859D01*
X114325288Y-97789726D01*
X114222310Y-97809103D01*
X114092635Y-97892546D01*
X114058571Y-97942400D01*
X113864899Y-97942400D01*
X113711002Y-97788502D01*
X113711118Y-97655135D01*
X113607661Y-97404748D01*
X113416259Y-97213013D01*
X113166054Y-97109118D01*
X112895135Y-97108882D01*
X112644748Y-97212339D01*
X112453013Y-97403741D01*
X112349118Y-97653946D01*
X112348882Y-97924865D01*
X112452339Y-98175252D01*
X112643741Y-98366987D01*
X112893946Y-98470882D01*
X113028500Y-98470999D01*
X113323748Y-98766247D01*
X113323750Y-98766250D01*
X113419360Y-98830134D01*
X113480317Y-98870864D01*
X113665000Y-98907601D01*
X113665005Y-98907600D01*
X113998874Y-98907600D01*
X113825173Y-99081302D01*
X113728500Y-99314691D01*
X113728500Y-99409250D01*
X113887250Y-99568000D01*
X114808000Y-99568000D01*
X114808000Y-99548000D01*
X115062000Y-99548000D01*
X115062000Y-99568000D01*
X115982750Y-99568000D01*
X116141500Y-99409250D01*
X116141500Y-99314691D01*
X116044827Y-99081302D01*
X115866199Y-98902673D01*
X115826134Y-98886078D01*
X115864359Y-98830134D01*
X115894964Y-98679000D01*
X115894964Y-98171000D01*
X115868397Y-98029810D01*
X115784954Y-97900135D01*
X115657634Y-97813141D01*
X115544712Y-97790274D01*
X115647690Y-97770897D01*
X115777365Y-97687454D01*
X115864359Y-97560134D01*
X115894964Y-97409000D01*
X115894964Y-96901000D01*
X115868397Y-96759810D01*
X115784954Y-96630135D01*
X115657634Y-96543141D01*
X115506500Y-96512536D01*
X115417600Y-96512536D01*
X115417600Y-94265750D01*
X115555000Y-94265750D01*
X115555000Y-94756310D01*
X115651673Y-94989699D01*
X115830302Y-95168327D01*
X116063691Y-95265000D01*
X116554250Y-95265000D01*
X116713000Y-95106250D01*
X116713000Y-94107000D01*
X116967000Y-94107000D01*
X116967000Y-95106250D01*
X117125750Y-95265000D01*
X117616309Y-95265000D01*
X117849698Y-95168327D01*
X118028327Y-94989699D01*
X118125000Y-94756310D01*
X118125000Y-94265750D01*
X118043429Y-94184179D01*
X118308822Y-94184179D01*
X118465451Y-94563251D01*
X118755223Y-94853529D01*
X119134022Y-95010820D01*
X119544179Y-95011178D01*
X119923251Y-94854549D01*
X120213529Y-94564777D01*
X120370820Y-94185978D01*
X120371178Y-93775821D01*
X120214549Y-93396749D01*
X119924777Y-93106471D01*
X119545978Y-92949180D01*
X119135821Y-92948822D01*
X118756749Y-93105451D01*
X118466471Y-93395223D01*
X118309180Y-93774022D01*
X118308822Y-94184179D01*
X118043429Y-94184179D01*
X117966250Y-94107000D01*
X116967000Y-94107000D01*
X116713000Y-94107000D01*
X115713750Y-94107000D01*
X115555000Y-94265750D01*
X115417600Y-94265750D01*
X115417600Y-93345000D01*
X115389492Y-93203690D01*
X115555000Y-93203690D01*
X115555000Y-93694250D01*
X115713750Y-93853000D01*
X116713000Y-93853000D01*
X116713000Y-92853750D01*
X116967000Y-92853750D01*
X116967000Y-93853000D01*
X117966250Y-93853000D01*
X118125000Y-93694250D01*
X118125000Y-93203690D01*
X118028327Y-92970301D01*
X117849698Y-92791673D01*
X117616309Y-92695000D01*
X117125750Y-92695000D01*
X116967000Y-92853750D01*
X116713000Y-92853750D01*
X116554250Y-92695000D01*
X116063691Y-92695000D01*
X115830302Y-92791673D01*
X115651673Y-92970301D01*
X115555000Y-93203690D01*
X115389492Y-93203690D01*
X115380864Y-93160317D01*
X115276250Y-93003750D01*
X111528464Y-89255964D01*
X111528464Y-89185750D01*
X115555000Y-89185750D01*
X115555000Y-89676310D01*
X115651673Y-89909699D01*
X115830302Y-90088327D01*
X116063691Y-90185000D01*
X116554250Y-90185000D01*
X116713000Y-90026250D01*
X116713000Y-89027000D01*
X116967000Y-89027000D01*
X116967000Y-90026250D01*
X117125750Y-90185000D01*
X117616309Y-90185000D01*
X117849698Y-90088327D01*
X118028327Y-89909699D01*
X118125000Y-89676310D01*
X118125000Y-89185750D01*
X118043429Y-89104179D01*
X118308822Y-89104179D01*
X118465451Y-89483251D01*
X118755223Y-89773529D01*
X119134022Y-89930820D01*
X119544179Y-89931178D01*
X119923251Y-89774549D01*
X120213529Y-89484777D01*
X120370820Y-89105978D01*
X120371178Y-88695821D01*
X120214549Y-88316749D01*
X119924777Y-88026471D01*
X119545978Y-87869180D01*
X119135821Y-87868822D01*
X118756749Y-88025451D01*
X118466471Y-88315223D01*
X118309180Y-88694022D01*
X118308822Y-89104179D01*
X118043429Y-89104179D01*
X117966250Y-89027000D01*
X116967000Y-89027000D01*
X116713000Y-89027000D01*
X115713750Y-89027000D01*
X115555000Y-89185750D01*
X111528464Y-89185750D01*
X111528464Y-88250000D01*
X111504697Y-88123690D01*
X115555000Y-88123690D01*
X115555000Y-88614250D01*
X115713750Y-88773000D01*
X116713000Y-88773000D01*
X116713000Y-87773750D01*
X116967000Y-87773750D01*
X116967000Y-88773000D01*
X117966250Y-88773000D01*
X118125000Y-88614250D01*
X118125000Y-88123690D01*
X118028327Y-87890301D01*
X117849698Y-87711673D01*
X117616309Y-87615000D01*
X117125750Y-87615000D01*
X116967000Y-87773750D01*
X116713000Y-87773750D01*
X116554250Y-87615000D01*
X116063691Y-87615000D01*
X115830302Y-87711673D01*
X115651673Y-87890301D01*
X115555000Y-88123690D01*
X111504697Y-88123690D01*
X111501897Y-88108810D01*
X111418454Y-87979135D01*
X111291134Y-87892141D01*
X111140000Y-87861536D01*
X109840000Y-87861536D01*
X109698810Y-87888103D01*
X109569135Y-87971546D01*
X109482141Y-88098866D01*
X109451536Y-88250000D01*
X108797917Y-88250000D01*
X108574777Y-88026471D01*
X108195978Y-87869180D01*
X107785821Y-87868822D01*
X107406749Y-88025451D01*
X107116471Y-88315223D01*
X107074043Y-88417400D01*
X103069899Y-88417400D01*
X101586448Y-86933948D01*
X101710249Y-86635801D01*
X101710729Y-86086608D01*
X101501005Y-85579037D01*
X101139600Y-85217000D01*
X103330983Y-85217000D01*
X102970360Y-85576994D01*
X102759751Y-86084199D01*
X102759271Y-86633392D01*
X102968995Y-87140963D01*
X103356994Y-87529640D01*
X103864199Y-87740249D01*
X104413392Y-87740729D01*
X104920963Y-87531005D01*
X105309640Y-87143006D01*
X105520249Y-86635801D01*
X105520729Y-86086608D01*
X105311005Y-85579037D01*
X104949600Y-85217000D01*
X121437400Y-85217000D01*
X121437400Y-96320101D01*
X121244964Y-96512536D01*
X120713500Y-96512536D01*
X120572310Y-96539103D01*
X120442635Y-96622546D01*
X120355641Y-96749866D01*
X120325036Y-96901000D01*
X120325036Y-97409000D01*
X120351603Y-97550190D01*
X120435046Y-97679865D01*
X120562366Y-97766859D01*
X120675288Y-97789726D01*
X120572310Y-97809103D01*
X120442635Y-97892546D01*
X120355641Y-98019866D01*
X120325036Y-98171000D01*
X120325036Y-98679000D01*
X120351603Y-98820190D01*
X120435046Y-98949865D01*
X120562366Y-99036859D01*
X120675288Y-99059726D01*
X120572310Y-99079103D01*
X120442635Y-99162546D01*
X120355641Y-99289866D01*
X120325036Y-99441000D01*
X120325036Y-99949000D01*
X120351603Y-100090190D01*
X120435046Y-100219865D01*
X120562366Y-100306859D01*
X120675288Y-100329726D01*
X120572310Y-100349103D01*
X120442635Y-100432546D01*
X120355641Y-100559866D01*
X120325036Y-100711000D01*
X120325036Y-101219000D01*
X120351603Y-101360190D01*
X120435046Y-101489865D01*
X120562366Y-101576859D01*
X120713500Y-101607464D01*
X121856500Y-101607464D01*
X121997690Y-101580897D01*
X122127365Y-101497454D01*
X122161429Y-101447600D01*
X122555000Y-101447600D01*
X122739683Y-101410864D01*
X122896250Y-101306250D01*
X123191498Y-101011002D01*
X123324865Y-101011118D01*
X123575252Y-100907661D01*
X123766987Y-100716259D01*
X123870882Y-100466054D01*
X123871118Y-100195135D01*
X123863873Y-100177600D01*
X124349643Y-100177600D01*
X124349271Y-100603392D01*
X124558995Y-101110963D01*
X124946994Y-101499640D01*
X125454199Y-101710249D01*
X126003392Y-101710729D01*
X126510963Y-101501005D01*
X126899640Y-101113006D01*
X127110249Y-100605801D01*
X127110729Y-100056608D01*
X126901005Y-99549037D01*
X126513006Y-99160360D01*
X126005801Y-98949751D01*
X125456608Y-98949271D01*
X124949037Y-99158995D01*
X124895539Y-99212400D01*
X122162151Y-99212400D01*
X122134954Y-99170135D01*
X122007634Y-99083141D01*
X121894712Y-99060274D01*
X121997690Y-99040897D01*
X122127365Y-98957454D01*
X122161429Y-98907600D01*
X122555000Y-98907600D01*
X122739683Y-98870864D01*
X122896250Y-98766250D01*
X123191498Y-98471002D01*
X123324865Y-98471118D01*
X123575252Y-98367661D01*
X123766987Y-98176259D01*
X123870882Y-97926054D01*
X123871118Y-97655135D01*
X123767661Y-97404748D01*
X123576259Y-97213013D01*
X123326054Y-97109118D01*
X123055135Y-97108882D01*
X122804748Y-97212339D01*
X122613013Y-97403741D01*
X122509118Y-97653946D01*
X122509001Y-97788500D01*
X122355100Y-97942400D01*
X122162151Y-97942400D01*
X122134954Y-97900135D01*
X122007634Y-97813141D01*
X121894712Y-97790274D01*
X121997690Y-97770897D01*
X122127365Y-97687454D01*
X122214359Y-97560134D01*
X122244964Y-97409000D01*
X122244964Y-96901000D01*
X122241248Y-96881251D01*
X122261247Y-96861252D01*
X122261250Y-96861250D01*
X122365864Y-96704683D01*
X122380693Y-96630135D01*
X122402601Y-96520000D01*
X122402600Y-96519995D01*
X122402600Y-91322163D01*
X124757443Y-91322163D01*
X124856042Y-91588965D01*
X125465582Y-91815401D01*
X126115377Y-91791341D01*
X126603958Y-91588965D01*
X126702557Y-91322163D01*
X125730000Y-90349605D01*
X124757443Y-91322163D01*
X122402600Y-91322163D01*
X122402600Y-89905582D01*
X124084599Y-89905582D01*
X124108659Y-90555377D01*
X124311035Y-91043958D01*
X124577837Y-91142557D01*
X125550395Y-90170000D01*
X125909605Y-90170000D01*
X126882163Y-91142557D01*
X127148965Y-91043958D01*
X127375401Y-90434418D01*
X127351341Y-89784623D01*
X127148965Y-89296042D01*
X126882163Y-89197443D01*
X125909605Y-90170000D01*
X125550395Y-90170000D01*
X124577837Y-89197443D01*
X124311035Y-89296042D01*
X124084599Y-89905582D01*
X122402600Y-89905582D01*
X122402600Y-89017837D01*
X124757443Y-89017837D01*
X125730000Y-89990395D01*
X126702557Y-89017837D01*
X126603958Y-88751035D01*
X125994418Y-88524599D01*
X125344623Y-88548659D01*
X124856042Y-88751035D01*
X124757443Y-89017837D01*
X122402600Y-89017837D01*
X122402600Y-85217000D01*
X176403000Y-85217000D01*
X176403000Y-102743000D01*
X80137000Y-102743000D01*
X80137000Y-101764179D01*
X91678822Y-101764179D01*
X91835451Y-102143251D01*
X92125223Y-102433529D01*
X92504022Y-102590820D01*
X92914179Y-102591178D01*
X93293251Y-102434549D01*
X93583529Y-102144777D01*
X93740820Y-101765978D01*
X93740821Y-101764179D01*
X95488822Y-101764179D01*
X95645451Y-102143251D01*
X95935223Y-102433529D01*
X96314022Y-102590820D01*
X96724179Y-102591178D01*
X97103251Y-102434549D01*
X97393529Y-102144777D01*
X97550820Y-101765978D01*
X97551178Y-101355821D01*
X97394549Y-100976749D01*
X97104777Y-100686471D01*
X96725978Y-100529180D01*
X96315821Y-100528822D01*
X95936749Y-100685451D01*
X95646471Y-100975223D01*
X95489180Y-101354022D01*
X95488822Y-101764179D01*
X93740821Y-101764179D01*
X93741178Y-101355821D01*
X93584549Y-100976749D01*
X93294777Y-100686471D01*
X92915978Y-100529180D01*
X92505821Y-100528822D01*
X92126749Y-100685451D01*
X91836471Y-100975223D01*
X91679180Y-101354022D01*
X91678822Y-101764179D01*
X80137000Y-101764179D01*
X80137000Y-93980000D01*
X82551017Y-93980000D01*
X82645757Y-94456288D01*
X82915552Y-94860065D01*
X83319329Y-95129860D01*
X83795617Y-95224600D01*
X83844383Y-95224600D01*
X84320671Y-95129860D01*
X84724448Y-94860065D01*
X84994243Y-94456288D01*
X85088983Y-93980000D01*
X85091017Y-93980000D01*
X85185757Y-94456288D01*
X85455552Y-94860065D01*
X85859329Y-95129860D01*
X85877400Y-95133455D01*
X85877400Y-98579518D01*
X85783013Y-98673741D01*
X85679118Y-98923946D01*
X85678882Y-99194865D01*
X85782339Y-99445252D01*
X85973741Y-99636987D01*
X86223946Y-99740882D01*
X86494865Y-99741118D01*
X86745252Y-99637661D01*
X86936987Y-99446259D01*
X87040882Y-99196054D01*
X87041118Y-98925135D01*
X86937661Y-98674748D01*
X86842600Y-98579522D01*
X86842600Y-98410000D01*
X91671536Y-98410000D01*
X91671536Y-99710000D01*
X91698103Y-99851190D01*
X91781546Y-99980865D01*
X91908866Y-100067859D01*
X92060000Y-100098464D01*
X93360000Y-100098464D01*
X93501190Y-100071897D01*
X93630865Y-99988454D01*
X93717859Y-99861134D01*
X93748464Y-99710000D01*
X93748464Y-98410000D01*
X95481536Y-98410000D01*
X95481536Y-99710000D01*
X95508103Y-99851190D01*
X95591546Y-99980865D01*
X95718866Y-100067859D01*
X95870000Y-100098464D01*
X97170000Y-100098464D01*
X97311190Y-100071897D01*
X97440865Y-99988454D01*
X97527859Y-99861134D01*
X97558464Y-99710000D01*
X97558464Y-98410000D01*
X97531897Y-98268810D01*
X97448454Y-98139135D01*
X97321134Y-98052141D01*
X97170000Y-98021536D01*
X95870000Y-98021536D01*
X95728810Y-98048103D01*
X95599135Y-98131546D01*
X95512141Y-98258866D01*
X95481536Y-98410000D01*
X93748464Y-98410000D01*
X93721897Y-98268810D01*
X93638454Y-98139135D01*
X93511134Y-98052141D01*
X93360000Y-98021536D01*
X92060000Y-98021536D01*
X91918810Y-98048103D01*
X91789135Y-98131546D01*
X91702141Y-98258866D01*
X91671536Y-98410000D01*
X86842600Y-98410000D01*
X86842600Y-96793392D01*
X91329271Y-96793392D01*
X91538995Y-97300963D01*
X91926994Y-97689640D01*
X92434199Y-97900249D01*
X92983392Y-97900729D01*
X93490963Y-97691005D01*
X93879640Y-97303006D01*
X94090249Y-96795801D01*
X94090251Y-96793392D01*
X95139271Y-96793392D01*
X95348995Y-97300963D01*
X95736994Y-97689640D01*
X96244199Y-97900249D01*
X96793392Y-97900729D01*
X97300963Y-97691005D01*
X97689640Y-97303006D01*
X97900249Y-96795801D01*
X97900251Y-96793392D01*
X98949271Y-96793392D01*
X99158995Y-97300963D01*
X99546994Y-97689640D01*
X100054199Y-97900249D01*
X100603392Y-97900729D01*
X101110963Y-97691005D01*
X101499640Y-97303006D01*
X101710249Y-96795801D01*
X101710251Y-96793392D01*
X102759271Y-96793392D01*
X102968995Y-97300963D01*
X103356994Y-97689640D01*
X103864199Y-97900249D01*
X104413392Y-97900729D01*
X104920963Y-97691005D01*
X105309640Y-97303006D01*
X105520249Y-96795801D01*
X105520729Y-96246608D01*
X105311005Y-95739037D01*
X105026644Y-95454179D01*
X106958822Y-95454179D01*
X107115451Y-95833251D01*
X107405223Y-96123529D01*
X107784022Y-96280820D01*
X108194179Y-96281178D01*
X108573251Y-96124549D01*
X108863529Y-95834777D01*
X109020820Y-95455978D01*
X109021178Y-95045821D01*
X108864549Y-94666749D01*
X108797917Y-94600000D01*
X109451536Y-94600000D01*
X109451536Y-95900000D01*
X109478103Y-96041190D01*
X109561546Y-96170865D01*
X109688866Y-96257859D01*
X109840000Y-96288464D01*
X110007400Y-96288464D01*
X110007400Y-97790000D01*
X110044136Y-97974683D01*
X110148750Y-98131250D01*
X113323750Y-101306250D01*
X113480317Y-101410864D01*
X113665000Y-101447600D01*
X114057849Y-101447600D01*
X114085046Y-101489865D01*
X114212366Y-101576859D01*
X114363500Y-101607464D01*
X115506500Y-101607464D01*
X115647690Y-101580897D01*
X115777365Y-101497454D01*
X115864359Y-101370134D01*
X115894964Y-101219000D01*
X115894964Y-100711000D01*
X115868397Y-100569810D01*
X115826028Y-100503966D01*
X115866199Y-100487327D01*
X116044827Y-100308698D01*
X116141500Y-100075309D01*
X116141500Y-99980750D01*
X115982750Y-99822000D01*
X115062000Y-99822000D01*
X115062000Y-99842000D01*
X114808000Y-99842000D01*
X114808000Y-99822000D01*
X113887250Y-99822000D01*
X113728500Y-99980750D01*
X113728500Y-100075309D01*
X113825173Y-100308698D01*
X113998874Y-100482400D01*
X113864900Y-100482400D01*
X110972600Y-97590100D01*
X110972600Y-96288464D01*
X111140000Y-96288464D01*
X111281190Y-96261897D01*
X111410865Y-96178454D01*
X111497859Y-96051134D01*
X111528464Y-95900000D01*
X111528464Y-94600000D01*
X111501897Y-94458810D01*
X111418454Y-94329135D01*
X111291134Y-94242141D01*
X111140000Y-94211536D01*
X109840000Y-94211536D01*
X109698810Y-94238103D01*
X109569135Y-94321546D01*
X109482141Y-94448866D01*
X109451536Y-94600000D01*
X108797917Y-94600000D01*
X108574777Y-94376471D01*
X108195978Y-94219180D01*
X107785821Y-94218822D01*
X107406749Y-94375451D01*
X107116471Y-94665223D01*
X106959180Y-95044022D01*
X106958822Y-95454179D01*
X105026644Y-95454179D01*
X104923006Y-95350360D01*
X104415801Y-95139751D01*
X103866608Y-95139271D01*
X103359037Y-95348995D01*
X102970360Y-95736994D01*
X102759751Y-96244199D01*
X102759271Y-96793392D01*
X101710251Y-96793392D01*
X101710729Y-96246608D01*
X101501005Y-95739037D01*
X101113006Y-95350360D01*
X100605801Y-95139751D01*
X100056608Y-95139271D01*
X99549037Y-95348995D01*
X99160360Y-95736994D01*
X98949751Y-96244199D01*
X98949271Y-96793392D01*
X97900251Y-96793392D01*
X97900729Y-96246608D01*
X97691005Y-95739037D01*
X97303006Y-95350360D01*
X96795801Y-95139751D01*
X96246608Y-95139271D01*
X95739037Y-95348995D01*
X95350360Y-95736994D01*
X95139751Y-96244199D01*
X95139271Y-96793392D01*
X94090251Y-96793392D01*
X94090729Y-96246608D01*
X93881005Y-95739037D01*
X93493006Y-95350360D01*
X92985801Y-95139751D01*
X92436608Y-95139271D01*
X91929037Y-95348995D01*
X91540360Y-95736994D01*
X91329751Y-96244199D01*
X91329271Y-96793392D01*
X86842600Y-96793392D01*
X86842600Y-95133455D01*
X86860671Y-95129860D01*
X87264448Y-94860065D01*
X87534243Y-94456288D01*
X87628983Y-93980000D01*
X87534243Y-93503712D01*
X87264448Y-93099935D01*
X86860671Y-92830140D01*
X86384383Y-92735400D01*
X86335617Y-92735400D01*
X85859329Y-92830140D01*
X85455552Y-93099935D01*
X85185757Y-93503712D01*
X85091017Y-93980000D01*
X85088983Y-93980000D01*
X84994243Y-93503712D01*
X84724448Y-93099935D01*
X84320671Y-92830140D01*
X83844383Y-92735400D01*
X83795617Y-92735400D01*
X83319329Y-92830140D01*
X82915552Y-93099935D01*
X82645757Y-93503712D01*
X82551017Y-93980000D01*
X80137000Y-93980000D01*
X80137000Y-91440000D01*
X82551017Y-91440000D01*
X82645757Y-91916288D01*
X82915552Y-92320065D01*
X83319329Y-92589860D01*
X83795617Y-92684600D01*
X83844383Y-92684600D01*
X84320671Y-92589860D01*
X84724448Y-92320065D01*
X84994243Y-91916288D01*
X85088983Y-91440000D01*
X85091017Y-91440000D01*
X85185757Y-91916288D01*
X85455552Y-92320065D01*
X85859329Y-92589860D01*
X86335617Y-92684600D01*
X86384383Y-92684600D01*
X86860671Y-92589860D01*
X87264448Y-92320065D01*
X87534243Y-91916288D01*
X87628983Y-91440000D01*
X87534243Y-90963712D01*
X87264448Y-90559935D01*
X86860671Y-90290140D01*
X86384383Y-90195400D01*
X86335617Y-90195400D01*
X85859329Y-90290140D01*
X85455552Y-90559935D01*
X85185757Y-90963712D01*
X85091017Y-91440000D01*
X85088983Y-91440000D01*
X84994243Y-90963712D01*
X84724448Y-90559935D01*
X84320671Y-90290140D01*
X83844383Y-90195400D01*
X83795617Y-90195400D01*
X83319329Y-90290140D01*
X82915552Y-90559935D01*
X82645757Y-90963712D01*
X82551017Y-91440000D01*
X80137000Y-91440000D01*
X80137000Y-88900000D01*
X82551017Y-88900000D01*
X82645757Y-89376288D01*
X82915552Y-89780065D01*
X83319329Y-90049860D01*
X83795617Y-90144600D01*
X83844383Y-90144600D01*
X84320671Y-90049860D01*
X84724448Y-89780065D01*
X84994243Y-89376288D01*
X85088983Y-88900000D01*
X85091017Y-88900000D01*
X85185757Y-89376288D01*
X85455552Y-89780065D01*
X85859329Y-90049860D01*
X86335617Y-90144600D01*
X86384383Y-90144600D01*
X86860671Y-90049860D01*
X87264448Y-89780065D01*
X87534243Y-89376288D01*
X87628983Y-88900000D01*
X87534243Y-88423712D01*
X87264448Y-88019935D01*
X86860671Y-87750140D01*
X86384383Y-87655400D01*
X86335617Y-87655400D01*
X85859329Y-87750140D01*
X85455552Y-88019935D01*
X85185757Y-88423712D01*
X85091017Y-88900000D01*
X85088983Y-88900000D01*
X84994243Y-88423712D01*
X84724448Y-88019935D01*
X84320671Y-87750140D01*
X83844383Y-87655400D01*
X83795617Y-87655400D01*
X83319329Y-87750140D01*
X82915552Y-88019935D01*
X82645757Y-88423712D01*
X82551017Y-88900000D01*
X80137000Y-88900000D01*
X80137000Y-85217000D01*
X83309062Y-85217000D01*
X82915552Y-85479935D01*
X82915552Y-85479935D01*
G37*
X82915552Y-85479935D02*
X82645757Y-85883712D01*
X82551017Y-86360000D01*
X82645757Y-86836288D01*
X82915552Y-87240065D01*
X83319329Y-87509860D01*
X83795617Y-87604600D01*
X83844383Y-87604600D01*
X84320671Y-87509860D01*
X84724448Y-87240065D01*
X84994243Y-86836288D01*
X85088983Y-86360000D01*
X84994243Y-85883712D01*
X84724448Y-85479935D01*
X84330938Y-85217000D01*
X85849062Y-85217000D01*
X85455552Y-85479935D01*
X85185757Y-85883712D01*
X85091017Y-86360000D01*
X85185757Y-86836288D01*
X85455552Y-87240065D01*
X85859329Y-87509860D01*
X86335617Y-87604600D01*
X86384383Y-87604600D01*
X86860671Y-87509860D01*
X87264448Y-87240065D01*
X87534243Y-86836288D01*
X87628983Y-86360000D01*
X87534243Y-85883712D01*
X87264448Y-85479935D01*
X86870938Y-85217000D01*
X91900983Y-85217000D01*
X91540360Y-85576994D01*
X91329751Y-86084199D01*
X91329271Y-86633392D01*
X91538995Y-87140963D01*
X91926994Y-87529640D01*
X92434199Y-87740249D01*
X92983392Y-87740729D01*
X93490963Y-87531005D01*
X93879640Y-87143006D01*
X94090249Y-86635801D01*
X94090729Y-86086608D01*
X93881005Y-85579037D01*
X93519600Y-85217000D01*
X95710983Y-85217000D01*
X95350360Y-85576994D01*
X95139751Y-86084199D01*
X95139271Y-86633392D01*
X95348995Y-87140963D01*
X95736994Y-87529640D01*
X96244199Y-87740249D01*
X96793392Y-87740729D01*
X97300963Y-87531005D01*
X97689640Y-87143006D01*
X97900249Y-86635801D01*
X97900729Y-86086608D01*
X97691005Y-85579037D01*
X97329600Y-85217000D01*
X99520983Y-85217000D01*
X99160360Y-85576994D01*
X98949751Y-86084199D01*
X98949271Y-86633392D01*
X99158995Y-87140963D01*
X99546994Y-87529640D01*
X100054199Y-87740249D01*
X100603392Y-87740729D01*
X100904015Y-87616514D01*
X102528748Y-89241247D01*
X102528750Y-89241250D01*
X102685317Y-89345864D01*
X102870000Y-89382600D01*
X107073863Y-89382600D01*
X107115451Y-89483251D01*
X107405223Y-89773529D01*
X107784022Y-89930820D01*
X108194179Y-89931178D01*
X108573251Y-89774549D01*
X108863529Y-89484777D01*
X109020820Y-89105978D01*
X109021178Y-88695821D01*
X108864549Y-88316749D01*
X108797917Y-88250000D01*
X109451536Y-88250000D01*
X109451536Y-89550000D01*
X109478103Y-89691190D01*
X109561546Y-89820865D01*
X109688866Y-89907859D01*
X109840000Y-89938464D01*
X110845964Y-89938464D01*
X114452400Y-93544900D01*
X114452400Y-96512536D01*
X114363500Y-96512536D01*
X114222310Y-96539103D01*
X114092635Y-96622546D01*
X114005641Y-96749866D01*
X113975036Y-96901000D01*
X113975036Y-97409000D01*
X114001603Y-97550190D01*
X114085046Y-97679865D01*
X114212366Y-97766859D01*
X114325288Y-97789726D01*
X114222310Y-97809103D01*
X114092635Y-97892546D01*
X114058571Y-97942400D01*
X113864899Y-97942400D01*
X113711002Y-97788502D01*
X113711118Y-97655135D01*
X113607661Y-97404748D01*
X113416259Y-97213013D01*
X113166054Y-97109118D01*
X112895135Y-97108882D01*
X112644748Y-97212339D01*
X112453013Y-97403741D01*
X112349118Y-97653946D01*
X112348882Y-97924865D01*
X112452339Y-98175252D01*
X112643741Y-98366987D01*
X112893946Y-98470882D01*
X113028500Y-98470999D01*
X113323748Y-98766247D01*
X113323750Y-98766250D01*
X113419360Y-98830134D01*
X113480317Y-98870864D01*
X113665000Y-98907601D01*
X113665005Y-98907600D01*
X113998874Y-98907600D01*
X113825173Y-99081302D01*
X113728500Y-99314691D01*
X113728500Y-99409250D01*
X113887250Y-99568000D01*
X114808000Y-99568000D01*
X114808000Y-99548000D01*
X115062000Y-99548000D01*
X115062000Y-99568000D01*
X115982750Y-99568000D01*
X116141500Y-99409250D01*
X116141500Y-99314691D01*
X116044827Y-99081302D01*
X115866199Y-98902673D01*
X115826134Y-98886078D01*
X115864359Y-98830134D01*
X115894964Y-98679000D01*
X115894964Y-98171000D01*
X115868397Y-98029810D01*
X115784954Y-97900135D01*
X115657634Y-97813141D01*
X115544712Y-97790274D01*
X115647690Y-97770897D01*
X115777365Y-97687454D01*
X115864359Y-97560134D01*
X115894964Y-97409000D01*
X115894964Y-96901000D01*
X115868397Y-96759810D01*
X115784954Y-96630135D01*
X115657634Y-96543141D01*
X115506500Y-96512536D01*
X115417600Y-96512536D01*
X115417600Y-94265750D01*
X115555000Y-94265750D01*
X115555000Y-94756310D01*
X115651673Y-94989699D01*
X115830302Y-95168327D01*
X116063691Y-95265000D01*
X116554250Y-95265000D01*
X116713000Y-95106250D01*
X116713000Y-94107000D01*
X116967000Y-94107000D01*
X116967000Y-95106250D01*
X117125750Y-95265000D01*
X117616309Y-95265000D01*
X117849698Y-95168327D01*
X118028327Y-94989699D01*
X118125000Y-94756310D01*
X118125000Y-94265750D01*
X118043429Y-94184179D01*
X118308822Y-94184179D01*
X118465451Y-94563251D01*
X118755223Y-94853529D01*
X119134022Y-95010820D01*
X119544179Y-95011178D01*
X119923251Y-94854549D01*
X120213529Y-94564777D01*
X120370820Y-94185978D01*
X120371178Y-93775821D01*
X120214549Y-93396749D01*
X119924777Y-93106471D01*
X119545978Y-92949180D01*
X119135821Y-92948822D01*
X118756749Y-93105451D01*
X118466471Y-93395223D01*
X118309180Y-93774022D01*
X118308822Y-94184179D01*
X118043429Y-94184179D01*
X117966250Y-94107000D01*
X116967000Y-94107000D01*
X116713000Y-94107000D01*
X115713750Y-94107000D01*
X115555000Y-94265750D01*
X115417600Y-94265750D01*
X115417600Y-93345000D01*
X115389492Y-93203690D01*
X115555000Y-93203690D01*
X115555000Y-93694250D01*
X115713750Y-93853000D01*
X116713000Y-93853000D01*
X116713000Y-92853750D01*
X116967000Y-92853750D01*
X116967000Y-93853000D01*
X117966250Y-93853000D01*
X118125000Y-93694250D01*
X118125000Y-93203690D01*
X118028327Y-92970301D01*
X117849698Y-92791673D01*
X117616309Y-92695000D01*
X117125750Y-92695000D01*
X116967000Y-92853750D01*
X116713000Y-92853750D01*
X116554250Y-92695000D01*
X116063691Y-92695000D01*
X115830302Y-92791673D01*
X115651673Y-92970301D01*
X115555000Y-93203690D01*
X115389492Y-93203690D01*
X115380864Y-93160317D01*
X115276250Y-93003750D01*
X111528464Y-89255964D01*
X111528464Y-89185750D01*
X115555000Y-89185750D01*
X115555000Y-89676310D01*
X115651673Y-89909699D01*
X115830302Y-90088327D01*
X116063691Y-90185000D01*
X116554250Y-90185000D01*
X116713000Y-90026250D01*
X116713000Y-89027000D01*
X116967000Y-89027000D01*
X116967000Y-90026250D01*
X117125750Y-90185000D01*
X117616309Y-90185000D01*
X117849698Y-90088327D01*
X118028327Y-89909699D01*
X118125000Y-89676310D01*
X118125000Y-89185750D01*
X118043429Y-89104179D01*
X118308822Y-89104179D01*
X118465451Y-89483251D01*
X118755223Y-89773529D01*
X119134022Y-89930820D01*
X119544179Y-89931178D01*
X119923251Y-89774549D01*
X120213529Y-89484777D01*
X120370820Y-89105978D01*
X120371178Y-88695821D01*
X120214549Y-88316749D01*
X119924777Y-88026471D01*
X119545978Y-87869180D01*
X119135821Y-87868822D01*
X118756749Y-88025451D01*
X118466471Y-88315223D01*
X118309180Y-88694022D01*
X118308822Y-89104179D01*
X118043429Y-89104179D01*
X117966250Y-89027000D01*
X116967000Y-89027000D01*
X116713000Y-89027000D01*
X115713750Y-89027000D01*
X115555000Y-89185750D01*
X111528464Y-89185750D01*
X111528464Y-88250000D01*
X111504697Y-88123690D01*
X115555000Y-88123690D01*
X115555000Y-88614250D01*
X115713750Y-88773000D01*
X116713000Y-88773000D01*
X116713000Y-87773750D01*
X116967000Y-87773750D01*
X116967000Y-88773000D01*
X117966250Y-88773000D01*
X118125000Y-88614250D01*
X118125000Y-88123690D01*
X118028327Y-87890301D01*
X117849698Y-87711673D01*
X117616309Y-87615000D01*
X117125750Y-87615000D01*
X116967000Y-87773750D01*
X116713000Y-87773750D01*
X116554250Y-87615000D01*
X116063691Y-87615000D01*
X115830302Y-87711673D01*
X115651673Y-87890301D01*
X115555000Y-88123690D01*
X111504697Y-88123690D01*
X111501897Y-88108810D01*
X111418454Y-87979135D01*
X111291134Y-87892141D01*
X111140000Y-87861536D01*
X109840000Y-87861536D01*
X109698810Y-87888103D01*
X109569135Y-87971546D01*
X109482141Y-88098866D01*
X109451536Y-88250000D01*
X108797917Y-88250000D01*
X108574777Y-88026471D01*
X108195978Y-87869180D01*
X107785821Y-87868822D01*
X107406749Y-88025451D01*
X107116471Y-88315223D01*
X107074043Y-88417400D01*
X103069899Y-88417400D01*
X101586448Y-86933948D01*
X101710249Y-86635801D01*
X101710729Y-86086608D01*
X101501005Y-85579037D01*
X101139600Y-85217000D01*
X103330983Y-85217000D01*
X102970360Y-85576994D01*
X102759751Y-86084199D01*
X102759271Y-86633392D01*
X102968995Y-87140963D01*
X103356994Y-87529640D01*
X103864199Y-87740249D01*
X104413392Y-87740729D01*
X104920963Y-87531005D01*
X105309640Y-87143006D01*
X105520249Y-86635801D01*
X105520729Y-86086608D01*
X105311005Y-85579037D01*
X104949600Y-85217000D01*
X121437400Y-85217000D01*
X121437400Y-96320101D01*
X121244964Y-96512536D01*
X120713500Y-96512536D01*
X120572310Y-96539103D01*
X120442635Y-96622546D01*
X120355641Y-96749866D01*
X120325036Y-96901000D01*
X120325036Y-97409000D01*
X120351603Y-97550190D01*
X120435046Y-97679865D01*
X120562366Y-97766859D01*
X120675288Y-97789726D01*
X120572310Y-97809103D01*
X120442635Y-97892546D01*
X120355641Y-98019866D01*
X120325036Y-98171000D01*
X120325036Y-98679000D01*
X120351603Y-98820190D01*
X120435046Y-98949865D01*
X120562366Y-99036859D01*
X120675288Y-99059726D01*
X120572310Y-99079103D01*
X120442635Y-99162546D01*
X120355641Y-99289866D01*
X120325036Y-99441000D01*
X120325036Y-99949000D01*
X120351603Y-100090190D01*
X120435046Y-100219865D01*
X120562366Y-100306859D01*
X120675288Y-100329726D01*
X120572310Y-100349103D01*
X120442635Y-100432546D01*
X120355641Y-100559866D01*
X120325036Y-100711000D01*
X120325036Y-101219000D01*
X120351603Y-101360190D01*
X120435046Y-101489865D01*
X120562366Y-101576859D01*
X120713500Y-101607464D01*
X121856500Y-101607464D01*
X121997690Y-101580897D01*
X122127365Y-101497454D01*
X122161429Y-101447600D01*
X122555000Y-101447600D01*
X122739683Y-101410864D01*
X122896250Y-101306250D01*
X123191498Y-101011002D01*
X123324865Y-101011118D01*
X123575252Y-100907661D01*
X123766987Y-100716259D01*
X123870882Y-100466054D01*
X123871118Y-100195135D01*
X123863873Y-100177600D01*
X124349643Y-100177600D01*
X124349271Y-100603392D01*
X124558995Y-101110963D01*
X124946994Y-101499640D01*
X125454199Y-101710249D01*
X126003392Y-101710729D01*
X126510963Y-101501005D01*
X126899640Y-101113006D01*
X127110249Y-100605801D01*
X127110729Y-100056608D01*
X126901005Y-99549037D01*
X126513006Y-99160360D01*
X126005801Y-98949751D01*
X125456608Y-98949271D01*
X124949037Y-99158995D01*
X124895539Y-99212400D01*
X122162151Y-99212400D01*
X122134954Y-99170135D01*
X122007634Y-99083141D01*
X121894712Y-99060274D01*
X121997690Y-99040897D01*
X122127365Y-98957454D01*
X122161429Y-98907600D01*
X122555000Y-98907600D01*
X122739683Y-98870864D01*
X122896250Y-98766250D01*
X123191498Y-98471002D01*
X123324865Y-98471118D01*
X123575252Y-98367661D01*
X123766987Y-98176259D01*
X123870882Y-97926054D01*
X123871118Y-97655135D01*
X123767661Y-97404748D01*
X123576259Y-97213013D01*
X123326054Y-97109118D01*
X123055135Y-97108882D01*
X122804748Y-97212339D01*
X122613013Y-97403741D01*
X122509118Y-97653946D01*
X122509001Y-97788500D01*
X122355100Y-97942400D01*
X122162151Y-97942400D01*
X122134954Y-97900135D01*
X122007634Y-97813141D01*
X121894712Y-97790274D01*
X121997690Y-97770897D01*
X122127365Y-97687454D01*
X122214359Y-97560134D01*
X122244964Y-97409000D01*
X122244964Y-96901000D01*
X122241248Y-96881251D01*
X122261247Y-96861252D01*
X122261250Y-96861250D01*
X122365864Y-96704683D01*
X122380693Y-96630135D01*
X122402601Y-96520000D01*
X122402600Y-96519995D01*
X122402600Y-91322163D01*
X124757443Y-91322163D01*
X124856042Y-91588965D01*
X125465582Y-91815401D01*
X126115377Y-91791341D01*
X126603958Y-91588965D01*
X126702557Y-91322163D01*
X125730000Y-90349605D01*
X124757443Y-91322163D01*
X122402600Y-91322163D01*
X122402600Y-89905582D01*
X124084599Y-89905582D01*
X124108659Y-90555377D01*
X124311035Y-91043958D01*
X124577837Y-91142557D01*
X125550395Y-90170000D01*
X125909605Y-90170000D01*
X126882163Y-91142557D01*
X127148965Y-91043958D01*
X127375401Y-90434418D01*
X127351341Y-89784623D01*
X127148965Y-89296042D01*
X126882163Y-89197443D01*
X125909605Y-90170000D01*
X125550395Y-90170000D01*
X124577837Y-89197443D01*
X124311035Y-89296042D01*
X124084599Y-89905582D01*
X122402600Y-89905582D01*
X122402600Y-89017837D01*
X124757443Y-89017837D01*
X125730000Y-89990395D01*
X126702557Y-89017837D01*
X126603958Y-88751035D01*
X125994418Y-88524599D01*
X125344623Y-88548659D01*
X124856042Y-88751035D01*
X124757443Y-89017837D01*
X122402600Y-89017837D01*
X122402600Y-85217000D01*
X176403000Y-85217000D01*
X176403000Y-102743000D01*
X80137000Y-102743000D01*
X80137000Y-101764179D01*
X91678822Y-101764179D01*
X91835451Y-102143251D01*
X92125223Y-102433529D01*
X92504022Y-102590820D01*
X92914179Y-102591178D01*
X93293251Y-102434549D01*
X93583529Y-102144777D01*
X93740820Y-101765978D01*
X93740821Y-101764179D01*
X95488822Y-101764179D01*
X95645451Y-102143251D01*
X95935223Y-102433529D01*
X96314022Y-102590820D01*
X96724179Y-102591178D01*
X97103251Y-102434549D01*
X97393529Y-102144777D01*
X97550820Y-101765978D01*
X97551178Y-101355821D01*
X97394549Y-100976749D01*
X97104777Y-100686471D01*
X96725978Y-100529180D01*
X96315821Y-100528822D01*
X95936749Y-100685451D01*
X95646471Y-100975223D01*
X95489180Y-101354022D01*
X95488822Y-101764179D01*
X93740821Y-101764179D01*
X93741178Y-101355821D01*
X93584549Y-100976749D01*
X93294777Y-100686471D01*
X92915978Y-100529180D01*
X92505821Y-100528822D01*
X92126749Y-100685451D01*
X91836471Y-100975223D01*
X91679180Y-101354022D01*
X91678822Y-101764179D01*
X80137000Y-101764179D01*
X80137000Y-93980000D01*
X82551017Y-93980000D01*
X82645757Y-94456288D01*
X82915552Y-94860065D01*
X83319329Y-95129860D01*
X83795617Y-95224600D01*
X83844383Y-95224600D01*
X84320671Y-95129860D01*
X84724448Y-94860065D01*
X84994243Y-94456288D01*
X85088983Y-93980000D01*
X85091017Y-93980000D01*
X85185757Y-94456288D01*
X85455552Y-94860065D01*
X85859329Y-95129860D01*
X85877400Y-95133455D01*
X85877400Y-98579518D01*
X85783013Y-98673741D01*
X85679118Y-98923946D01*
X85678882Y-99194865D01*
X85782339Y-99445252D01*
X85973741Y-99636987D01*
X86223946Y-99740882D01*
X86494865Y-99741118D01*
X86745252Y-99637661D01*
X86936987Y-99446259D01*
X87040882Y-99196054D01*
X87041118Y-98925135D01*
X86937661Y-98674748D01*
X86842600Y-98579522D01*
X86842600Y-98410000D01*
X91671536Y-98410000D01*
X91671536Y-99710000D01*
X91698103Y-99851190D01*
X91781546Y-99980865D01*
X91908866Y-100067859D01*
X92060000Y-100098464D01*
X93360000Y-100098464D01*
X93501190Y-100071897D01*
X93630865Y-99988454D01*
X93717859Y-99861134D01*
X93748464Y-99710000D01*
X93748464Y-98410000D01*
X95481536Y-98410000D01*
X95481536Y-99710000D01*
X95508103Y-99851190D01*
X95591546Y-99980865D01*
X95718866Y-100067859D01*
X95870000Y-100098464D01*
X97170000Y-100098464D01*
X97311190Y-100071897D01*
X97440865Y-99988454D01*
X97527859Y-99861134D01*
X97558464Y-99710000D01*
X97558464Y-98410000D01*
X97531897Y-98268810D01*
X97448454Y-98139135D01*
X97321134Y-98052141D01*
X97170000Y-98021536D01*
X95870000Y-98021536D01*
X95728810Y-98048103D01*
X95599135Y-98131546D01*
X95512141Y-98258866D01*
X95481536Y-98410000D01*
X93748464Y-98410000D01*
X93721897Y-98268810D01*
X93638454Y-98139135D01*
X93511134Y-98052141D01*
X93360000Y-98021536D01*
X92060000Y-98021536D01*
X91918810Y-98048103D01*
X91789135Y-98131546D01*
X91702141Y-98258866D01*
X91671536Y-98410000D01*
X86842600Y-98410000D01*
X86842600Y-96793392D01*
X91329271Y-96793392D01*
X91538995Y-97300963D01*
X91926994Y-97689640D01*
X92434199Y-97900249D01*
X92983392Y-97900729D01*
X93490963Y-97691005D01*
X93879640Y-97303006D01*
X94090249Y-96795801D01*
X94090251Y-96793392D01*
X95139271Y-96793392D01*
X95348995Y-97300963D01*
X95736994Y-97689640D01*
X96244199Y-97900249D01*
X96793392Y-97900729D01*
X97300963Y-97691005D01*
X97689640Y-97303006D01*
X97900249Y-96795801D01*
X97900251Y-96793392D01*
X98949271Y-96793392D01*
X99158995Y-97300963D01*
X99546994Y-97689640D01*
X100054199Y-97900249D01*
X100603392Y-97900729D01*
X101110963Y-97691005D01*
X101499640Y-97303006D01*
X101710249Y-96795801D01*
X101710251Y-96793392D01*
X102759271Y-96793392D01*
X102968995Y-97300963D01*
X103356994Y-97689640D01*
X103864199Y-97900249D01*
X104413392Y-97900729D01*
X104920963Y-97691005D01*
X105309640Y-97303006D01*
X105520249Y-96795801D01*
X105520729Y-96246608D01*
X105311005Y-95739037D01*
X105026644Y-95454179D01*
X106958822Y-95454179D01*
X107115451Y-95833251D01*
X107405223Y-96123529D01*
X107784022Y-96280820D01*
X108194179Y-96281178D01*
X108573251Y-96124549D01*
X108863529Y-95834777D01*
X109020820Y-95455978D01*
X109021178Y-95045821D01*
X108864549Y-94666749D01*
X108797917Y-94600000D01*
X109451536Y-94600000D01*
X109451536Y-95900000D01*
X109478103Y-96041190D01*
X109561546Y-96170865D01*
X109688866Y-96257859D01*
X109840000Y-96288464D01*
X110007400Y-96288464D01*
X110007400Y-97790000D01*
X110044136Y-97974683D01*
X110148750Y-98131250D01*
X113323750Y-101306250D01*
X113480317Y-101410864D01*
X113665000Y-101447600D01*
X114057849Y-101447600D01*
X114085046Y-101489865D01*
X114212366Y-101576859D01*
X114363500Y-101607464D01*
X115506500Y-101607464D01*
X115647690Y-101580897D01*
X115777365Y-101497454D01*
X115864359Y-101370134D01*
X115894964Y-101219000D01*
X115894964Y-100711000D01*
X115868397Y-100569810D01*
X115826028Y-100503966D01*
X115866199Y-100487327D01*
X116044827Y-100308698D01*
X116141500Y-100075309D01*
X116141500Y-99980750D01*
X115982750Y-99822000D01*
X115062000Y-99822000D01*
X115062000Y-99842000D01*
X114808000Y-99842000D01*
X114808000Y-99822000D01*
X113887250Y-99822000D01*
X113728500Y-99980750D01*
X113728500Y-100075309D01*
X113825173Y-100308698D01*
X113998874Y-100482400D01*
X113864900Y-100482400D01*
X110972600Y-97590100D01*
X110972600Y-96288464D01*
X111140000Y-96288464D01*
X111281190Y-96261897D01*
X111410865Y-96178454D01*
X111497859Y-96051134D01*
X111528464Y-95900000D01*
X111528464Y-94600000D01*
X111501897Y-94458810D01*
X111418454Y-94329135D01*
X111291134Y-94242141D01*
X111140000Y-94211536D01*
X109840000Y-94211536D01*
X109698810Y-94238103D01*
X109569135Y-94321546D01*
X109482141Y-94448866D01*
X109451536Y-94600000D01*
X108797917Y-94600000D01*
X108574777Y-94376471D01*
X108195978Y-94219180D01*
X107785821Y-94218822D01*
X107406749Y-94375451D01*
X107116471Y-94665223D01*
X106959180Y-95044022D01*
X106958822Y-95454179D01*
X105026644Y-95454179D01*
X104923006Y-95350360D01*
X104415801Y-95139751D01*
X103866608Y-95139271D01*
X103359037Y-95348995D01*
X102970360Y-95736994D01*
X102759751Y-96244199D01*
X102759271Y-96793392D01*
X101710251Y-96793392D01*
X101710729Y-96246608D01*
X101501005Y-95739037D01*
X101113006Y-95350360D01*
X100605801Y-95139751D01*
X100056608Y-95139271D01*
X99549037Y-95348995D01*
X99160360Y-95736994D01*
X98949751Y-96244199D01*
X98949271Y-96793392D01*
X97900251Y-96793392D01*
X97900729Y-96246608D01*
X97691005Y-95739037D01*
X97303006Y-95350360D01*
X96795801Y-95139751D01*
X96246608Y-95139271D01*
X95739037Y-95348995D01*
X95350360Y-95736994D01*
X95139751Y-96244199D01*
X95139271Y-96793392D01*
X94090251Y-96793392D01*
X94090729Y-96246608D01*
X93881005Y-95739037D01*
X93493006Y-95350360D01*
X92985801Y-95139751D01*
X92436608Y-95139271D01*
X91929037Y-95348995D01*
X91540360Y-95736994D01*
X91329751Y-96244199D01*
X91329271Y-96793392D01*
X86842600Y-96793392D01*
X86842600Y-95133455D01*
X86860671Y-95129860D01*
X87264448Y-94860065D01*
X87534243Y-94456288D01*
X87628983Y-93980000D01*
X87534243Y-93503712D01*
X87264448Y-93099935D01*
X86860671Y-92830140D01*
X86384383Y-92735400D01*
X86335617Y-92735400D01*
X85859329Y-92830140D01*
X85455552Y-93099935D01*
X85185757Y-93503712D01*
X85091017Y-93980000D01*
X85088983Y-93980000D01*
X84994243Y-93503712D01*
X84724448Y-93099935D01*
X84320671Y-92830140D01*
X83844383Y-92735400D01*
X83795617Y-92735400D01*
X83319329Y-92830140D01*
X82915552Y-93099935D01*
X82645757Y-93503712D01*
X82551017Y-93980000D01*
X80137000Y-93980000D01*
X80137000Y-91440000D01*
X82551017Y-91440000D01*
X82645757Y-91916288D01*
X82915552Y-92320065D01*
X83319329Y-92589860D01*
X83795617Y-92684600D01*
X83844383Y-92684600D01*
X84320671Y-92589860D01*
X84724448Y-92320065D01*
X84994243Y-91916288D01*
X85088983Y-91440000D01*
X85091017Y-91440000D01*
X85185757Y-91916288D01*
X85455552Y-92320065D01*
X85859329Y-92589860D01*
X86335617Y-92684600D01*
X86384383Y-92684600D01*
X86860671Y-92589860D01*
X87264448Y-92320065D01*
X87534243Y-91916288D01*
X87628983Y-91440000D01*
X87534243Y-90963712D01*
X87264448Y-90559935D01*
X86860671Y-90290140D01*
X86384383Y-90195400D01*
X86335617Y-90195400D01*
X85859329Y-90290140D01*
X85455552Y-90559935D01*
X85185757Y-90963712D01*
X85091017Y-91440000D01*
X85088983Y-91440000D01*
X84994243Y-90963712D01*
X84724448Y-90559935D01*
X84320671Y-90290140D01*
X83844383Y-90195400D01*
X83795617Y-90195400D01*
X83319329Y-90290140D01*
X82915552Y-90559935D01*
X82645757Y-90963712D01*
X82551017Y-91440000D01*
X80137000Y-91440000D01*
X80137000Y-88900000D01*
X82551017Y-88900000D01*
X82645757Y-89376288D01*
X82915552Y-89780065D01*
X83319329Y-90049860D01*
X83795617Y-90144600D01*
X83844383Y-90144600D01*
X84320671Y-90049860D01*
X84724448Y-89780065D01*
X84994243Y-89376288D01*
X85088983Y-88900000D01*
X85091017Y-88900000D01*
X85185757Y-89376288D01*
X85455552Y-89780065D01*
X85859329Y-90049860D01*
X86335617Y-90144600D01*
X86384383Y-90144600D01*
X86860671Y-90049860D01*
X87264448Y-89780065D01*
X87534243Y-89376288D01*
X87628983Y-88900000D01*
X87534243Y-88423712D01*
X87264448Y-88019935D01*
X86860671Y-87750140D01*
X86384383Y-87655400D01*
X86335617Y-87655400D01*
X85859329Y-87750140D01*
X85455552Y-88019935D01*
X85185757Y-88423712D01*
X85091017Y-88900000D01*
X85088983Y-88900000D01*
X84994243Y-88423712D01*
X84724448Y-88019935D01*
X84320671Y-87750140D01*
X83844383Y-87655400D01*
X83795617Y-87655400D01*
X83319329Y-87750140D01*
X82915552Y-88019935D01*
X82645757Y-88423712D01*
X82551017Y-88900000D01*
X80137000Y-88900000D01*
X80137000Y-85217000D01*
X83309062Y-85217000D01*
X82915552Y-85479935D01*
G36*
X111841673Y-56140301D02*
X111745000Y-56373690D01*
X111745000Y-56864250D01*
X111903750Y-57023000D01*
X112903000Y-57023000D01*
X112903000Y-57003000D01*
X113157000Y-57003000D01*
X113157000Y-57023000D01*
X114156250Y-57023000D01*
X114315000Y-56864250D01*
X114315000Y-56373690D01*
X114218327Y-56140301D01*
X114085025Y-56007000D01*
X135763000Y-56007000D01*
X135763000Y-56535320D01*
X135762998Y-56535320D01*
X135762998Y-56700660D01*
X135548725Y-56578007D01*
X135477097Y-56592190D01*
X135000056Y-56851342D01*
X134658501Y-57273323D01*
X134504430Y-57793890D01*
X134504430Y-58293000D01*
X135763000Y-58293000D01*
X135763000Y-58547000D01*
X134504430Y-58547000D01*
X134504430Y-59046110D01*
X134658501Y-59566677D01*
X135000056Y-59988658D01*
X135477097Y-60247810D01*
X135548725Y-60261993D01*
X135762998Y-60139340D01*
X135762998Y-60304680D01*
X135763000Y-60304680D01*
X135763000Y-70637400D01*
X118309900Y-70637400D01*
X117181250Y-69508750D01*
X117024683Y-69404136D01*
X116840000Y-69367400D01*
X116460097Y-69367400D01*
X116684239Y-69031949D01*
X116774137Y-68580000D01*
X116684239Y-68128051D01*
X116428230Y-67744907D01*
X116045086Y-67488898D01*
X115593137Y-67399000D01*
X115546863Y-67399000D01*
X115094914Y-67488898D01*
X114711770Y-67744907D01*
X114455761Y-68128051D01*
X114365863Y-68580000D01*
X114455761Y-69031949D01*
X114679903Y-69367400D01*
X108840097Y-69367400D01*
X109064239Y-69031949D01*
X109154137Y-68580000D01*
X109064239Y-68128051D01*
X108808230Y-67744907D01*
X108425086Y-67488898D01*
X107973137Y-67399000D01*
X107926863Y-67399000D01*
X107474914Y-67488898D01*
X107091770Y-67744907D01*
X106835761Y-68128051D01*
X106745863Y-68580000D01*
X106835761Y-69031949D01*
X107059903Y-69367400D01*
X93190482Y-69367400D01*
X93096259Y-69273013D01*
X92846054Y-69169118D01*
X92575135Y-69168882D01*
X92324748Y-69272339D01*
X92133013Y-69463741D01*
X92029118Y-69713946D01*
X92028882Y-69984865D01*
X92132339Y-70235252D01*
X92323741Y-70426987D01*
X92573946Y-70530882D01*
X92844865Y-70531118D01*
X93095252Y-70427661D01*
X93190478Y-70332600D01*
X107059903Y-70332600D01*
X106835761Y-70668051D01*
X106745863Y-71120000D01*
X106835761Y-71571949D01*
X107091770Y-71955093D01*
X107474914Y-72211102D01*
X107926863Y-72301000D01*
X107973137Y-72301000D01*
X108425086Y-72211102D01*
X108808230Y-71955093D01*
X109064239Y-71571949D01*
X109154137Y-71120000D01*
X109064239Y-70668051D01*
X108840097Y-70332600D01*
X114679903Y-70332600D01*
X114455761Y-70668051D01*
X114365863Y-71120000D01*
X114455761Y-71571949D01*
X114711770Y-71955093D01*
X115094914Y-72211102D01*
X115546863Y-72301000D01*
X115593137Y-72301000D01*
X116045086Y-72211102D01*
X116428230Y-71955093D01*
X116684239Y-71571949D01*
X116774137Y-71120000D01*
X116684239Y-70668051D01*
X116460097Y-70332600D01*
X116640100Y-70332600D01*
X117768750Y-71461250D01*
X117925317Y-71565864D01*
X118110000Y-71602600D01*
X135763000Y-71602600D01*
X135763000Y-79883000D01*
X90297000Y-79883000D01*
X90297000Y-77470000D01*
X90286994Y-77420590D01*
X90258553Y-77378965D01*
X90216159Y-77351685D01*
X90170000Y-77343000D01*
X86870938Y-77343000D01*
X87264448Y-77080065D01*
X87534243Y-76676288D01*
X87564746Y-76522939D01*
X93619037Y-76522939D01*
X93866771Y-77122499D01*
X94325088Y-77581617D01*
X94924215Y-77830396D01*
X95572939Y-77830963D01*
X96172499Y-77583229D01*
X96631617Y-77124912D01*
X96880396Y-76525785D01*
X96880398Y-76522939D01*
X101239037Y-76522939D01*
X101486771Y-77122499D01*
X101945088Y-77581617D01*
X102544215Y-77830396D01*
X103192939Y-77830963D01*
X103792499Y-77583229D01*
X104251617Y-77124912D01*
X104500396Y-76525785D01*
X104500680Y-76200000D01*
X106745863Y-76200000D01*
X106835761Y-76651949D01*
X107091770Y-77035093D01*
X107474914Y-77291102D01*
X107926863Y-77381000D01*
X107973137Y-77381000D01*
X108425086Y-77291102D01*
X108808230Y-77035093D01*
X109064239Y-76651949D01*
X109154137Y-76200000D01*
X114365863Y-76200000D01*
X114455761Y-76651949D01*
X114711770Y-77035093D01*
X115094914Y-77291102D01*
X115546863Y-77381000D01*
X115593137Y-77381000D01*
X116045086Y-77291102D01*
X116428230Y-77035093D01*
X116684239Y-76651949D01*
X116774137Y-76200000D01*
X116684239Y-75748051D01*
X116428230Y-75364907D01*
X116045086Y-75108898D01*
X115593137Y-75019000D01*
X115546863Y-75019000D01*
X115094914Y-75108898D01*
X114711770Y-75364907D01*
X114455761Y-75748051D01*
X114365863Y-76200000D01*
X109154137Y-76200000D01*
X109064239Y-75748051D01*
X108808230Y-75364907D01*
X108425086Y-75108898D01*
X107973137Y-75019000D01*
X107926863Y-75019000D01*
X107474914Y-75108898D01*
X107091770Y-75364907D01*
X106835761Y-75748051D01*
X106745863Y-76200000D01*
X104500680Y-76200000D01*
X104500963Y-75877061D01*
X104253229Y-75277501D01*
X103794912Y-74818383D01*
X103195785Y-74569604D01*
X102547061Y-74569037D01*
X101947501Y-74816771D01*
X101488383Y-75275088D01*
X101239604Y-75874215D01*
X101239037Y-76522939D01*
X96880398Y-76522939D01*
X96880963Y-75877061D01*
X96633229Y-75277501D01*
X96174912Y-74818383D01*
X95575785Y-74569604D01*
X94927061Y-74569037D01*
X94327501Y-74816771D01*
X93868383Y-75275088D01*
X93619604Y-75874215D01*
X93619037Y-76522939D01*
X87564746Y-76522939D01*
X87628983Y-76200000D01*
X87534243Y-75723712D01*
X87264448Y-75319935D01*
X86860671Y-75050140D01*
X86858338Y-75049676D01*
X87248490Y-74866821D01*
X87642688Y-74434947D01*
X87814958Y-74019026D01*
X87693817Y-73787000D01*
X86487000Y-73787000D01*
X86487000Y-73807000D01*
X86233000Y-73807000D01*
X86233000Y-73787000D01*
X86213000Y-73787000D01*
X86213000Y-73660000D01*
X106745863Y-73660000D01*
X106835761Y-74111949D01*
X107091770Y-74495093D01*
X107474914Y-74751102D01*
X107926863Y-74841000D01*
X107973137Y-74841000D01*
X108425086Y-74751102D01*
X108808230Y-74495093D01*
X109064239Y-74111949D01*
X109154137Y-73660000D01*
X114365863Y-73660000D01*
X114455761Y-74111949D01*
X114711770Y-74495093D01*
X115094914Y-74751102D01*
X115546863Y-74841000D01*
X115593137Y-74841000D01*
X116045086Y-74751102D01*
X116428230Y-74495093D01*
X116684239Y-74111949D01*
X116774137Y-73660000D01*
X116684239Y-73208051D01*
X116428230Y-72824907D01*
X116045086Y-72568898D01*
X115593137Y-72479000D01*
X115546863Y-72479000D01*
X115094914Y-72568898D01*
X114711770Y-72824907D01*
X114455761Y-73208051D01*
X114365863Y-73660000D01*
X109154137Y-73660000D01*
X109064239Y-73208051D01*
X108808230Y-72824907D01*
X108425086Y-72568898D01*
X107973137Y-72479000D01*
X107926863Y-72479000D01*
X107474914Y-72568898D01*
X107091770Y-72824907D01*
X106835761Y-73208051D01*
X106745863Y-73660000D01*
X86213000Y-73660000D01*
X86213000Y-73533000D01*
X86233000Y-73533000D01*
X86233000Y-73513000D01*
X86487000Y-73513000D01*
X86487000Y-73533000D01*
X87693817Y-73533000D01*
X87814958Y-73300974D01*
X87642688Y-72885053D01*
X87248490Y-72453179D01*
X86858338Y-72270324D01*
X86860671Y-72269860D01*
X87264448Y-72000065D01*
X87534243Y-71596288D01*
X87628983Y-71120000D01*
X87534243Y-70643712D01*
X87264448Y-70239935D01*
X86860671Y-69970140D01*
X86858338Y-69969676D01*
X87248490Y-69786821D01*
X87642688Y-69354947D01*
X87814958Y-68939026D01*
X87693817Y-68707000D01*
X86487000Y-68707000D01*
X86487000Y-68727000D01*
X86233000Y-68727000D01*
X86233000Y-68707000D01*
X86213000Y-68707000D01*
X86213000Y-68453000D01*
X86233000Y-68453000D01*
X86233000Y-68433000D01*
X86487000Y-68433000D01*
X86487000Y-68453000D01*
X87693817Y-68453000D01*
X87814958Y-68220974D01*
X87642688Y-67805053D01*
X87248490Y-67373179D01*
X86858338Y-67190324D01*
X86860671Y-67189860D01*
X87264448Y-66920065D01*
X87534243Y-66516288D01*
X87628983Y-66040000D01*
X106745863Y-66040000D01*
X106835761Y-66491949D01*
X107091770Y-66875093D01*
X107474914Y-67131102D01*
X107926863Y-67221000D01*
X107973137Y-67221000D01*
X108425086Y-67131102D01*
X108808230Y-66875093D01*
X109064239Y-66491949D01*
X109154137Y-66040000D01*
X114365863Y-66040000D01*
X114455761Y-66491949D01*
X114711770Y-66875093D01*
X115094914Y-67131102D01*
X115546863Y-67221000D01*
X115593137Y-67221000D01*
X116045086Y-67131102D01*
X116428230Y-66875093D01*
X116684239Y-66491949D01*
X116774137Y-66040000D01*
X116684239Y-65588051D01*
X116428230Y-65204907D01*
X116045086Y-64948898D01*
X115593137Y-64859000D01*
X115546863Y-64859000D01*
X115094914Y-64948898D01*
X114711770Y-65204907D01*
X114455761Y-65588051D01*
X114365863Y-66040000D01*
X109154137Y-66040000D01*
X109064239Y-65588051D01*
X108808230Y-65204907D01*
X108425086Y-64948898D01*
X107973137Y-64859000D01*
X107926863Y-64859000D01*
X107474914Y-64948898D01*
X107091770Y-65204907D01*
X106835761Y-65588051D01*
X106745863Y-66040000D01*
X87628983Y-66040000D01*
X87534243Y-65563712D01*
X87264448Y-65159935D01*
X86860671Y-64890140D01*
X86384383Y-64795400D01*
X86335617Y-64795400D01*
X85859329Y-64890140D01*
X85455552Y-65159935D01*
X85185757Y-65563712D01*
X85091017Y-66040000D01*
X85185757Y-66516288D01*
X85455552Y-66920065D01*
X85859329Y-67189860D01*
X85861662Y-67190324D01*
X85471510Y-67373179D01*
X85077312Y-67805053D01*
X84969159Y-68066172D01*
X84724448Y-67699935D01*
X84320671Y-67430140D01*
X83844383Y-67335400D01*
X83795617Y-67335400D01*
X83319329Y-67430140D01*
X82915552Y-67699935D01*
X82645757Y-68103712D01*
X82551017Y-68580000D01*
X82645757Y-69056288D01*
X82915552Y-69460065D01*
X83319329Y-69729860D01*
X83795617Y-69824600D01*
X83844383Y-69824600D01*
X84320671Y-69729860D01*
X84724448Y-69460065D01*
X84969159Y-69093828D01*
X85077312Y-69354947D01*
X85471510Y-69786821D01*
X85861662Y-69969676D01*
X85859329Y-69970140D01*
X85455552Y-70239935D01*
X85185757Y-70643712D01*
X85091017Y-71120000D01*
X85185757Y-71596288D01*
X85455552Y-72000065D01*
X85859329Y-72269860D01*
X85861662Y-72270324D01*
X85471510Y-72453179D01*
X85077312Y-72885053D01*
X84969159Y-73146172D01*
X84724448Y-72779935D01*
X84320671Y-72510140D01*
X83844383Y-72415400D01*
X83795617Y-72415400D01*
X83319329Y-72510140D01*
X82915552Y-72779935D01*
X82645757Y-73183712D01*
X82551017Y-73660000D01*
X82645757Y-74136288D01*
X82915552Y-74540065D01*
X83319329Y-74809860D01*
X83795617Y-74904600D01*
X83844383Y-74904600D01*
X84320671Y-74809860D01*
X84724448Y-74540065D01*
X84969159Y-74173828D01*
X85077312Y-74434947D01*
X85471510Y-74866821D01*
X85861662Y-75049676D01*
X85859329Y-75050140D01*
X85455552Y-75319935D01*
X85185757Y-75723712D01*
X85091017Y-76200000D01*
X85185757Y-76676288D01*
X85455552Y-77080065D01*
X85849062Y-77343000D01*
X84330938Y-77343000D01*
X84724448Y-77080065D01*
X84994243Y-76676288D01*
X85088983Y-76200000D01*
X84994243Y-75723712D01*
X84724448Y-75319935D01*
X84320671Y-75050140D01*
X83844383Y-74955400D01*
X83795617Y-74955400D01*
X83319329Y-75050140D01*
X82915552Y-75319935D01*
X82645757Y-75723712D01*
X82551017Y-76200000D01*
X82645757Y-76676288D01*
X82915552Y-77080065D01*
X83309062Y-77343000D01*
X80137000Y-77343000D01*
X80137000Y-71120000D01*
X82551017Y-71120000D01*
X82645757Y-71596288D01*
X82915552Y-72000065D01*
X83319329Y-72269860D01*
X83795617Y-72364600D01*
X83844383Y-72364600D01*
X84320671Y-72269860D01*
X84724448Y-72000065D01*
X84994243Y-71596288D01*
X85088983Y-71120000D01*
X84994243Y-70643712D01*
X84724448Y-70239935D01*
X84320671Y-69970140D01*
X83844383Y-69875400D01*
X83795617Y-69875400D01*
X83319329Y-69970140D01*
X82915552Y-70239935D01*
X82645757Y-70643712D01*
X82551017Y-71120000D01*
X80137000Y-71120000D01*
X80137000Y-66040000D01*
X82551017Y-66040000D01*
X82645757Y-66516288D01*
X82915552Y-66920065D01*
X83319329Y-67189860D01*
X83795617Y-67284600D01*
X83844383Y-67284600D01*
X84320671Y-67189860D01*
X84724448Y-66920065D01*
X84994243Y-66516288D01*
X85088983Y-66040000D01*
X84994243Y-65563712D01*
X84724448Y-65159935D01*
X84320671Y-64890140D01*
X83844383Y-64795400D01*
X83795617Y-64795400D01*
X83319329Y-64890140D01*
X82915552Y-65159935D01*
X82645757Y-65563712D01*
X82551017Y-66040000D01*
X80137000Y-66040000D01*
X80137000Y-62636400D01*
X82567936Y-62636400D01*
X82567936Y-64363600D01*
X82594503Y-64504790D01*
X82677946Y-64634465D01*
X82805266Y-64721459D01*
X82956400Y-64752064D01*
X84683600Y-64752064D01*
X84824790Y-64725497D01*
X84954465Y-64642054D01*
X85041459Y-64514734D01*
X85072064Y-64363600D01*
X85072064Y-63500000D01*
X85091017Y-63500000D01*
X85185757Y-63976288D01*
X85455552Y-64380065D01*
X85859329Y-64649860D01*
X86335617Y-64744600D01*
X86384383Y-64744600D01*
X86860671Y-64649860D01*
X87264448Y-64380065D01*
X87534243Y-63976288D01*
X87628983Y-63500000D01*
X106745863Y-63500000D01*
X106835761Y-63951949D01*
X107091770Y-64335093D01*
X107474914Y-64591102D01*
X107926863Y-64681000D01*
X107973137Y-64681000D01*
X108425086Y-64591102D01*
X108808230Y-64335093D01*
X109064239Y-63951949D01*
X109154137Y-63500000D01*
X109064239Y-63048051D01*
X108808230Y-62664907D01*
X108425086Y-62408898D01*
X107973137Y-62319000D01*
X107926863Y-62319000D01*
X107474914Y-62408898D01*
X107091770Y-62664907D01*
X106835761Y-63048051D01*
X106745863Y-63500000D01*
X87628983Y-63500000D01*
X87534243Y-63023712D01*
X87264448Y-62619935D01*
X86860671Y-62350140D01*
X86384383Y-62255400D01*
X86335617Y-62255400D01*
X85859329Y-62350140D01*
X85455552Y-62619935D01*
X85185757Y-63023712D01*
X85091017Y-63500000D01*
X85072064Y-63500000D01*
X85072064Y-62636400D01*
X85045497Y-62495210D01*
X84962054Y-62365535D01*
X84834734Y-62278541D01*
X84683600Y-62247936D01*
X82956400Y-62247936D01*
X82815210Y-62274503D01*
X82685535Y-62357946D01*
X82598541Y-62485266D01*
X82567936Y-62636400D01*
X80137000Y-62636400D01*
X80137000Y-59710320D01*
X93611856Y-59710320D01*
X93611856Y-62209680D01*
X93638423Y-62350870D01*
X93721866Y-62480545D01*
X93849186Y-62567539D01*
X94000320Y-62598144D01*
X96499680Y-62598144D01*
X96640870Y-62571577D01*
X96770545Y-62488134D01*
X96857539Y-62360814D01*
X96871253Y-62293089D01*
X101716517Y-62293089D01*
X101845725Y-62585859D01*
X102545883Y-62854071D01*
X103295384Y-62833928D01*
X103894275Y-62585859D01*
X104023483Y-62293089D01*
X102870000Y-61139605D01*
X101716517Y-62293089D01*
X96871253Y-62293089D01*
X96888144Y-62209680D01*
X96888144Y-60635883D01*
X100975929Y-60635883D01*
X100996072Y-61385384D01*
X101244141Y-61984275D01*
X101536911Y-62113483D01*
X102690395Y-60960000D01*
X103049605Y-60960000D01*
X104203089Y-62113483D01*
X104495859Y-61984275D01*
X104764071Y-61284117D01*
X104755361Y-60960000D01*
X106745863Y-60960000D01*
X106835761Y-61411949D01*
X107091770Y-61795093D01*
X107474914Y-62051102D01*
X107926863Y-62141000D01*
X107973137Y-62141000D01*
X108425086Y-62051102D01*
X108808230Y-61795093D01*
X109064239Y-61411949D01*
X109084709Y-61309039D01*
X114178096Y-61309039D01*
X114338959Y-61697423D01*
X114714866Y-62112389D01*
X115220959Y-62351914D01*
X115442998Y-62230630D01*
X115442998Y-62339660D01*
X115094914Y-62408898D01*
X114711770Y-62664907D01*
X114455761Y-63048051D01*
X114365863Y-63500000D01*
X114455761Y-63951949D01*
X114711770Y-64335093D01*
X115094914Y-64591102D01*
X115546863Y-64681000D01*
X115593137Y-64681000D01*
X116045086Y-64591102D01*
X116428230Y-64335093D01*
X116684239Y-63951949D01*
X116774137Y-63500000D01*
X116684239Y-63048051D01*
X116428230Y-62664907D01*
X116045086Y-62408898D01*
X115697002Y-62339660D01*
X115697002Y-62230630D01*
X115919041Y-62351914D01*
X116425134Y-62112389D01*
X116801041Y-61697423D01*
X116961904Y-61309039D01*
X116839915Y-61087000D01*
X115697000Y-61087000D01*
X115697000Y-61107000D01*
X115443000Y-61107000D01*
X115443000Y-61087000D01*
X114300085Y-61087000D01*
X114178096Y-61309039D01*
X109084709Y-61309039D01*
X109154137Y-60960000D01*
X109084710Y-60610961D01*
X114178096Y-60610961D01*
X114300085Y-60833000D01*
X115443000Y-60833000D01*
X115443000Y-59689371D01*
X115697000Y-59689371D01*
X115697000Y-60833000D01*
X116839915Y-60833000D01*
X116961904Y-60610961D01*
X116801041Y-60222577D01*
X116577447Y-59975750D01*
X120635000Y-59975750D01*
X120635000Y-60466309D01*
X120731673Y-60699698D01*
X120910301Y-60878327D01*
X121143690Y-60975000D01*
X121634250Y-60975000D01*
X121793000Y-60816250D01*
X121793000Y-59817000D01*
X122047000Y-59817000D01*
X122047000Y-60816250D01*
X122205750Y-60975000D01*
X122696310Y-60975000D01*
X122929699Y-60878327D01*
X123108327Y-60699698D01*
X123205000Y-60466309D01*
X123205000Y-59975750D01*
X123046250Y-59817000D01*
X122047000Y-59817000D01*
X121793000Y-59817000D01*
X120793750Y-59817000D01*
X120635000Y-59975750D01*
X116577447Y-59975750D01*
X116425134Y-59807611D01*
X115919041Y-59568086D01*
X115697000Y-59689371D01*
X115443000Y-59689371D01*
X115220959Y-59568086D01*
X114714866Y-59807611D01*
X114338959Y-60222577D01*
X114178096Y-60610961D01*
X109084710Y-60610961D01*
X109064239Y-60508051D01*
X108808230Y-60124907D01*
X108425086Y-59868898D01*
X107973137Y-59779000D01*
X107926863Y-59779000D01*
X107474914Y-59868898D01*
X107091770Y-60124907D01*
X106835761Y-60508051D01*
X106745863Y-60960000D01*
X104755361Y-60960000D01*
X104743928Y-60534616D01*
X104495859Y-59935725D01*
X104203089Y-59806517D01*
X103049605Y-60960000D01*
X102690395Y-60960000D01*
X101536911Y-59806517D01*
X101244141Y-59935725D01*
X100975929Y-60635883D01*
X96888144Y-60635883D01*
X96888144Y-59710320D01*
X96872450Y-59626911D01*
X101716517Y-59626911D01*
X102870000Y-60780395D01*
X104023483Y-59626911D01*
X103894275Y-59334141D01*
X103194117Y-59065929D01*
X102444616Y-59086072D01*
X101845725Y-59334141D01*
X101716517Y-59626911D01*
X96872450Y-59626911D01*
X96861577Y-59569130D01*
X96778134Y-59439455D01*
X96650814Y-59352461D01*
X96499680Y-59321856D01*
X94000320Y-59321856D01*
X93859130Y-59348423D01*
X93729455Y-59431866D01*
X93642461Y-59559186D01*
X93611856Y-59710320D01*
X80137000Y-59710320D01*
X80137000Y-58913691D01*
X120635000Y-58913691D01*
X120635000Y-59404250D01*
X120793750Y-59563000D01*
X121793000Y-59563000D01*
X121793000Y-58563750D01*
X122047000Y-58563750D01*
X122047000Y-59563000D01*
X123046250Y-59563000D01*
X123205000Y-59404250D01*
X123205000Y-58913691D01*
X123108327Y-58680302D01*
X122929699Y-58501673D01*
X122696310Y-58405000D01*
X122205750Y-58405000D01*
X122047000Y-58563750D01*
X121793000Y-58563750D01*
X121634250Y-58405000D01*
X121143690Y-58405000D01*
X120910301Y-58501673D01*
X120731673Y-58680302D01*
X120635000Y-58913691D01*
X80137000Y-58913691D01*
X80137000Y-57354179D01*
X109498822Y-57354179D01*
X109655451Y-57733251D01*
X109945223Y-58023529D01*
X110324022Y-58180820D01*
X110734179Y-58181178D01*
X111113251Y-58024549D01*
X111403529Y-57734777D01*
X111527695Y-57435750D01*
X111745000Y-57435750D01*
X111745000Y-57926310D01*
X111841673Y-58159699D01*
X112020302Y-58338327D01*
X112253691Y-58435000D01*
X112744250Y-58435000D01*
X112903000Y-58276250D01*
X112903000Y-57277000D01*
X113157000Y-57277000D01*
X113157000Y-58276250D01*
X113315750Y-58435000D01*
X113806309Y-58435000D01*
X114039698Y-58338327D01*
X114218327Y-58159699D01*
X114315000Y-57926310D01*
X114315000Y-57435750D01*
X114273429Y-57394179D01*
X120888822Y-57394179D01*
X121045451Y-57773251D01*
X121335223Y-58063529D01*
X121714022Y-58220820D01*
X122124179Y-58221178D01*
X122503251Y-58064549D01*
X122793529Y-57774777D01*
X122950820Y-57395978D01*
X122951178Y-56985821D01*
X122794549Y-56606749D01*
X122504777Y-56316471D01*
X122125978Y-56159180D01*
X121715821Y-56158822D01*
X121336749Y-56315451D01*
X121046471Y-56605223D01*
X120889180Y-56984022D01*
X120888822Y-57394179D01*
X114273429Y-57394179D01*
X114156250Y-57277000D01*
X113157000Y-57277000D01*
X112903000Y-57277000D01*
X111903750Y-57277000D01*
X111745000Y-57435750D01*
X111527695Y-57435750D01*
X111560820Y-57355978D01*
X111561178Y-56945821D01*
X111404549Y-56566749D01*
X111114777Y-56276471D01*
X110735978Y-56119180D01*
X110325821Y-56118822D01*
X109946749Y-56275451D01*
X109656471Y-56565223D01*
X109499180Y-56944022D01*
X109498822Y-57354179D01*
X80137000Y-57354179D01*
X80137000Y-56007000D01*
X111974975Y-56007000D01*
X111841673Y-56140301D01*
X111841673Y-56140301D01*
G37*
X111841673Y-56140301D02*
X111745000Y-56373690D01*
X111745000Y-56864250D01*
X111903750Y-57023000D01*
X112903000Y-57023000D01*
X112903000Y-57003000D01*
X113157000Y-57003000D01*
X113157000Y-57023000D01*
X114156250Y-57023000D01*
X114315000Y-56864250D01*
X114315000Y-56373690D01*
X114218327Y-56140301D01*
X114085025Y-56007000D01*
X135763000Y-56007000D01*
X135763000Y-56535320D01*
X135762998Y-56535320D01*
X135762998Y-56700660D01*
X135548725Y-56578007D01*
X135477097Y-56592190D01*
X135000056Y-56851342D01*
X134658501Y-57273323D01*
X134504430Y-57793890D01*
X134504430Y-58293000D01*
X135763000Y-58293000D01*
X135763000Y-58547000D01*
X134504430Y-58547000D01*
X134504430Y-59046110D01*
X134658501Y-59566677D01*
X135000056Y-59988658D01*
X135477097Y-60247810D01*
X135548725Y-60261993D01*
X135762998Y-60139340D01*
X135762998Y-60304680D01*
X135763000Y-60304680D01*
X135763000Y-70637400D01*
X118309900Y-70637400D01*
X117181250Y-69508750D01*
X117024683Y-69404136D01*
X116840000Y-69367400D01*
X116460097Y-69367400D01*
X116684239Y-69031949D01*
X116774137Y-68580000D01*
X116684239Y-68128051D01*
X116428230Y-67744907D01*
X116045086Y-67488898D01*
X115593137Y-67399000D01*
X115546863Y-67399000D01*
X115094914Y-67488898D01*
X114711770Y-67744907D01*
X114455761Y-68128051D01*
X114365863Y-68580000D01*
X114455761Y-69031949D01*
X114679903Y-69367400D01*
X108840097Y-69367400D01*
X109064239Y-69031949D01*
X109154137Y-68580000D01*
X109064239Y-68128051D01*
X108808230Y-67744907D01*
X108425086Y-67488898D01*
X107973137Y-67399000D01*
X107926863Y-67399000D01*
X107474914Y-67488898D01*
X107091770Y-67744907D01*
X106835761Y-68128051D01*
X106745863Y-68580000D01*
X106835761Y-69031949D01*
X107059903Y-69367400D01*
X93190482Y-69367400D01*
X93096259Y-69273013D01*
X92846054Y-69169118D01*
X92575135Y-69168882D01*
X92324748Y-69272339D01*
X92133013Y-69463741D01*
X92029118Y-69713946D01*
X92028882Y-69984865D01*
X92132339Y-70235252D01*
X92323741Y-70426987D01*
X92573946Y-70530882D01*
X92844865Y-70531118D01*
X93095252Y-70427661D01*
X93190478Y-70332600D01*
X107059903Y-70332600D01*
X106835761Y-70668051D01*
X106745863Y-71120000D01*
X106835761Y-71571949D01*
X107091770Y-71955093D01*
X107474914Y-72211102D01*
X107926863Y-72301000D01*
X107973137Y-72301000D01*
X108425086Y-72211102D01*
X108808230Y-71955093D01*
X109064239Y-71571949D01*
X109154137Y-71120000D01*
X109064239Y-70668051D01*
X108840097Y-70332600D01*
X114679903Y-70332600D01*
X114455761Y-70668051D01*
X114365863Y-71120000D01*
X114455761Y-71571949D01*
X114711770Y-71955093D01*
X115094914Y-72211102D01*
X115546863Y-72301000D01*
X115593137Y-72301000D01*
X116045086Y-72211102D01*
X116428230Y-71955093D01*
X116684239Y-71571949D01*
X116774137Y-71120000D01*
X116684239Y-70668051D01*
X116460097Y-70332600D01*
X116640100Y-70332600D01*
X117768750Y-71461250D01*
X117925317Y-71565864D01*
X118110000Y-71602600D01*
X135763000Y-71602600D01*
X135763000Y-79883000D01*
X90297000Y-79883000D01*
X90297000Y-77470000D01*
X90286994Y-77420590D01*
X90258553Y-77378965D01*
X90216159Y-77351685D01*
X90170000Y-77343000D01*
X86870938Y-77343000D01*
X87264448Y-77080065D01*
X87534243Y-76676288D01*
X87564746Y-76522939D01*
X93619037Y-76522939D01*
X93866771Y-77122499D01*
X94325088Y-77581617D01*
X94924215Y-77830396D01*
X95572939Y-77830963D01*
X96172499Y-77583229D01*
X96631617Y-77124912D01*
X96880396Y-76525785D01*
X96880398Y-76522939D01*
X101239037Y-76522939D01*
X101486771Y-77122499D01*
X101945088Y-77581617D01*
X102544215Y-77830396D01*
X103192939Y-77830963D01*
X103792499Y-77583229D01*
X104251617Y-77124912D01*
X104500396Y-76525785D01*
X104500680Y-76200000D01*
X106745863Y-76200000D01*
X106835761Y-76651949D01*
X107091770Y-77035093D01*
X107474914Y-77291102D01*
X107926863Y-77381000D01*
X107973137Y-77381000D01*
X108425086Y-77291102D01*
X108808230Y-77035093D01*
X109064239Y-76651949D01*
X109154137Y-76200000D01*
X114365863Y-76200000D01*
X114455761Y-76651949D01*
X114711770Y-77035093D01*
X115094914Y-77291102D01*
X115546863Y-77381000D01*
X115593137Y-77381000D01*
X116045086Y-77291102D01*
X116428230Y-77035093D01*
X116684239Y-76651949D01*
X116774137Y-76200000D01*
X116684239Y-75748051D01*
X116428230Y-75364907D01*
X116045086Y-75108898D01*
X115593137Y-75019000D01*
X115546863Y-75019000D01*
X115094914Y-75108898D01*
X114711770Y-75364907D01*
X114455761Y-75748051D01*
X114365863Y-76200000D01*
X109154137Y-76200000D01*
X109064239Y-75748051D01*
X108808230Y-75364907D01*
X108425086Y-75108898D01*
X107973137Y-75019000D01*
X107926863Y-75019000D01*
X107474914Y-75108898D01*
X107091770Y-75364907D01*
X106835761Y-75748051D01*
X106745863Y-76200000D01*
X104500680Y-76200000D01*
X104500963Y-75877061D01*
X104253229Y-75277501D01*
X103794912Y-74818383D01*
X103195785Y-74569604D01*
X102547061Y-74569037D01*
X101947501Y-74816771D01*
X101488383Y-75275088D01*
X101239604Y-75874215D01*
X101239037Y-76522939D01*
X96880398Y-76522939D01*
X96880963Y-75877061D01*
X96633229Y-75277501D01*
X96174912Y-74818383D01*
X95575785Y-74569604D01*
X94927061Y-74569037D01*
X94327501Y-74816771D01*
X93868383Y-75275088D01*
X93619604Y-75874215D01*
X93619037Y-76522939D01*
X87564746Y-76522939D01*
X87628983Y-76200000D01*
X87534243Y-75723712D01*
X87264448Y-75319935D01*
X86860671Y-75050140D01*
X86858338Y-75049676D01*
X87248490Y-74866821D01*
X87642688Y-74434947D01*
X87814958Y-74019026D01*
X87693817Y-73787000D01*
X86487000Y-73787000D01*
X86487000Y-73807000D01*
X86233000Y-73807000D01*
X86233000Y-73787000D01*
X86213000Y-73787000D01*
X86213000Y-73660000D01*
X106745863Y-73660000D01*
X106835761Y-74111949D01*
X107091770Y-74495093D01*
X107474914Y-74751102D01*
X107926863Y-74841000D01*
X107973137Y-74841000D01*
X108425086Y-74751102D01*
X108808230Y-74495093D01*
X109064239Y-74111949D01*
X109154137Y-73660000D01*
X114365863Y-73660000D01*
X114455761Y-74111949D01*
X114711770Y-74495093D01*
X115094914Y-74751102D01*
X115546863Y-74841000D01*
X115593137Y-74841000D01*
X116045086Y-74751102D01*
X116428230Y-74495093D01*
X116684239Y-74111949D01*
X116774137Y-73660000D01*
X116684239Y-73208051D01*
X116428230Y-72824907D01*
X116045086Y-72568898D01*
X115593137Y-72479000D01*
X115546863Y-72479000D01*
X115094914Y-72568898D01*
X114711770Y-72824907D01*
X114455761Y-73208051D01*
X114365863Y-73660000D01*
X109154137Y-73660000D01*
X109064239Y-73208051D01*
X108808230Y-72824907D01*
X108425086Y-72568898D01*
X107973137Y-72479000D01*
X107926863Y-72479000D01*
X107474914Y-72568898D01*
X107091770Y-72824907D01*
X106835761Y-73208051D01*
X106745863Y-73660000D01*
X86213000Y-73660000D01*
X86213000Y-73533000D01*
X86233000Y-73533000D01*
X86233000Y-73513000D01*
X86487000Y-73513000D01*
X86487000Y-73533000D01*
X87693817Y-73533000D01*
X87814958Y-73300974D01*
X87642688Y-72885053D01*
X87248490Y-72453179D01*
X86858338Y-72270324D01*
X86860671Y-72269860D01*
X87264448Y-72000065D01*
X87534243Y-71596288D01*
X87628983Y-71120000D01*
X87534243Y-70643712D01*
X87264448Y-70239935D01*
X86860671Y-69970140D01*
X86858338Y-69969676D01*
X87248490Y-69786821D01*
X87642688Y-69354947D01*
X87814958Y-68939026D01*
X87693817Y-68707000D01*
X86487000Y-68707000D01*
X86487000Y-68727000D01*
X86233000Y-68727000D01*
X86233000Y-68707000D01*
X86213000Y-68707000D01*
X86213000Y-68453000D01*
X86233000Y-68453000D01*
X86233000Y-68433000D01*
X86487000Y-68433000D01*
X86487000Y-68453000D01*
X87693817Y-68453000D01*
X87814958Y-68220974D01*
X87642688Y-67805053D01*
X87248490Y-67373179D01*
X86858338Y-67190324D01*
X86860671Y-67189860D01*
X87264448Y-66920065D01*
X87534243Y-66516288D01*
X87628983Y-66040000D01*
X106745863Y-66040000D01*
X106835761Y-66491949D01*
X107091770Y-66875093D01*
X107474914Y-67131102D01*
X107926863Y-67221000D01*
X107973137Y-67221000D01*
X108425086Y-67131102D01*
X108808230Y-66875093D01*
X109064239Y-66491949D01*
X109154137Y-66040000D01*
X114365863Y-66040000D01*
X114455761Y-66491949D01*
X114711770Y-66875093D01*
X115094914Y-67131102D01*
X115546863Y-67221000D01*
X115593137Y-67221000D01*
X116045086Y-67131102D01*
X116428230Y-66875093D01*
X116684239Y-66491949D01*
X116774137Y-66040000D01*
X116684239Y-65588051D01*
X116428230Y-65204907D01*
X116045086Y-64948898D01*
X115593137Y-64859000D01*
X115546863Y-64859000D01*
X115094914Y-64948898D01*
X114711770Y-65204907D01*
X114455761Y-65588051D01*
X114365863Y-66040000D01*
X109154137Y-66040000D01*
X109064239Y-65588051D01*
X108808230Y-65204907D01*
X108425086Y-64948898D01*
X107973137Y-64859000D01*
X107926863Y-64859000D01*
X107474914Y-64948898D01*
X107091770Y-65204907D01*
X106835761Y-65588051D01*
X106745863Y-66040000D01*
X87628983Y-66040000D01*
X87534243Y-65563712D01*
X87264448Y-65159935D01*
X86860671Y-64890140D01*
X86384383Y-64795400D01*
X86335617Y-64795400D01*
X85859329Y-64890140D01*
X85455552Y-65159935D01*
X85185757Y-65563712D01*
X85091017Y-66040000D01*
X85185757Y-66516288D01*
X85455552Y-66920065D01*
X85859329Y-67189860D01*
X85861662Y-67190324D01*
X85471510Y-67373179D01*
X85077312Y-67805053D01*
X84969159Y-68066172D01*
X84724448Y-67699935D01*
X84320671Y-67430140D01*
X83844383Y-67335400D01*
X83795617Y-67335400D01*
X83319329Y-67430140D01*
X82915552Y-67699935D01*
X82645757Y-68103712D01*
X82551017Y-68580000D01*
X82645757Y-69056288D01*
X82915552Y-69460065D01*
X83319329Y-69729860D01*
X83795617Y-69824600D01*
X83844383Y-69824600D01*
X84320671Y-69729860D01*
X84724448Y-69460065D01*
X84969159Y-69093828D01*
X85077312Y-69354947D01*
X85471510Y-69786821D01*
X85861662Y-69969676D01*
X85859329Y-69970140D01*
X85455552Y-70239935D01*
X85185757Y-70643712D01*
X85091017Y-71120000D01*
X85185757Y-71596288D01*
X85455552Y-72000065D01*
X85859329Y-72269860D01*
X85861662Y-72270324D01*
X85471510Y-72453179D01*
X85077312Y-72885053D01*
X84969159Y-73146172D01*
X84724448Y-72779935D01*
X84320671Y-72510140D01*
X83844383Y-72415400D01*
X83795617Y-72415400D01*
X83319329Y-72510140D01*
X82915552Y-72779935D01*
X82645757Y-73183712D01*
X82551017Y-73660000D01*
X82645757Y-74136288D01*
X82915552Y-74540065D01*
X83319329Y-74809860D01*
X83795617Y-74904600D01*
X83844383Y-74904600D01*
X84320671Y-74809860D01*
X84724448Y-74540065D01*
X84969159Y-74173828D01*
X85077312Y-74434947D01*
X85471510Y-74866821D01*
X85861662Y-75049676D01*
X85859329Y-75050140D01*
X85455552Y-75319935D01*
X85185757Y-75723712D01*
X85091017Y-76200000D01*
X85185757Y-76676288D01*
X85455552Y-77080065D01*
X85849062Y-77343000D01*
X84330938Y-77343000D01*
X84724448Y-77080065D01*
X84994243Y-76676288D01*
X85088983Y-76200000D01*
X84994243Y-75723712D01*
X84724448Y-75319935D01*
X84320671Y-75050140D01*
X83844383Y-74955400D01*
X83795617Y-74955400D01*
X83319329Y-75050140D01*
X82915552Y-75319935D01*
X82645757Y-75723712D01*
X82551017Y-76200000D01*
X82645757Y-76676288D01*
X82915552Y-77080065D01*
X83309062Y-77343000D01*
X80137000Y-77343000D01*
X80137000Y-71120000D01*
X82551017Y-71120000D01*
X82645757Y-71596288D01*
X82915552Y-72000065D01*
X83319329Y-72269860D01*
X83795617Y-72364600D01*
X83844383Y-72364600D01*
X84320671Y-72269860D01*
X84724448Y-72000065D01*
X84994243Y-71596288D01*
X85088983Y-71120000D01*
X84994243Y-70643712D01*
X84724448Y-70239935D01*
X84320671Y-69970140D01*
X83844383Y-69875400D01*
X83795617Y-69875400D01*
X83319329Y-69970140D01*
X82915552Y-70239935D01*
X82645757Y-70643712D01*
X82551017Y-71120000D01*
X80137000Y-71120000D01*
X80137000Y-66040000D01*
X82551017Y-66040000D01*
X82645757Y-66516288D01*
X82915552Y-66920065D01*
X83319329Y-67189860D01*
X83795617Y-67284600D01*
X83844383Y-67284600D01*
X84320671Y-67189860D01*
X84724448Y-66920065D01*
X84994243Y-66516288D01*
X85088983Y-66040000D01*
X84994243Y-65563712D01*
X84724448Y-65159935D01*
X84320671Y-64890140D01*
X83844383Y-64795400D01*
X83795617Y-64795400D01*
X83319329Y-64890140D01*
X82915552Y-65159935D01*
X82645757Y-65563712D01*
X82551017Y-66040000D01*
X80137000Y-66040000D01*
X80137000Y-62636400D01*
X82567936Y-62636400D01*
X82567936Y-64363600D01*
X82594503Y-64504790D01*
X82677946Y-64634465D01*
X82805266Y-64721459D01*
X82956400Y-64752064D01*
X84683600Y-64752064D01*
X84824790Y-64725497D01*
X84954465Y-64642054D01*
X85041459Y-64514734D01*
X85072064Y-64363600D01*
X85072064Y-63500000D01*
X85091017Y-63500000D01*
X85185757Y-63976288D01*
X85455552Y-64380065D01*
X85859329Y-64649860D01*
X86335617Y-64744600D01*
X86384383Y-64744600D01*
X86860671Y-64649860D01*
X87264448Y-64380065D01*
X87534243Y-63976288D01*
X87628983Y-63500000D01*
X106745863Y-63500000D01*
X106835761Y-63951949D01*
X107091770Y-64335093D01*
X107474914Y-64591102D01*
X107926863Y-64681000D01*
X107973137Y-64681000D01*
X108425086Y-64591102D01*
X108808230Y-64335093D01*
X109064239Y-63951949D01*
X109154137Y-63500000D01*
X109064239Y-63048051D01*
X108808230Y-62664907D01*
X108425086Y-62408898D01*
X107973137Y-62319000D01*
X107926863Y-62319000D01*
X107474914Y-62408898D01*
X107091770Y-62664907D01*
X106835761Y-63048051D01*
X106745863Y-63500000D01*
X87628983Y-63500000D01*
X87534243Y-63023712D01*
X87264448Y-62619935D01*
X86860671Y-62350140D01*
X86384383Y-62255400D01*
X86335617Y-62255400D01*
X85859329Y-62350140D01*
X85455552Y-62619935D01*
X85185757Y-63023712D01*
X85091017Y-63500000D01*
X85072064Y-63500000D01*
X85072064Y-62636400D01*
X85045497Y-62495210D01*
X84962054Y-62365535D01*
X84834734Y-62278541D01*
X84683600Y-62247936D01*
X82956400Y-62247936D01*
X82815210Y-62274503D01*
X82685535Y-62357946D01*
X82598541Y-62485266D01*
X82567936Y-62636400D01*
X80137000Y-62636400D01*
X80137000Y-59710320D01*
X93611856Y-59710320D01*
X93611856Y-62209680D01*
X93638423Y-62350870D01*
X93721866Y-62480545D01*
X93849186Y-62567539D01*
X94000320Y-62598144D01*
X96499680Y-62598144D01*
X96640870Y-62571577D01*
X96770545Y-62488134D01*
X96857539Y-62360814D01*
X96871253Y-62293089D01*
X101716517Y-62293089D01*
X101845725Y-62585859D01*
X102545883Y-62854071D01*
X103295384Y-62833928D01*
X103894275Y-62585859D01*
X104023483Y-62293089D01*
X102870000Y-61139605D01*
X101716517Y-62293089D01*
X96871253Y-62293089D01*
X96888144Y-62209680D01*
X96888144Y-60635883D01*
X100975929Y-60635883D01*
X100996072Y-61385384D01*
X101244141Y-61984275D01*
X101536911Y-62113483D01*
X102690395Y-60960000D01*
X103049605Y-60960000D01*
X104203089Y-62113483D01*
X104495859Y-61984275D01*
X104764071Y-61284117D01*
X104755361Y-60960000D01*
X106745863Y-60960000D01*
X106835761Y-61411949D01*
X107091770Y-61795093D01*
X107474914Y-62051102D01*
X107926863Y-62141000D01*
X107973137Y-62141000D01*
X108425086Y-62051102D01*
X108808230Y-61795093D01*
X109064239Y-61411949D01*
X109084709Y-61309039D01*
X114178096Y-61309039D01*
X114338959Y-61697423D01*
X114714866Y-62112389D01*
X115220959Y-62351914D01*
X115442998Y-62230630D01*
X115442998Y-62339660D01*
X115094914Y-62408898D01*
X114711770Y-62664907D01*
X114455761Y-63048051D01*
X114365863Y-63500000D01*
X114455761Y-63951949D01*
X114711770Y-64335093D01*
X115094914Y-64591102D01*
X115546863Y-64681000D01*
X115593137Y-64681000D01*
X116045086Y-64591102D01*
X116428230Y-64335093D01*
X116684239Y-63951949D01*
X116774137Y-63500000D01*
X116684239Y-63048051D01*
X116428230Y-62664907D01*
X116045086Y-62408898D01*
X115697002Y-62339660D01*
X115697002Y-62230630D01*
X115919041Y-62351914D01*
X116425134Y-62112389D01*
X116801041Y-61697423D01*
X116961904Y-61309039D01*
X116839915Y-61087000D01*
X115697000Y-61087000D01*
X115697000Y-61107000D01*
X115443000Y-61107000D01*
X115443000Y-61087000D01*
X114300085Y-61087000D01*
X114178096Y-61309039D01*
X109084709Y-61309039D01*
X109154137Y-60960000D01*
X109084710Y-60610961D01*
X114178096Y-60610961D01*
X114300085Y-60833000D01*
X115443000Y-60833000D01*
X115443000Y-59689371D01*
X115697000Y-59689371D01*
X115697000Y-60833000D01*
X116839915Y-60833000D01*
X116961904Y-60610961D01*
X116801041Y-60222577D01*
X116577447Y-59975750D01*
X120635000Y-59975750D01*
X120635000Y-60466309D01*
X120731673Y-60699698D01*
X120910301Y-60878327D01*
X121143690Y-60975000D01*
X121634250Y-60975000D01*
X121793000Y-60816250D01*
X121793000Y-59817000D01*
X122047000Y-59817000D01*
X122047000Y-60816250D01*
X122205750Y-60975000D01*
X122696310Y-60975000D01*
X122929699Y-60878327D01*
X123108327Y-60699698D01*
X123205000Y-60466309D01*
X123205000Y-59975750D01*
X123046250Y-59817000D01*
X122047000Y-59817000D01*
X121793000Y-59817000D01*
X120793750Y-59817000D01*
X120635000Y-59975750D01*
X116577447Y-59975750D01*
X116425134Y-59807611D01*
X115919041Y-59568086D01*
X115697000Y-59689371D01*
X115443000Y-59689371D01*
X115220959Y-59568086D01*
X114714866Y-59807611D01*
X114338959Y-60222577D01*
X114178096Y-60610961D01*
X109084710Y-60610961D01*
X109064239Y-60508051D01*
X108808230Y-60124907D01*
X108425086Y-59868898D01*
X107973137Y-59779000D01*
X107926863Y-59779000D01*
X107474914Y-59868898D01*
X107091770Y-60124907D01*
X106835761Y-60508051D01*
X106745863Y-60960000D01*
X104755361Y-60960000D01*
X104743928Y-60534616D01*
X104495859Y-59935725D01*
X104203089Y-59806517D01*
X103049605Y-60960000D01*
X102690395Y-60960000D01*
X101536911Y-59806517D01*
X101244141Y-59935725D01*
X100975929Y-60635883D01*
X96888144Y-60635883D01*
X96888144Y-59710320D01*
X96872450Y-59626911D01*
X101716517Y-59626911D01*
X102870000Y-60780395D01*
X104023483Y-59626911D01*
X103894275Y-59334141D01*
X103194117Y-59065929D01*
X102444616Y-59086072D01*
X101845725Y-59334141D01*
X101716517Y-59626911D01*
X96872450Y-59626911D01*
X96861577Y-59569130D01*
X96778134Y-59439455D01*
X96650814Y-59352461D01*
X96499680Y-59321856D01*
X94000320Y-59321856D01*
X93859130Y-59348423D01*
X93729455Y-59431866D01*
X93642461Y-59559186D01*
X93611856Y-59710320D01*
X80137000Y-59710320D01*
X80137000Y-58913691D01*
X120635000Y-58913691D01*
X120635000Y-59404250D01*
X120793750Y-59563000D01*
X121793000Y-59563000D01*
X121793000Y-58563750D01*
X122047000Y-58563750D01*
X122047000Y-59563000D01*
X123046250Y-59563000D01*
X123205000Y-59404250D01*
X123205000Y-58913691D01*
X123108327Y-58680302D01*
X122929699Y-58501673D01*
X122696310Y-58405000D01*
X122205750Y-58405000D01*
X122047000Y-58563750D01*
X121793000Y-58563750D01*
X121634250Y-58405000D01*
X121143690Y-58405000D01*
X120910301Y-58501673D01*
X120731673Y-58680302D01*
X120635000Y-58913691D01*
X80137000Y-58913691D01*
X80137000Y-57354179D01*
X109498822Y-57354179D01*
X109655451Y-57733251D01*
X109945223Y-58023529D01*
X110324022Y-58180820D01*
X110734179Y-58181178D01*
X111113251Y-58024549D01*
X111403529Y-57734777D01*
X111527695Y-57435750D01*
X111745000Y-57435750D01*
X111745000Y-57926310D01*
X111841673Y-58159699D01*
X112020302Y-58338327D01*
X112253691Y-58435000D01*
X112744250Y-58435000D01*
X112903000Y-58276250D01*
X112903000Y-57277000D01*
X113157000Y-57277000D01*
X113157000Y-58276250D01*
X113315750Y-58435000D01*
X113806309Y-58435000D01*
X114039698Y-58338327D01*
X114218327Y-58159699D01*
X114315000Y-57926310D01*
X114315000Y-57435750D01*
X114273429Y-57394179D01*
X120888822Y-57394179D01*
X121045451Y-57773251D01*
X121335223Y-58063529D01*
X121714022Y-58220820D01*
X122124179Y-58221178D01*
X122503251Y-58064549D01*
X122793529Y-57774777D01*
X122950820Y-57395978D01*
X122951178Y-56985821D01*
X122794549Y-56606749D01*
X122504777Y-56316471D01*
X122125978Y-56159180D01*
X121715821Y-56158822D01*
X121336749Y-56315451D01*
X121046471Y-56605223D01*
X120889180Y-56984022D01*
X120888822Y-57394179D01*
X114273429Y-57394179D01*
X114156250Y-57277000D01*
X113157000Y-57277000D01*
X112903000Y-57277000D01*
X111903750Y-57277000D01*
X111745000Y-57435750D01*
X111527695Y-57435750D01*
X111560820Y-57355978D01*
X111561178Y-56945821D01*
X111404549Y-56566749D01*
X111114777Y-56276471D01*
X110735978Y-56119180D01*
X110325821Y-56118822D01*
X109946749Y-56275451D01*
X109656471Y-56565223D01*
X109499180Y-56944022D01*
X109498822Y-57354179D01*
X80137000Y-57354179D01*
X80137000Y-56007000D01*
X111974975Y-56007000D01*
X111841673Y-56140301D01*
G36*
X171453554Y-56063162D02*
X171567836Y-56177444D01*
X171301035Y-56276042D01*
X171074599Y-56885582D01*
X171098659Y-57535377D01*
X171301035Y-58023958D01*
X171567837Y-58122557D01*
X172540395Y-57150000D01*
X172526252Y-57135858D01*
X172705858Y-56956252D01*
X172720000Y-56970395D01*
X172734142Y-56956252D01*
X172913748Y-57135858D01*
X172899605Y-57150000D01*
X173872163Y-58122557D01*
X174138965Y-58023958D01*
X174365401Y-57414418D01*
X174341341Y-56764623D01*
X174138965Y-56276042D01*
X173872164Y-56177444D01*
X173986446Y-56063162D01*
X173930284Y-56007000D01*
X176403000Y-56007000D01*
X176403000Y-79883000D01*
X137287000Y-79883000D01*
X137287000Y-77674179D01*
X169188822Y-77674179D01*
X169345451Y-78053251D01*
X169635223Y-78343529D01*
X170014022Y-78500820D01*
X170424179Y-78501178D01*
X170803251Y-78344549D01*
X171093529Y-78054777D01*
X171250820Y-77675978D01*
X171251178Y-77265821D01*
X171094549Y-76886749D01*
X171027917Y-76820000D01*
X171681536Y-76820000D01*
X171681536Y-78120000D01*
X171708103Y-78261190D01*
X171791546Y-78390865D01*
X171918866Y-78477859D01*
X172070000Y-78508464D01*
X173370000Y-78508464D01*
X173511190Y-78481897D01*
X173640865Y-78398454D01*
X173727859Y-78271134D01*
X173758464Y-78120000D01*
X173758464Y-76820000D01*
X173731897Y-76678810D01*
X173648454Y-76549135D01*
X173521134Y-76462141D01*
X173370000Y-76431536D01*
X172070000Y-76431536D01*
X171928810Y-76458103D01*
X171799135Y-76541546D01*
X171712141Y-76668866D01*
X171681536Y-76820000D01*
X171027917Y-76820000D01*
X170804777Y-76596471D01*
X170425978Y-76439180D01*
X170015821Y-76438822D01*
X169636749Y-76595451D01*
X169346471Y-76885223D01*
X169189180Y-77264022D01*
X169188822Y-77674179D01*
X137287000Y-77674179D01*
X137287000Y-71602600D01*
X154200798Y-71602600D01*
X154025378Y-71777714D01*
X153860687Y-72174332D01*
X153860313Y-72603784D01*
X154024311Y-73000689D01*
X154327714Y-73304622D01*
X154724332Y-73469313D01*
X155153784Y-73469687D01*
X155550689Y-73305689D01*
X155854622Y-73002286D01*
X156019313Y-72605668D01*
X156019687Y-72176216D01*
X155855689Y-71779311D01*
X155679286Y-71602600D01*
X156740798Y-71602600D01*
X156565378Y-71777714D01*
X156400687Y-72174332D01*
X156400313Y-72603784D01*
X156564311Y-73000689D01*
X156867714Y-73304622D01*
X157264332Y-73469313D01*
X157693784Y-73469687D01*
X158090689Y-73305689D01*
X158394622Y-73002286D01*
X158559313Y-72605668D01*
X158559687Y-72176216D01*
X158395689Y-71779311D01*
X158219286Y-71602600D01*
X159280798Y-71602600D01*
X159105378Y-71777714D01*
X158940687Y-72174332D01*
X158940313Y-72603784D01*
X159104311Y-73000689D01*
X159407714Y-73304622D01*
X159804332Y-73469313D01*
X160233784Y-73469687D01*
X160630689Y-73305689D01*
X160934622Y-73002286D01*
X161099313Y-72605668D01*
X161099314Y-72603784D01*
X161480313Y-72603784D01*
X161644311Y-73000689D01*
X161947714Y-73304622D01*
X162344332Y-73469313D01*
X162773784Y-73469687D01*
X163170689Y-73305689D01*
X163474622Y-73002286D01*
X163639313Y-72605668D01*
X163639687Y-72176216D01*
X163475689Y-71779311D01*
X163172286Y-71475378D01*
X162775668Y-71310687D01*
X162346216Y-71310313D01*
X161949311Y-71474311D01*
X161645378Y-71777714D01*
X161480687Y-72174332D01*
X161480313Y-72603784D01*
X161099314Y-72603784D01*
X161099687Y-72176216D01*
X160935689Y-71779311D01*
X160759286Y-71602600D01*
X161290000Y-71602600D01*
X161474683Y-71565864D01*
X161631250Y-71461250D01*
X162216336Y-70876164D01*
X162344332Y-70929313D01*
X162773784Y-70929687D01*
X163170689Y-70765689D01*
X163474622Y-70462286D01*
X163639313Y-70065668D01*
X163639314Y-70063784D01*
X164020313Y-70063784D01*
X164184311Y-70460689D01*
X164487714Y-70764622D01*
X164884332Y-70929313D01*
X165313784Y-70929687D01*
X165710689Y-70765689D01*
X166014622Y-70462286D01*
X166179313Y-70065668D01*
X166179357Y-70014179D01*
X167878822Y-70014179D01*
X168035451Y-70393251D01*
X168325223Y-70683529D01*
X168704022Y-70840820D01*
X169114179Y-70841178D01*
X169493251Y-70684549D01*
X169783529Y-70394777D01*
X169940820Y-70015978D01*
X169941178Y-69605821D01*
X169784549Y-69226749D01*
X169494777Y-68936471D01*
X169115978Y-68779180D01*
X168705821Y-68778822D01*
X168326749Y-68935451D01*
X168036471Y-69225223D01*
X167879180Y-69604022D01*
X167878822Y-70014179D01*
X166179357Y-70014179D01*
X166179687Y-69636216D01*
X166015689Y-69239311D01*
X165712286Y-68935378D01*
X165315668Y-68770687D01*
X164886216Y-68770313D01*
X164489311Y-68934311D01*
X164185378Y-69237714D01*
X164020687Y-69634332D01*
X164020313Y-70063784D01*
X163639314Y-70063784D01*
X163639687Y-69636216D01*
X163475689Y-69239311D01*
X163172286Y-68935378D01*
X162775668Y-68770687D01*
X162346216Y-68770313D01*
X161949311Y-68934311D01*
X161645378Y-69237714D01*
X161480687Y-69634332D01*
X161480313Y-70063784D01*
X161533937Y-70193563D01*
X161090100Y-70637400D01*
X160759202Y-70637400D01*
X160934622Y-70462286D01*
X161099313Y-70065668D01*
X161099687Y-69636216D01*
X160935689Y-69239311D01*
X160632286Y-68935378D01*
X160235668Y-68770687D01*
X159806216Y-68770313D01*
X159409311Y-68934311D01*
X159105378Y-69237714D01*
X158940687Y-69634332D01*
X158940313Y-70063784D01*
X159104311Y-70460689D01*
X159280714Y-70637400D01*
X158219202Y-70637400D01*
X158394622Y-70462286D01*
X158559313Y-70065668D01*
X158559687Y-69636216D01*
X158395689Y-69239311D01*
X158092286Y-68935378D01*
X157695668Y-68770687D01*
X157266216Y-68770313D01*
X156869311Y-68934311D01*
X156565378Y-69237714D01*
X156400687Y-69634332D01*
X156400313Y-70063784D01*
X156564311Y-70460689D01*
X156740714Y-70637400D01*
X155679202Y-70637400D01*
X155854622Y-70462286D01*
X156019313Y-70065668D01*
X156019687Y-69636216D01*
X155855689Y-69239311D01*
X155552286Y-68935378D01*
X155155668Y-68770687D01*
X154726216Y-68770313D01*
X154329311Y-68934311D01*
X154025378Y-69237714D01*
X153860687Y-69634332D01*
X153860313Y-70063784D01*
X154024311Y-70460689D01*
X154200714Y-70637400D01*
X153139202Y-70637400D01*
X153314622Y-70462286D01*
X153479313Y-70065668D01*
X153479687Y-69636216D01*
X153315689Y-69239311D01*
X153012286Y-68935378D01*
X152615668Y-68770687D01*
X152186216Y-68770313D01*
X151789311Y-68934311D01*
X151485378Y-69237714D01*
X151320687Y-69634332D01*
X151320313Y-70063784D01*
X151484311Y-70460689D01*
X151660714Y-70637400D01*
X137287000Y-70637400D01*
X137287000Y-67595750D01*
X147305000Y-67595750D01*
X147305000Y-68086309D01*
X147401673Y-68319698D01*
X147580301Y-68498327D01*
X147813690Y-68595000D01*
X148304250Y-68595000D01*
X148463000Y-68436250D01*
X148463000Y-67437000D01*
X148717000Y-67437000D01*
X148717000Y-68436250D01*
X148875750Y-68595000D01*
X149366310Y-68595000D01*
X149599699Y-68498327D01*
X149778327Y-68319698D01*
X149809604Y-68244188D01*
X151645417Y-68244188D01*
X151707071Y-68479800D01*
X152207480Y-68655927D01*
X152737199Y-68627148D01*
X153092929Y-68479800D01*
X153154583Y-68244188D01*
X152400000Y-67489605D01*
X151645417Y-68244188D01*
X149809604Y-68244188D01*
X149875000Y-68086309D01*
X149875000Y-67595750D01*
X149716250Y-67437000D01*
X148717000Y-67437000D01*
X148463000Y-67437000D01*
X147463750Y-67437000D01*
X147305000Y-67595750D01*
X137287000Y-67595750D01*
X137287000Y-67095026D01*
X137420302Y-67228327D01*
X137653691Y-67325000D01*
X138144250Y-67325000D01*
X138303000Y-67166250D01*
X138303000Y-66167000D01*
X138557000Y-66167000D01*
X138557000Y-67166250D01*
X138715750Y-67325000D01*
X139206309Y-67325000D01*
X139439698Y-67228327D01*
X139618327Y-67049699D01*
X139715000Y-66816310D01*
X139715000Y-66325750D01*
X139633429Y-66244179D01*
X139898822Y-66244179D01*
X140055451Y-66623251D01*
X140345223Y-66913529D01*
X140724022Y-67070820D01*
X141134179Y-67071178D01*
X141513251Y-66914549D01*
X141803529Y-66624777D01*
X141841351Y-66533691D01*
X147305000Y-66533691D01*
X147305000Y-67024250D01*
X147463750Y-67183000D01*
X148463000Y-67183000D01*
X148463000Y-66183750D01*
X148717000Y-66183750D01*
X148717000Y-67183000D01*
X149716250Y-67183000D01*
X149781770Y-67117480D01*
X151054073Y-67117480D01*
X151082852Y-67647199D01*
X151230200Y-68002929D01*
X151465812Y-68064583D01*
X152220395Y-67310000D01*
X152579605Y-67310000D01*
X153334188Y-68064583D01*
X153569800Y-68002929D01*
X153738442Y-67523784D01*
X153860313Y-67523784D01*
X154024311Y-67920689D01*
X154327714Y-68224622D01*
X154724332Y-68389313D01*
X155153784Y-68389687D01*
X155550689Y-68225689D01*
X155854622Y-67922286D01*
X156019313Y-67525668D01*
X156019314Y-67523784D01*
X161480313Y-67523784D01*
X161644311Y-67920689D01*
X161947714Y-68224622D01*
X162344332Y-68389313D01*
X162773784Y-68389687D01*
X163125918Y-68244188D01*
X164345417Y-68244188D01*
X164407071Y-68479800D01*
X164907480Y-68655927D01*
X165437199Y-68627148D01*
X165792929Y-68479800D01*
X165854583Y-68244188D01*
X165100000Y-67489605D01*
X164345417Y-68244188D01*
X163125918Y-68244188D01*
X163170689Y-68225689D01*
X163474622Y-67922286D01*
X163639313Y-67525668D01*
X163639668Y-67117480D01*
X163754073Y-67117480D01*
X163782852Y-67647199D01*
X163930200Y-68002929D01*
X164165812Y-68064583D01*
X164920395Y-67310000D01*
X165279605Y-67310000D01*
X166034188Y-68064583D01*
X166269800Y-68002929D01*
X166413113Y-67595750D01*
X167625000Y-67595750D01*
X167625000Y-68086309D01*
X167721673Y-68319698D01*
X167900301Y-68498327D01*
X168133690Y-68595000D01*
X168624250Y-68595000D01*
X168783000Y-68436250D01*
X168783000Y-67437000D01*
X169037000Y-67437000D01*
X169037000Y-68436250D01*
X169195750Y-68595000D01*
X169686310Y-68595000D01*
X169919699Y-68498327D01*
X170098327Y-68319698D01*
X170195000Y-68086309D01*
X170195000Y-67595750D01*
X170182642Y-67583392D01*
X171339271Y-67583392D01*
X171548995Y-68090963D01*
X171936994Y-68479640D01*
X172444199Y-68690249D01*
X172993392Y-68690729D01*
X173500963Y-68481005D01*
X173889640Y-68093006D01*
X174100249Y-67585801D01*
X174100729Y-67036608D01*
X173891005Y-66529037D01*
X173503006Y-66140360D01*
X172995801Y-65929751D01*
X172446608Y-65929271D01*
X171939037Y-66138995D01*
X171550360Y-66526994D01*
X171339751Y-67034199D01*
X171339271Y-67583392D01*
X170182642Y-67583392D01*
X170036250Y-67437000D01*
X169037000Y-67437000D01*
X168783000Y-67437000D01*
X167783750Y-67437000D01*
X167625000Y-67595750D01*
X166413113Y-67595750D01*
X166445927Y-67502520D01*
X166417148Y-66972801D01*
X166269800Y-66617071D01*
X166034188Y-66555417D01*
X165279605Y-67310000D01*
X164920395Y-67310000D01*
X164165812Y-66555417D01*
X163930200Y-66617071D01*
X163754073Y-67117480D01*
X163639668Y-67117480D01*
X163639687Y-67096216D01*
X163475689Y-66699311D01*
X163172286Y-66395378D01*
X163125167Y-66375812D01*
X164345417Y-66375812D01*
X165100000Y-67130395D01*
X165696704Y-66533691D01*
X167625000Y-66533691D01*
X167625000Y-67024250D01*
X167783750Y-67183000D01*
X168783000Y-67183000D01*
X168783000Y-66183750D01*
X169037000Y-66183750D01*
X169037000Y-67183000D01*
X170036250Y-67183000D01*
X170195000Y-67024250D01*
X170195000Y-66533691D01*
X170098327Y-66300302D01*
X169919699Y-66121673D01*
X169686310Y-66025000D01*
X169195750Y-66025000D01*
X169037000Y-66183750D01*
X168783000Y-66183750D01*
X168624250Y-66025000D01*
X168133690Y-66025000D01*
X167900301Y-66121673D01*
X167721673Y-66300302D01*
X167625000Y-66533691D01*
X165696704Y-66533691D01*
X165854583Y-66375812D01*
X165792929Y-66140200D01*
X165292520Y-65964073D01*
X164762801Y-65992852D01*
X164407071Y-66140200D01*
X164345417Y-66375812D01*
X163125167Y-66375812D01*
X162775668Y-66230687D01*
X162346216Y-66230313D01*
X161949311Y-66394311D01*
X161645378Y-66697714D01*
X161480687Y-67094332D01*
X161480313Y-67523784D01*
X156019314Y-67523784D01*
X156019687Y-67096216D01*
X155855689Y-66699311D01*
X155552286Y-66395378D01*
X155155668Y-66230687D01*
X154726216Y-66230313D01*
X154329311Y-66394311D01*
X154025378Y-66697714D01*
X153860687Y-67094332D01*
X153860313Y-67523784D01*
X153738442Y-67523784D01*
X153745927Y-67502520D01*
X153717148Y-66972801D01*
X153569800Y-66617071D01*
X153334188Y-66555417D01*
X152579605Y-67310000D01*
X152220395Y-67310000D01*
X151465812Y-66555417D01*
X151230200Y-66617071D01*
X151054073Y-67117480D01*
X149781770Y-67117480D01*
X149875000Y-67024250D01*
X149875000Y-66533691D01*
X149809605Y-66375812D01*
X151645417Y-66375812D01*
X152400000Y-67130395D01*
X153154583Y-66375812D01*
X153092929Y-66140200D01*
X152592520Y-65964073D01*
X152062801Y-65992852D01*
X151707071Y-66140200D01*
X151645417Y-66375812D01*
X149809605Y-66375812D01*
X149778327Y-66300302D01*
X149599699Y-66121673D01*
X149366310Y-66025000D01*
X148875750Y-66025000D01*
X148717000Y-66183750D01*
X148463000Y-66183750D01*
X148304250Y-66025000D01*
X147813690Y-66025000D01*
X147580301Y-66121673D01*
X147401673Y-66300302D01*
X147305000Y-66533691D01*
X141841351Y-66533691D01*
X141960820Y-66245978D01*
X141961178Y-65835821D01*
X141804549Y-65456749D01*
X141514777Y-65166471D01*
X141148017Y-65014179D01*
X147558822Y-65014179D01*
X147715451Y-65393251D01*
X148005223Y-65683529D01*
X148384022Y-65840820D01*
X148794179Y-65841178D01*
X149173251Y-65684549D01*
X149463529Y-65394777D01*
X149620820Y-65015978D01*
X149620848Y-64983784D01*
X151320313Y-64983784D01*
X151484311Y-65380689D01*
X151787714Y-65684622D01*
X152184332Y-65849313D01*
X152613784Y-65849687D01*
X153010689Y-65685689D01*
X153314622Y-65382286D01*
X153479313Y-64985668D01*
X153479314Y-64983784D01*
X153860313Y-64983784D01*
X154024311Y-65380689D01*
X154327714Y-65684622D01*
X154724332Y-65849313D01*
X155153784Y-65849687D01*
X155550689Y-65685689D01*
X155854622Y-65382286D01*
X156019313Y-64985668D01*
X156019314Y-64983784D01*
X161480313Y-64983784D01*
X161644311Y-65380689D01*
X161947714Y-65684622D01*
X162344332Y-65849313D01*
X162773784Y-65849687D01*
X163170689Y-65685689D01*
X163474622Y-65382286D01*
X163639313Y-64985668D01*
X163639314Y-64983784D01*
X164020313Y-64983784D01*
X164184311Y-65380689D01*
X164487714Y-65684622D01*
X164884332Y-65849313D01*
X165313784Y-65849687D01*
X165710689Y-65685689D01*
X166014622Y-65382286D01*
X166179313Y-64985668D01*
X166179687Y-64556216D01*
X166015689Y-64159311D01*
X165712286Y-63855378D01*
X165315668Y-63690687D01*
X164886216Y-63690313D01*
X164489311Y-63854311D01*
X164185378Y-64157714D01*
X164020687Y-64554332D01*
X164020313Y-64983784D01*
X163639314Y-64983784D01*
X163639687Y-64556216D01*
X163475689Y-64159311D01*
X163172286Y-63855378D01*
X162775668Y-63690687D01*
X162346216Y-63690313D01*
X161949311Y-63854311D01*
X161645378Y-64157714D01*
X161480687Y-64554332D01*
X161480313Y-64983784D01*
X156019314Y-64983784D01*
X156019687Y-64556216D01*
X155855689Y-64159311D01*
X155552286Y-63855378D01*
X155155668Y-63690687D01*
X154726216Y-63690313D01*
X154329311Y-63854311D01*
X154025378Y-64157714D01*
X153860687Y-64554332D01*
X153860313Y-64983784D01*
X153479314Y-64983784D01*
X153479687Y-64556216D01*
X153315689Y-64159311D01*
X153012286Y-63855378D01*
X152615668Y-63690687D01*
X152186216Y-63690313D01*
X151789311Y-63854311D01*
X151485378Y-64157714D01*
X151320687Y-64554332D01*
X151320313Y-64983784D01*
X149620848Y-64983784D01*
X149621178Y-64605821D01*
X149464549Y-64226749D01*
X149174777Y-63936471D01*
X148795978Y-63779180D01*
X148385821Y-63778822D01*
X148006749Y-63935451D01*
X147716471Y-64225223D01*
X147559180Y-64604022D01*
X147558822Y-65014179D01*
X141148017Y-65014179D01*
X141135978Y-65009180D01*
X140725821Y-65008822D01*
X140346749Y-65165451D01*
X140056471Y-65455223D01*
X139899180Y-65834022D01*
X139898822Y-66244179D01*
X139633429Y-66244179D01*
X139556250Y-66167000D01*
X138557000Y-66167000D01*
X138303000Y-66167000D01*
X138283000Y-66167000D01*
X138283000Y-65913000D01*
X138303000Y-65913000D01*
X138303000Y-64913750D01*
X138557000Y-64913750D01*
X138557000Y-65913000D01*
X139556250Y-65913000D01*
X139715000Y-65754250D01*
X139715000Y-65263690D01*
X139618327Y-65030301D01*
X139439698Y-64851673D01*
X139206309Y-64755000D01*
X138715750Y-64755000D01*
X138557000Y-64913750D01*
X138303000Y-64913750D01*
X138144250Y-64755000D01*
X137653691Y-64755000D01*
X137420302Y-64851673D01*
X137287000Y-64984974D01*
X137287000Y-62443784D01*
X151320313Y-62443784D01*
X151484311Y-62840689D01*
X151787714Y-63144622D01*
X152184332Y-63309313D01*
X152613784Y-63309687D01*
X153010689Y-63145689D01*
X153314622Y-62842286D01*
X153479313Y-62445668D01*
X153479314Y-62443784D01*
X153860313Y-62443784D01*
X154024311Y-62840689D01*
X154327714Y-63144622D01*
X154724332Y-63309313D01*
X155153784Y-63309687D01*
X155550689Y-63145689D01*
X155854622Y-62842286D01*
X156019313Y-62445668D01*
X156019314Y-62443784D01*
X156400313Y-62443784D01*
X156564311Y-62840689D01*
X156867714Y-63144622D01*
X157264332Y-63309313D01*
X157693784Y-63309687D01*
X158090689Y-63145689D01*
X158394622Y-62842286D01*
X158559313Y-62445668D01*
X158559687Y-62016216D01*
X158395689Y-61619311D01*
X158308032Y-61531500D01*
X158933036Y-61531500D01*
X158933036Y-62928500D01*
X158959603Y-63069690D01*
X159043046Y-63199365D01*
X159170366Y-63286359D01*
X159321500Y-63316964D01*
X160718500Y-63316964D01*
X160859690Y-63290397D01*
X160989365Y-63206954D01*
X161076359Y-63079634D01*
X161106964Y-62928500D01*
X161106964Y-62443784D01*
X161480313Y-62443784D01*
X161644311Y-62840689D01*
X161947714Y-63144622D01*
X162344332Y-63309313D01*
X162773784Y-63309687D01*
X163170689Y-63145689D01*
X163474622Y-62842286D01*
X163639313Y-62445668D01*
X163639314Y-62443784D01*
X164020313Y-62443784D01*
X164184311Y-62840689D01*
X164487714Y-63144622D01*
X164884332Y-63309313D01*
X165313784Y-63309687D01*
X165710689Y-63145689D01*
X166014622Y-62842286D01*
X166179313Y-62445668D01*
X166179687Y-62016216D01*
X166015689Y-61619311D01*
X165712286Y-61315378D01*
X165315668Y-61150687D01*
X164886216Y-61150313D01*
X164489311Y-61314311D01*
X164185378Y-61617714D01*
X164020687Y-62014332D01*
X164020313Y-62443784D01*
X163639314Y-62443784D01*
X163639687Y-62016216D01*
X163475689Y-61619311D01*
X163172286Y-61315378D01*
X162775668Y-61150687D01*
X162346216Y-61150313D01*
X161949311Y-61314311D01*
X161645378Y-61617714D01*
X161480687Y-62014332D01*
X161480313Y-62443784D01*
X161106964Y-62443784D01*
X161106964Y-61531500D01*
X161080397Y-61390310D01*
X160996954Y-61260635D01*
X160869634Y-61173641D01*
X160718500Y-61143036D01*
X159321500Y-61143036D01*
X159180310Y-61169603D01*
X159050635Y-61253046D01*
X158963641Y-61380366D01*
X158933036Y-61531500D01*
X158308032Y-61531500D01*
X158092286Y-61315378D01*
X157695668Y-61150687D01*
X157266216Y-61150313D01*
X156869311Y-61314311D01*
X156565378Y-61617714D01*
X156400687Y-62014332D01*
X156400313Y-62443784D01*
X156019314Y-62443784D01*
X156019687Y-62016216D01*
X155855689Y-61619311D01*
X155552286Y-61315378D01*
X155155668Y-61150687D01*
X154726216Y-61150313D01*
X154329311Y-61314311D01*
X154025378Y-61617714D01*
X153860687Y-62014332D01*
X153860313Y-62443784D01*
X153479314Y-62443784D01*
X153479687Y-62016216D01*
X153315689Y-61619311D01*
X153012286Y-61315378D01*
X152615668Y-61150687D01*
X152186216Y-61150313D01*
X151789311Y-61314311D01*
X151485378Y-61617714D01*
X151320687Y-62014332D01*
X151320313Y-62443784D01*
X137287000Y-62443784D01*
X137287000Y-59676015D01*
X137540056Y-59988658D01*
X138017097Y-60247810D01*
X138088725Y-60261993D01*
X138303000Y-60139339D01*
X138303000Y-58547000D01*
X138557000Y-58547000D01*
X138557000Y-60139339D01*
X138771275Y-60261993D01*
X138842903Y-60247810D01*
X139319944Y-59988658D01*
X139661499Y-59566677D01*
X139815570Y-59046110D01*
X139815570Y-58547000D01*
X138557000Y-58547000D01*
X138303000Y-58547000D01*
X138283000Y-58547000D01*
X138283000Y-58293000D01*
X138303000Y-58293000D01*
X138303000Y-56700661D01*
X138557000Y-56700661D01*
X138557000Y-58293000D01*
X139815570Y-58293000D01*
X139815570Y-57888943D01*
X139838430Y-57888943D01*
X139838430Y-58951057D01*
X139924566Y-59384090D01*
X140169859Y-59751198D01*
X140536967Y-59996491D01*
X140970000Y-60082627D01*
X141403033Y-59996491D01*
X141541779Y-59903784D01*
X153860313Y-59903784D01*
X154024311Y-60300689D01*
X154327714Y-60604622D01*
X154724332Y-60769313D01*
X155153784Y-60769687D01*
X155550689Y-60605689D01*
X155854622Y-60302286D01*
X156019313Y-59905668D01*
X156019314Y-59903784D01*
X156400313Y-59903784D01*
X156564311Y-60300689D01*
X156867714Y-60604622D01*
X157264332Y-60769313D01*
X157693784Y-60769687D01*
X158090689Y-60605689D01*
X158394622Y-60302286D01*
X158559313Y-59905668D01*
X158559314Y-59903784D01*
X158940313Y-59903784D01*
X159104311Y-60300689D01*
X159407714Y-60604622D01*
X159804332Y-60769313D01*
X160233784Y-60769687D01*
X160630689Y-60605689D01*
X160934622Y-60302286D01*
X161099313Y-59905668D01*
X161099314Y-59903784D01*
X161480313Y-59903784D01*
X161644311Y-60300689D01*
X161947714Y-60604622D01*
X162344332Y-60769313D01*
X162773784Y-60769687D01*
X163170689Y-60605689D01*
X163474622Y-60302286D01*
X163639313Y-59905668D01*
X163639687Y-59476216D01*
X163475689Y-59079311D01*
X163172286Y-58775378D01*
X162775668Y-58610687D01*
X162346216Y-58610313D01*
X161949311Y-58774311D01*
X161645378Y-59077714D01*
X161480687Y-59474332D01*
X161480313Y-59903784D01*
X161099314Y-59903784D01*
X161099687Y-59476216D01*
X160935689Y-59079311D01*
X160632286Y-58775378D01*
X160235668Y-58610687D01*
X159806216Y-58610313D01*
X159409311Y-58774311D01*
X159105378Y-59077714D01*
X158940687Y-59474332D01*
X158940313Y-59903784D01*
X158559314Y-59903784D01*
X158559687Y-59476216D01*
X158395689Y-59079311D01*
X158092286Y-58775378D01*
X157695668Y-58610687D01*
X157266216Y-58610313D01*
X156869311Y-58774311D01*
X156565378Y-59077714D01*
X156400687Y-59474332D01*
X156400313Y-59903784D01*
X156019314Y-59903784D01*
X156019687Y-59476216D01*
X155855689Y-59079311D01*
X155552286Y-58775378D01*
X155155668Y-58610687D01*
X154726216Y-58610313D01*
X154329311Y-58774311D01*
X154025378Y-59077714D01*
X153860687Y-59474332D01*
X153860313Y-59903784D01*
X141541779Y-59903784D01*
X141770141Y-59751198D01*
X142015434Y-59384090D01*
X142101570Y-58951057D01*
X142101570Y-58302163D01*
X171747443Y-58302163D01*
X171846042Y-58568965D01*
X172455582Y-58795401D01*
X173105377Y-58771341D01*
X173593958Y-58568965D01*
X173692557Y-58302163D01*
X172720000Y-57329605D01*
X171747443Y-58302163D01*
X142101570Y-58302163D01*
X142101570Y-57888943D01*
X142015434Y-57455910D01*
X141770141Y-57088802D01*
X141403033Y-56843509D01*
X140970000Y-56757373D01*
X140536967Y-56843509D01*
X140169859Y-57088802D01*
X139924566Y-57455910D01*
X139838430Y-57888943D01*
X139815570Y-57888943D01*
X139815570Y-57793890D01*
X139661499Y-57273323D01*
X139319944Y-56851342D01*
X138842903Y-56592190D01*
X138771275Y-56578007D01*
X138557000Y-56700661D01*
X138303000Y-56700661D01*
X138088725Y-56578007D01*
X138017097Y-56592190D01*
X137540056Y-56851342D01*
X137287000Y-57163985D01*
X137287000Y-56007000D01*
X171509716Y-56007000D01*
X171453554Y-56063162D01*
X171453554Y-56063162D01*
G37*
X171453554Y-56063162D02*
X171567836Y-56177444D01*
X171301035Y-56276042D01*
X171074599Y-56885582D01*
X171098659Y-57535377D01*
X171301035Y-58023958D01*
X171567837Y-58122557D01*
X172540395Y-57150000D01*
X172526252Y-57135858D01*
X172705858Y-56956252D01*
X172720000Y-56970395D01*
X172734142Y-56956252D01*
X172913748Y-57135858D01*
X172899605Y-57150000D01*
X173872163Y-58122557D01*
X174138965Y-58023958D01*
X174365401Y-57414418D01*
X174341341Y-56764623D01*
X174138965Y-56276042D01*
X173872164Y-56177444D01*
X173986446Y-56063162D01*
X173930284Y-56007000D01*
X176403000Y-56007000D01*
X176403000Y-79883000D01*
X137287000Y-79883000D01*
X137287000Y-77674179D01*
X169188822Y-77674179D01*
X169345451Y-78053251D01*
X169635223Y-78343529D01*
X170014022Y-78500820D01*
X170424179Y-78501178D01*
X170803251Y-78344549D01*
X171093529Y-78054777D01*
X171250820Y-77675978D01*
X171251178Y-77265821D01*
X171094549Y-76886749D01*
X171027917Y-76820000D01*
X171681536Y-76820000D01*
X171681536Y-78120000D01*
X171708103Y-78261190D01*
X171791546Y-78390865D01*
X171918866Y-78477859D01*
X172070000Y-78508464D01*
X173370000Y-78508464D01*
X173511190Y-78481897D01*
X173640865Y-78398454D01*
X173727859Y-78271134D01*
X173758464Y-78120000D01*
X173758464Y-76820000D01*
X173731897Y-76678810D01*
X173648454Y-76549135D01*
X173521134Y-76462141D01*
X173370000Y-76431536D01*
X172070000Y-76431536D01*
X171928810Y-76458103D01*
X171799135Y-76541546D01*
X171712141Y-76668866D01*
X171681536Y-76820000D01*
X171027917Y-76820000D01*
X170804777Y-76596471D01*
X170425978Y-76439180D01*
X170015821Y-76438822D01*
X169636749Y-76595451D01*
X169346471Y-76885223D01*
X169189180Y-77264022D01*
X169188822Y-77674179D01*
X137287000Y-77674179D01*
X137287000Y-71602600D01*
X154200798Y-71602600D01*
X154025378Y-71777714D01*
X153860687Y-72174332D01*
X153860313Y-72603784D01*
X154024311Y-73000689D01*
X154327714Y-73304622D01*
X154724332Y-73469313D01*
X155153784Y-73469687D01*
X155550689Y-73305689D01*
X155854622Y-73002286D01*
X156019313Y-72605668D01*
X156019687Y-72176216D01*
X155855689Y-71779311D01*
X155679286Y-71602600D01*
X156740798Y-71602600D01*
X156565378Y-71777714D01*
X156400687Y-72174332D01*
X156400313Y-72603784D01*
X156564311Y-73000689D01*
X156867714Y-73304622D01*
X157264332Y-73469313D01*
X157693784Y-73469687D01*
X158090689Y-73305689D01*
X158394622Y-73002286D01*
X158559313Y-72605668D01*
X158559687Y-72176216D01*
X158395689Y-71779311D01*
X158219286Y-71602600D01*
X159280798Y-71602600D01*
X159105378Y-71777714D01*
X158940687Y-72174332D01*
X158940313Y-72603784D01*
X159104311Y-73000689D01*
X159407714Y-73304622D01*
X159804332Y-73469313D01*
X160233784Y-73469687D01*
X160630689Y-73305689D01*
X160934622Y-73002286D01*
X161099313Y-72605668D01*
X161099314Y-72603784D01*
X161480313Y-72603784D01*
X161644311Y-73000689D01*
X161947714Y-73304622D01*
X162344332Y-73469313D01*
X162773784Y-73469687D01*
X163170689Y-73305689D01*
X163474622Y-73002286D01*
X163639313Y-72605668D01*
X163639687Y-72176216D01*
X163475689Y-71779311D01*
X163172286Y-71475378D01*
X162775668Y-71310687D01*
X162346216Y-71310313D01*
X161949311Y-71474311D01*
X161645378Y-71777714D01*
X161480687Y-72174332D01*
X161480313Y-72603784D01*
X161099314Y-72603784D01*
X161099687Y-72176216D01*
X160935689Y-71779311D01*
X160759286Y-71602600D01*
X161290000Y-71602600D01*
X161474683Y-71565864D01*
X161631250Y-71461250D01*
X162216336Y-70876164D01*
X162344332Y-70929313D01*
X162773784Y-70929687D01*
X163170689Y-70765689D01*
X163474622Y-70462286D01*
X163639313Y-70065668D01*
X163639314Y-70063784D01*
X164020313Y-70063784D01*
X164184311Y-70460689D01*
X164487714Y-70764622D01*
X164884332Y-70929313D01*
X165313784Y-70929687D01*
X165710689Y-70765689D01*
X166014622Y-70462286D01*
X166179313Y-70065668D01*
X166179357Y-70014179D01*
X167878822Y-70014179D01*
X168035451Y-70393251D01*
X168325223Y-70683529D01*
X168704022Y-70840820D01*
X169114179Y-70841178D01*
X169493251Y-70684549D01*
X169783529Y-70394777D01*
X169940820Y-70015978D01*
X169941178Y-69605821D01*
X169784549Y-69226749D01*
X169494777Y-68936471D01*
X169115978Y-68779180D01*
X168705821Y-68778822D01*
X168326749Y-68935451D01*
X168036471Y-69225223D01*
X167879180Y-69604022D01*
X167878822Y-70014179D01*
X166179357Y-70014179D01*
X166179687Y-69636216D01*
X166015689Y-69239311D01*
X165712286Y-68935378D01*
X165315668Y-68770687D01*
X164886216Y-68770313D01*
X164489311Y-68934311D01*
X164185378Y-69237714D01*
X164020687Y-69634332D01*
X164020313Y-70063784D01*
X163639314Y-70063784D01*
X163639687Y-69636216D01*
X163475689Y-69239311D01*
X163172286Y-68935378D01*
X162775668Y-68770687D01*
X162346216Y-68770313D01*
X161949311Y-68934311D01*
X161645378Y-69237714D01*
X161480687Y-69634332D01*
X161480313Y-70063784D01*
X161533937Y-70193563D01*
X161090100Y-70637400D01*
X160759202Y-70637400D01*
X160934622Y-70462286D01*
X161099313Y-70065668D01*
X161099687Y-69636216D01*
X160935689Y-69239311D01*
X160632286Y-68935378D01*
X160235668Y-68770687D01*
X159806216Y-68770313D01*
X159409311Y-68934311D01*
X159105378Y-69237714D01*
X158940687Y-69634332D01*
X158940313Y-70063784D01*
X159104311Y-70460689D01*
X159280714Y-70637400D01*
X158219202Y-70637400D01*
X158394622Y-70462286D01*
X158559313Y-70065668D01*
X158559687Y-69636216D01*
X158395689Y-69239311D01*
X158092286Y-68935378D01*
X157695668Y-68770687D01*
X157266216Y-68770313D01*
X156869311Y-68934311D01*
X156565378Y-69237714D01*
X156400687Y-69634332D01*
X156400313Y-70063784D01*
X156564311Y-70460689D01*
X156740714Y-70637400D01*
X155679202Y-70637400D01*
X155854622Y-70462286D01*
X156019313Y-70065668D01*
X156019687Y-69636216D01*
X155855689Y-69239311D01*
X155552286Y-68935378D01*
X155155668Y-68770687D01*
X154726216Y-68770313D01*
X154329311Y-68934311D01*
X154025378Y-69237714D01*
X153860687Y-69634332D01*
X153860313Y-70063784D01*
X154024311Y-70460689D01*
X154200714Y-70637400D01*
X153139202Y-70637400D01*
X153314622Y-70462286D01*
X153479313Y-70065668D01*
X153479687Y-69636216D01*
X153315689Y-69239311D01*
X153012286Y-68935378D01*
X152615668Y-68770687D01*
X152186216Y-68770313D01*
X151789311Y-68934311D01*
X151485378Y-69237714D01*
X151320687Y-69634332D01*
X151320313Y-70063784D01*
X151484311Y-70460689D01*
X151660714Y-70637400D01*
X137287000Y-70637400D01*
X137287000Y-67595750D01*
X147305000Y-67595750D01*
X147305000Y-68086309D01*
X147401673Y-68319698D01*
X147580301Y-68498327D01*
X147813690Y-68595000D01*
X148304250Y-68595000D01*
X148463000Y-68436250D01*
X148463000Y-67437000D01*
X148717000Y-67437000D01*
X148717000Y-68436250D01*
X148875750Y-68595000D01*
X149366310Y-68595000D01*
X149599699Y-68498327D01*
X149778327Y-68319698D01*
X149809604Y-68244188D01*
X151645417Y-68244188D01*
X151707071Y-68479800D01*
X152207480Y-68655927D01*
X152737199Y-68627148D01*
X153092929Y-68479800D01*
X153154583Y-68244188D01*
X152400000Y-67489605D01*
X151645417Y-68244188D01*
X149809604Y-68244188D01*
X149875000Y-68086309D01*
X149875000Y-67595750D01*
X149716250Y-67437000D01*
X148717000Y-67437000D01*
X148463000Y-67437000D01*
X147463750Y-67437000D01*
X147305000Y-67595750D01*
X137287000Y-67595750D01*
X137287000Y-67095026D01*
X137420302Y-67228327D01*
X137653691Y-67325000D01*
X138144250Y-67325000D01*
X138303000Y-67166250D01*
X138303000Y-66167000D01*
X138557000Y-66167000D01*
X138557000Y-67166250D01*
X138715750Y-67325000D01*
X139206309Y-67325000D01*
X139439698Y-67228327D01*
X139618327Y-67049699D01*
X139715000Y-66816310D01*
X139715000Y-66325750D01*
X139633429Y-66244179D01*
X139898822Y-66244179D01*
X140055451Y-66623251D01*
X140345223Y-66913529D01*
X140724022Y-67070820D01*
X141134179Y-67071178D01*
X141513251Y-66914549D01*
X141803529Y-66624777D01*
X141841351Y-66533691D01*
X147305000Y-66533691D01*
X147305000Y-67024250D01*
X147463750Y-67183000D01*
X148463000Y-67183000D01*
X148463000Y-66183750D01*
X148717000Y-66183750D01*
X148717000Y-67183000D01*
X149716250Y-67183000D01*
X149781770Y-67117480D01*
X151054073Y-67117480D01*
X151082852Y-67647199D01*
X151230200Y-68002929D01*
X151465812Y-68064583D01*
X152220395Y-67310000D01*
X152579605Y-67310000D01*
X153334188Y-68064583D01*
X153569800Y-68002929D01*
X153738442Y-67523784D01*
X153860313Y-67523784D01*
X154024311Y-67920689D01*
X154327714Y-68224622D01*
X154724332Y-68389313D01*
X155153784Y-68389687D01*
X155550689Y-68225689D01*
X155854622Y-67922286D01*
X156019313Y-67525668D01*
X156019314Y-67523784D01*
X161480313Y-67523784D01*
X161644311Y-67920689D01*
X161947714Y-68224622D01*
X162344332Y-68389313D01*
X162773784Y-68389687D01*
X163125918Y-68244188D01*
X164345417Y-68244188D01*
X164407071Y-68479800D01*
X164907480Y-68655927D01*
X165437199Y-68627148D01*
X165792929Y-68479800D01*
X165854583Y-68244188D01*
X165100000Y-67489605D01*
X164345417Y-68244188D01*
X163125918Y-68244188D01*
X163170689Y-68225689D01*
X163474622Y-67922286D01*
X163639313Y-67525668D01*
X163639668Y-67117480D01*
X163754073Y-67117480D01*
X163782852Y-67647199D01*
X163930200Y-68002929D01*
X164165812Y-68064583D01*
X164920395Y-67310000D01*
X165279605Y-67310000D01*
X166034188Y-68064583D01*
X166269800Y-68002929D01*
X166413113Y-67595750D01*
X167625000Y-67595750D01*
X167625000Y-68086309D01*
X167721673Y-68319698D01*
X167900301Y-68498327D01*
X168133690Y-68595000D01*
X168624250Y-68595000D01*
X168783000Y-68436250D01*
X168783000Y-67437000D01*
X169037000Y-67437000D01*
X169037000Y-68436250D01*
X169195750Y-68595000D01*
X169686310Y-68595000D01*
X169919699Y-68498327D01*
X170098327Y-68319698D01*
X170195000Y-68086309D01*
X170195000Y-67595750D01*
X170182642Y-67583392D01*
X171339271Y-67583392D01*
X171548995Y-68090963D01*
X171936994Y-68479640D01*
X172444199Y-68690249D01*
X172993392Y-68690729D01*
X173500963Y-68481005D01*
X173889640Y-68093006D01*
X174100249Y-67585801D01*
X174100729Y-67036608D01*
X173891005Y-66529037D01*
X173503006Y-66140360D01*
X172995801Y-65929751D01*
X172446608Y-65929271D01*
X171939037Y-66138995D01*
X171550360Y-66526994D01*
X171339751Y-67034199D01*
X171339271Y-67583392D01*
X170182642Y-67583392D01*
X170036250Y-67437000D01*
X169037000Y-67437000D01*
X168783000Y-67437000D01*
X167783750Y-67437000D01*
X167625000Y-67595750D01*
X166413113Y-67595750D01*
X166445927Y-67502520D01*
X166417148Y-66972801D01*
X166269800Y-66617071D01*
X166034188Y-66555417D01*
X165279605Y-67310000D01*
X164920395Y-67310000D01*
X164165812Y-66555417D01*
X163930200Y-66617071D01*
X163754073Y-67117480D01*
X163639668Y-67117480D01*
X163639687Y-67096216D01*
X163475689Y-66699311D01*
X163172286Y-66395378D01*
X163125167Y-66375812D01*
X164345417Y-66375812D01*
X165100000Y-67130395D01*
X165696704Y-66533691D01*
X167625000Y-66533691D01*
X167625000Y-67024250D01*
X167783750Y-67183000D01*
X168783000Y-67183000D01*
X168783000Y-66183750D01*
X169037000Y-66183750D01*
X169037000Y-67183000D01*
X170036250Y-67183000D01*
X170195000Y-67024250D01*
X170195000Y-66533691D01*
X170098327Y-66300302D01*
X169919699Y-66121673D01*
X169686310Y-66025000D01*
X169195750Y-66025000D01*
X169037000Y-66183750D01*
X168783000Y-66183750D01*
X168624250Y-66025000D01*
X168133690Y-66025000D01*
X167900301Y-66121673D01*
X167721673Y-66300302D01*
X167625000Y-66533691D01*
X165696704Y-66533691D01*
X165854583Y-66375812D01*
X165792929Y-66140200D01*
X165292520Y-65964073D01*
X164762801Y-65992852D01*
X164407071Y-66140200D01*
X164345417Y-66375812D01*
X163125167Y-66375812D01*
X162775668Y-66230687D01*
X162346216Y-66230313D01*
X161949311Y-66394311D01*
X161645378Y-66697714D01*
X161480687Y-67094332D01*
X161480313Y-67523784D01*
X156019314Y-67523784D01*
X156019687Y-67096216D01*
X155855689Y-66699311D01*
X155552286Y-66395378D01*
X155155668Y-66230687D01*
X154726216Y-66230313D01*
X154329311Y-66394311D01*
X154025378Y-66697714D01*
X153860687Y-67094332D01*
X153860313Y-67523784D01*
X153738442Y-67523784D01*
X153745927Y-67502520D01*
X153717148Y-66972801D01*
X153569800Y-66617071D01*
X153334188Y-66555417D01*
X152579605Y-67310000D01*
X152220395Y-67310000D01*
X151465812Y-66555417D01*
X151230200Y-66617071D01*
X151054073Y-67117480D01*
X149781770Y-67117480D01*
X149875000Y-67024250D01*
X149875000Y-66533691D01*
X149809605Y-66375812D01*
X151645417Y-66375812D01*
X152400000Y-67130395D01*
X153154583Y-66375812D01*
X153092929Y-66140200D01*
X152592520Y-65964073D01*
X152062801Y-65992852D01*
X151707071Y-66140200D01*
X151645417Y-66375812D01*
X149809605Y-66375812D01*
X149778327Y-66300302D01*
X149599699Y-66121673D01*
X149366310Y-66025000D01*
X148875750Y-66025000D01*
X148717000Y-66183750D01*
X148463000Y-66183750D01*
X148304250Y-66025000D01*
X147813690Y-66025000D01*
X147580301Y-66121673D01*
X147401673Y-66300302D01*
X147305000Y-66533691D01*
X141841351Y-66533691D01*
X141960820Y-66245978D01*
X141961178Y-65835821D01*
X141804549Y-65456749D01*
X141514777Y-65166471D01*
X141148017Y-65014179D01*
X147558822Y-65014179D01*
X147715451Y-65393251D01*
X148005223Y-65683529D01*
X148384022Y-65840820D01*
X148794179Y-65841178D01*
X149173251Y-65684549D01*
X149463529Y-65394777D01*
X149620820Y-65015978D01*
X149620848Y-64983784D01*
X151320313Y-64983784D01*
X151484311Y-65380689D01*
X151787714Y-65684622D01*
X152184332Y-65849313D01*
X152613784Y-65849687D01*
X153010689Y-65685689D01*
X153314622Y-65382286D01*
X153479313Y-64985668D01*
X153479314Y-64983784D01*
X153860313Y-64983784D01*
X154024311Y-65380689D01*
X154327714Y-65684622D01*
X154724332Y-65849313D01*
X155153784Y-65849687D01*
X155550689Y-65685689D01*
X155854622Y-65382286D01*
X156019313Y-64985668D01*
X156019314Y-64983784D01*
X161480313Y-64983784D01*
X161644311Y-65380689D01*
X161947714Y-65684622D01*
X162344332Y-65849313D01*
X162773784Y-65849687D01*
X163170689Y-65685689D01*
X163474622Y-65382286D01*
X163639313Y-64985668D01*
X163639314Y-64983784D01*
X164020313Y-64983784D01*
X164184311Y-65380689D01*
X164487714Y-65684622D01*
X164884332Y-65849313D01*
X165313784Y-65849687D01*
X165710689Y-65685689D01*
X166014622Y-65382286D01*
X166179313Y-64985668D01*
X166179687Y-64556216D01*
X166015689Y-64159311D01*
X165712286Y-63855378D01*
X165315668Y-63690687D01*
X164886216Y-63690313D01*
X164489311Y-63854311D01*
X164185378Y-64157714D01*
X164020687Y-64554332D01*
X164020313Y-64983784D01*
X163639314Y-64983784D01*
X163639687Y-64556216D01*
X163475689Y-64159311D01*
X163172286Y-63855378D01*
X162775668Y-63690687D01*
X162346216Y-63690313D01*
X161949311Y-63854311D01*
X161645378Y-64157714D01*
X161480687Y-64554332D01*
X161480313Y-64983784D01*
X156019314Y-64983784D01*
X156019687Y-64556216D01*
X155855689Y-64159311D01*
X155552286Y-63855378D01*
X155155668Y-63690687D01*
X154726216Y-63690313D01*
X154329311Y-63854311D01*
X154025378Y-64157714D01*
X153860687Y-64554332D01*
X153860313Y-64983784D01*
X153479314Y-64983784D01*
X153479687Y-64556216D01*
X153315689Y-64159311D01*
X153012286Y-63855378D01*
X152615668Y-63690687D01*
X152186216Y-63690313D01*
X151789311Y-63854311D01*
X151485378Y-64157714D01*
X151320687Y-64554332D01*
X151320313Y-64983784D01*
X149620848Y-64983784D01*
X149621178Y-64605821D01*
X149464549Y-64226749D01*
X149174777Y-63936471D01*
X148795978Y-63779180D01*
X148385821Y-63778822D01*
X148006749Y-63935451D01*
X147716471Y-64225223D01*
X147559180Y-64604022D01*
X147558822Y-65014179D01*
X141148017Y-65014179D01*
X141135978Y-65009180D01*
X140725821Y-65008822D01*
X140346749Y-65165451D01*
X140056471Y-65455223D01*
X139899180Y-65834022D01*
X139898822Y-66244179D01*
X139633429Y-66244179D01*
X139556250Y-66167000D01*
X138557000Y-66167000D01*
X138303000Y-66167000D01*
X138283000Y-66167000D01*
X138283000Y-65913000D01*
X138303000Y-65913000D01*
X138303000Y-64913750D01*
X138557000Y-64913750D01*
X138557000Y-65913000D01*
X139556250Y-65913000D01*
X139715000Y-65754250D01*
X139715000Y-65263690D01*
X139618327Y-65030301D01*
X139439698Y-64851673D01*
X139206309Y-64755000D01*
X138715750Y-64755000D01*
X138557000Y-64913750D01*
X138303000Y-64913750D01*
X138144250Y-64755000D01*
X137653691Y-64755000D01*
X137420302Y-64851673D01*
X137287000Y-64984974D01*
X137287000Y-62443784D01*
X151320313Y-62443784D01*
X151484311Y-62840689D01*
X151787714Y-63144622D01*
X152184332Y-63309313D01*
X152613784Y-63309687D01*
X153010689Y-63145689D01*
X153314622Y-62842286D01*
X153479313Y-62445668D01*
X153479314Y-62443784D01*
X153860313Y-62443784D01*
X154024311Y-62840689D01*
X154327714Y-63144622D01*
X154724332Y-63309313D01*
X155153784Y-63309687D01*
X155550689Y-63145689D01*
X155854622Y-62842286D01*
X156019313Y-62445668D01*
X156019314Y-62443784D01*
X156400313Y-62443784D01*
X156564311Y-62840689D01*
X156867714Y-63144622D01*
X157264332Y-63309313D01*
X157693784Y-63309687D01*
X158090689Y-63145689D01*
X158394622Y-62842286D01*
X158559313Y-62445668D01*
X158559687Y-62016216D01*
X158395689Y-61619311D01*
X158308032Y-61531500D01*
X158933036Y-61531500D01*
X158933036Y-62928500D01*
X158959603Y-63069690D01*
X159043046Y-63199365D01*
X159170366Y-63286359D01*
X159321500Y-63316964D01*
X160718500Y-63316964D01*
X160859690Y-63290397D01*
X160989365Y-63206954D01*
X161076359Y-63079634D01*
X161106964Y-62928500D01*
X161106964Y-62443784D01*
X161480313Y-62443784D01*
X161644311Y-62840689D01*
X161947714Y-63144622D01*
X162344332Y-63309313D01*
X162773784Y-63309687D01*
X163170689Y-63145689D01*
X163474622Y-62842286D01*
X163639313Y-62445668D01*
X163639314Y-62443784D01*
X164020313Y-62443784D01*
X164184311Y-62840689D01*
X164487714Y-63144622D01*
X164884332Y-63309313D01*
X165313784Y-63309687D01*
X165710689Y-63145689D01*
X166014622Y-62842286D01*
X166179313Y-62445668D01*
X166179687Y-62016216D01*
X166015689Y-61619311D01*
X165712286Y-61315378D01*
X165315668Y-61150687D01*
X164886216Y-61150313D01*
X164489311Y-61314311D01*
X164185378Y-61617714D01*
X164020687Y-62014332D01*
X164020313Y-62443784D01*
X163639314Y-62443784D01*
X163639687Y-62016216D01*
X163475689Y-61619311D01*
X163172286Y-61315378D01*
X162775668Y-61150687D01*
X162346216Y-61150313D01*
X161949311Y-61314311D01*
X161645378Y-61617714D01*
X161480687Y-62014332D01*
X161480313Y-62443784D01*
X161106964Y-62443784D01*
X161106964Y-61531500D01*
X161080397Y-61390310D01*
X160996954Y-61260635D01*
X160869634Y-61173641D01*
X160718500Y-61143036D01*
X159321500Y-61143036D01*
X159180310Y-61169603D01*
X159050635Y-61253046D01*
X158963641Y-61380366D01*
X158933036Y-61531500D01*
X158308032Y-61531500D01*
X158092286Y-61315378D01*
X157695668Y-61150687D01*
X157266216Y-61150313D01*
X156869311Y-61314311D01*
X156565378Y-61617714D01*
X156400687Y-62014332D01*
X156400313Y-62443784D01*
X156019314Y-62443784D01*
X156019687Y-62016216D01*
X155855689Y-61619311D01*
X155552286Y-61315378D01*
X155155668Y-61150687D01*
X154726216Y-61150313D01*
X154329311Y-61314311D01*
X154025378Y-61617714D01*
X153860687Y-62014332D01*
X153860313Y-62443784D01*
X153479314Y-62443784D01*
X153479687Y-62016216D01*
X153315689Y-61619311D01*
X153012286Y-61315378D01*
X152615668Y-61150687D01*
X152186216Y-61150313D01*
X151789311Y-61314311D01*
X151485378Y-61617714D01*
X151320687Y-62014332D01*
X151320313Y-62443784D01*
X137287000Y-62443784D01*
X137287000Y-59676015D01*
X137540056Y-59988658D01*
X138017097Y-60247810D01*
X138088725Y-60261993D01*
X138303000Y-60139339D01*
X138303000Y-58547000D01*
X138557000Y-58547000D01*
X138557000Y-60139339D01*
X138771275Y-60261993D01*
X138842903Y-60247810D01*
X139319944Y-59988658D01*
X139661499Y-59566677D01*
X139815570Y-59046110D01*
X139815570Y-58547000D01*
X138557000Y-58547000D01*
X138303000Y-58547000D01*
X138283000Y-58547000D01*
X138283000Y-58293000D01*
X138303000Y-58293000D01*
X138303000Y-56700661D01*
X138557000Y-56700661D01*
X138557000Y-58293000D01*
X139815570Y-58293000D01*
X139815570Y-57888943D01*
X139838430Y-57888943D01*
X139838430Y-58951057D01*
X139924566Y-59384090D01*
X140169859Y-59751198D01*
X140536967Y-59996491D01*
X140970000Y-60082627D01*
X141403033Y-59996491D01*
X141541779Y-59903784D01*
X153860313Y-59903784D01*
X154024311Y-60300689D01*
X154327714Y-60604622D01*
X154724332Y-60769313D01*
X155153784Y-60769687D01*
X155550689Y-60605689D01*
X155854622Y-60302286D01*
X156019313Y-59905668D01*
X156019314Y-59903784D01*
X156400313Y-59903784D01*
X156564311Y-60300689D01*
X156867714Y-60604622D01*
X157264332Y-60769313D01*
X157693784Y-60769687D01*
X158090689Y-60605689D01*
X158394622Y-60302286D01*
X158559313Y-59905668D01*
X158559314Y-59903784D01*
X158940313Y-59903784D01*
X159104311Y-60300689D01*
X159407714Y-60604622D01*
X159804332Y-60769313D01*
X160233784Y-60769687D01*
X160630689Y-60605689D01*
X160934622Y-60302286D01*
X161099313Y-59905668D01*
X161099314Y-59903784D01*
X161480313Y-59903784D01*
X161644311Y-60300689D01*
X161947714Y-60604622D01*
X162344332Y-60769313D01*
X162773784Y-60769687D01*
X163170689Y-60605689D01*
X163474622Y-60302286D01*
X163639313Y-59905668D01*
X163639687Y-59476216D01*
X163475689Y-59079311D01*
X163172286Y-58775378D01*
X162775668Y-58610687D01*
X162346216Y-58610313D01*
X161949311Y-58774311D01*
X161645378Y-59077714D01*
X161480687Y-59474332D01*
X161480313Y-59903784D01*
X161099314Y-59903784D01*
X161099687Y-59476216D01*
X160935689Y-59079311D01*
X160632286Y-58775378D01*
X160235668Y-58610687D01*
X159806216Y-58610313D01*
X159409311Y-58774311D01*
X159105378Y-59077714D01*
X158940687Y-59474332D01*
X158940313Y-59903784D01*
X158559314Y-59903784D01*
X158559687Y-59476216D01*
X158395689Y-59079311D01*
X158092286Y-58775378D01*
X157695668Y-58610687D01*
X157266216Y-58610313D01*
X156869311Y-58774311D01*
X156565378Y-59077714D01*
X156400687Y-59474332D01*
X156400313Y-59903784D01*
X156019314Y-59903784D01*
X156019687Y-59476216D01*
X155855689Y-59079311D01*
X155552286Y-58775378D01*
X155155668Y-58610687D01*
X154726216Y-58610313D01*
X154329311Y-58774311D01*
X154025378Y-59077714D01*
X153860687Y-59474332D01*
X153860313Y-59903784D01*
X141541779Y-59903784D01*
X141770141Y-59751198D01*
X142015434Y-59384090D01*
X142101570Y-58951057D01*
X142101570Y-58302163D01*
X171747443Y-58302163D01*
X171846042Y-58568965D01*
X172455582Y-58795401D01*
X173105377Y-58771341D01*
X173593958Y-58568965D01*
X173692557Y-58302163D01*
X172720000Y-57329605D01*
X171747443Y-58302163D01*
X142101570Y-58302163D01*
X142101570Y-57888943D01*
X142015434Y-57455910D01*
X141770141Y-57088802D01*
X141403033Y-56843509D01*
X140970000Y-56757373D01*
X140536967Y-56843509D01*
X140169859Y-57088802D01*
X139924566Y-57455910D01*
X139838430Y-57888943D01*
X139815570Y-57888943D01*
X139815570Y-57793890D01*
X139661499Y-57273323D01*
X139319944Y-56851342D01*
X138842903Y-56592190D01*
X138771275Y-56578007D01*
X138557000Y-56700661D01*
X138303000Y-56700661D01*
X138088725Y-56578007D01*
X138017097Y-56592190D01*
X137540056Y-56851342D01*
X137287000Y-57163985D01*
X137287000Y-56007000D01*
X171509716Y-56007000D01*
X171453554Y-56063162D01*
M02*
